<svg xmlns="http://www.w3.org/2000/svg" xmlns:xlink="http://www.w3.org/1999/xlink" width="500" zoomAndPan="magnify" viewBox="0 0 375 374.999991" height="500" preserveAspectRatio="xMidYMid meet" version="1.0"><defs><g/><clipPath id="id1"><path d="M 113.144531 114.71875 L 264.644531 114.71875 L 264.644531 266.21875 L 113.144531 266.21875 Z M 113.144531 114.71875 " clip-rule="nonzero"/></clipPath><clipPath id="id2"><path d="M 122 145.125 L 253 145.125 L 253 212.625 L 122 212.625 Z M 122 145.125 " clip-rule="nonzero"/></clipPath></defs><path stroke-linecap="butt" transform="matrix(1.47839, 0, 0, 1.5, 83.4739, 188.249988)" fill="none" stroke-linejoin="miter" d="M -0.000841164 0.00000824117 L 15.731007 0.00000824117 " stroke="#000000" stroke-width="1" stroke-opacity="1" stroke-miterlimit="4"/><path stroke-linecap="butt" transform="matrix(1.47839, 0, 0, 1.5, 267.92823, 186.749988)" fill="none" stroke-linejoin="miter" d="M 0.000985798 0.0000081755 L 15.732834 0.0000081755 " stroke="#000000" stroke-width="1" stroke-opacity="1" stroke-miterlimit="4"/><g clip-path="url(#id1)"><path fill="#ffffff" d="M 188.894531 114.71875 C 147.058594 114.71875 113.144531 148.632812 113.144531 190.46875 C 113.144531 232.304688 147.058594 266.21875 188.894531 266.21875 C 230.730469 266.21875 264.644531 232.304688 264.644531 190.46875 C 264.644531 148.632812 230.730469 114.71875 188.894531 114.71875 " fill-opacity="1" fill-rule="nonzero"/></g><g clip-path="url(#id2)"><path fill="#000000" d="M 250.265625 204.179688 C 248.101562 200.960938 243.476562 198.769531 240.863281 196.492188 C 237.8125 195.804688 235.175781 194.28125 232.53125 193.074219 C 229.738281 191.800781 226.980469 190.761719 224.199219 189.65625 C 215.746094 186.3125 207.695312 182.523438 201.976562 176.628906 C 199.996094 174.589844 198.273438 172.082031 197.0625 169.796875 C 196.324219 168.410156 195.757812 165.929688 194.710938 165.308594 C 192.929688 164.253906 189.644531 165.203125 187.875 164.457031 C 189.53125 158.546875 183.050781 156.425781 183.386719 151.640625 C 183.714844 147.019531 189.082031 147.121094 191.292969 149.71875 C 192.011719 150.5625 192.445312 152.847656 194.496094 152.066406 C 195.207031 150.859375 193.738281 149.523438 193 148.652344 C 192.082031 147.5625 190.972656 146.46875 189.582031 146.089844 C 186.023438 145.113281 181.84375 147.066406 181.464844 151.214844 C 180.90625 157.320312 186.945312 157.644531 186.164062 164.457031 C 183.476562 165.15625 180.199219 164.304688 178.6875 165.308594 C 177.757812 165.925781 176.382812 169.785156 175.480469 171.289062 C 174.28125 173.296875 172.671875 175.503906 171.421875 176.84375 C 164.804688 183.933594 154.554688 186.738281 144.925781 190.941406 C 141.476562 192.445312 137.976562 194.238281 134.457031 196.066406 C 129.710938 198.53125 124.464844 200.925781 122.917969 205.675781 C 122.503906 206.953125 121.851562 210.117188 123.558594 211.65625 C 126.019531 212.328125 128.328125 208.84375 131.039062 208.238281 C 132.375 207.941406 134.828125 208.238281 137.019531 208.238281 L 144.5 208.238281 C 168.085938 208.238281 200.789062 208.453125 229.324219 208.453125 C 234.210938 208.453125 239.753906 207.875 243.429688 208.667969 C 246.109375 209.246094 247.898438 212.625 251.121094 212.296875 C 253.074219 209.632812 251.625 206.203125 250.265625 204.179688 Z M 192.789062 150.359375 C 191.578125 148.863281 190.566406 147.167969 188.085938 146.941406 C 190.414062 146.46875 192.007812 148.574219 192.789062 150.359375 Z M 186.164062 146.730469 C 186.609375 146.609375 187.796875 146.628906 187.875 146.730469 C 188.085938 147.007812 186.785156 146.855469 186.589844 146.941406 C 185.816406 147.289062 183.640625 148.261719 182.960938 149.292969 C 183.675781 147.855469 185.3125 146.957031 186.164062 146.730469 Z M 182.53125 149.71875 C 183.390625 149.804688 182.371094 151.300781 182.316406 151.855469 C 183.496094 156.433594 187.683594 158.933594 187.230469 164.457031 C 186.179688 163.515625 186.808594 162.820312 186.589844 161.679688 C 185.773438 157.390625 180.8125 155.328125 182.53125 149.71875 Z M 194.496094 165.949219 C 197.085938 170.984375 199.261719 175.320312 203.257812 178.980469 C 209.566406 184.753906 220.453125 188.382812 229.328125 192.222656 C 233.417969 193.992188 236.332031 195.566406 240.4375 197.132812 C 244.070312 199.90625 248.636719 201.753906 250.050781 206.746094 C 240.769531 193.097656 215.796875 191.515625 203.257812 180.6875 C 199.160156 177.148438 196.703125 172.882812 194.070312 167.445312 C 190.515625 166.222656 184.84375 165.402344 181.035156 166.804688 C 178.695312 167.671875 178.691406 169.941406 177.191406 171.503906 C 176.324219 171.183594 177.820312 169.78125 178.046875 169.15625 C 177.382812 163.3125 189.425781 164.957031 194.496094 165.949219 Z M 128.472656 199.910156 C 143.175781 189.792969 167.507812 187.464844 176.335938 171.078125 C 177.019531 171.976562 175.757812 172.925781 175.265625 173.851562 C 176.234375 173.679688 176.359375 172.667969 176.761719 171.929688 C 172.820312 181.402344 163.3125 185.148438 153.046875 189.445312 C 148.332031 191.417969 143.496094 193.535156 138.515625 195.851562 C 132.789062 198.515625 126.3125 201.210938 123.988281 206.957031 C 123.875 203.867188 126.359375 201.363281 128.472656 199.910156 Z M 127.191406 209.308594 C 127.070312 209.6875 126.597656 209.339844 126.976562 209.308594 C 139.121094 202.578125 150.960938 195.546875 163.300781 189.015625 C 151.464844 195.980469 139.390625 202.707031 127.191406 209.308594 Z M 186.59375 176.84375 C 188.589844 177.332031 189.355469 177.59375 192.085938 179.394531 C 194.179688 180.773438 195.867188 181.796875 197.703125 182.824219 C 210.996094 190.265625 225.164062 197.816406 238.085938 205.890625 C 226.808594 205.511719 212.59375 205.859375 200.722656 205.917969 L 193.824219 205.863281 C 177.546875 205.433594 157.820312 205.589844 135.949219 205.464844 C 152.539062 195.628906 169.917969 186.589844 186.589844 176.84375 Z M 163.515625 189.015625 C 165.285156 187.796875 167.160156 186.679688 169.285156 185.8125 C 168.5625 186.390625 165.34375 188.125 163.515625 189.015625 Z M 169.710938 185.601562 C 171.363281 184.332031 173.289062 183.339844 175.265625 182.394531 C 173.609375 183.660156 171.652344 184.621094 169.710938 185.601562 Z M 134.027344 207.386719 C 135.027344 207.5 138.234375 206.5625 139.371094 207.597656 C 138.003906 207.351562 134.820312 207.929688 134.027344 207.386719 Z M 139.585938 207.171875 C 142.421875 207.3125 143.683594 207.265625 145.996094 207.386719 C 144.414062 207.609375 140.8125 208.011719 139.585938 207.171875 Z M 146.421875 207.386719 L 147.703125 207.386719 C 163.71875 207.246094 180.839844 207.675781 197.273438 207.171875 C 180.816406 207.0625 157.980469 207.253906 134.027344 206.746094 C 135.613281 205.636719 140.128906 205.796875 143.644531 205.890625 C 153.839844 206.15625 168.445312 206.222656 182.523438 206.078125 L 182.652344 206.136719 L 208.421875 206.351562 L 208.386719 206.285156 C 215.679688 206.398438 222.832031 206.382812 229.113281 206.316406 C 232.765625 206.277344 236.671875 205.84375 240.007812 206.957031 C 224.054688 207.402344 211.5625 206.894531 197.488281 207.171875 C 212.984375 207.730469 229.402344 207.121094 241.078125 207.597656 C 205.894531 207.929688 176.84375 207.988281 146.421875 207.386719 Z M 250.480469 211.230469 C 233.015625 201.417969 215.734375 191.425781 198.34375 181.542969 L 196.847656 181.542969 C 193.886719 179.378906 190.332031 177.800781 187.019531 175.988281 C 183.4375 177.746094 180.148438 179.800781 176.761719 181.753906 C 171.53125 182.996094 166.539062 186.640625 162.019531 189.230469 C 149.28125 196.527344 136.261719 203.363281 123.558594 210.375 C 125.570312 201.027344 135.972656 197.015625 144.285156 193.503906 C 151.054688 190.640625 157.957031 188.152344 163.730469 185.171875 C 164.210938 185.667969 162.457031 185.742188 162.445312 186.453125 C 167.804688 183.484375 173.53125 178.910156 177.191406 172.570312 C 178.167969 170.882812 179.589844 167.382812 181.25 167.230469 C 183.679688 167.011719 184.804688 169.902344 187.234375 170.222656 C 186.980469 169.335938 185.867188 169.3125 185.308594 168.726562 C 186.5625 168.621094 187.957031 170.207031 189.371094 170.648438 C 188.238281 169.148438 186.230469 168.519531 184.457031 167.660156 C 184.308594 168.234375 184.898438 168.074219 185.097656 168.300781 C 184.382812 168.652344 183.496094 167.34375 182.53125 167.230469 C 186.09375 166.164062 190.980469 166.402344 193.855469 167.875 C 195.617188 171.546875 197.261719 174.859375 199.625 177.699219 C 209.382812 189.402344 229.367188 190.785156 241.503906 200.125 L 242.574219 200.125 C 245.09375 202.515625 248.238281 204.285156 249.625 207.8125 C 248.703125 207.664062 248.3125 206.988281 247.488281 206.746094 C 248.457031 208.21875 251.242188 208.703125 250.480469 211.230469 Z M 250.480469 211.230469 " fill-opacity="1" fill-rule="nonzero"/></g><g fill="#000000" fill-opacity="1"><g transform="translate(105.846491, 177.693099)"><g/></g></g><g fill="#000000" fill-opacity="1"><g transform="translate(107.014621, 167.008343)"><g><path d="M -8.632812 -24.273438 C -8.566406 -24.457031 -8.65625 -24.648438 -8.839844 -24.714844 C -9.023438 -24.78125 -9.234375 -24.703125 -9.300781 -24.519531 L -10.671875 -20.769531 C -10.6875 -20.722656 -10.683594 -20.667969 -10.667969 -20.636719 C -10.675781 -20.613281 -10.675781 -20.613281 -10.675781 -20.613281 C -10.683594 -20.589844 -10.660156 -20.582031 -10.667969 -20.558594 C -10.65625 -20.527344 -10.65625 -20.527344 -10.640625 -20.496094 C -10.625 -20.464844 -10.625 -20.464844 -10.609375 -20.433594 C -10.589844 -20.425781 -10.597656 -20.402344 -10.574219 -20.394531 L -1.019531 -11.558594 L -14.019531 -10.960938 C -14.148438 -10.953125 -14.292969 -10.851562 -14.335938 -10.734375 L -15.789062 -6.753906 C -15.855469 -6.570312 -15.742188 -6.375 -15.558594 -6.308594 C -15.375 -6.238281 -15.1875 -6.328125 -15.121094 -6.511719 C -15.035156 -6.742188 -14.820312 -6.976562 -14.550781 -7.136719 L -0.792969 -2.113281 C -0.402344 -1.972656 -0.171875 -1.523438 -0.324219 -1.109375 C -0.390625 -0.925781 -0.304688 -0.738281 -0.121094 -0.667969 C 0.0625 -0.601562 0.273438 -0.683594 0.34375 -0.867188 L 1.125 -3.003906 C 1.191406 -3.191406 1.078125 -3.386719 0.894531 -3.453125 C 0.710938 -3.519531 0.523438 -3.433594 0.457031 -3.25 C 0.304688 -2.835938 -0.15625 -2.640625 -0.550781 -2.78125 L -13.296875 -7.4375 L 2.726562 -8.183594 L 2.78125 -8.191406 C 2.804688 -8.179688 2.835938 -8.195312 2.867188 -8.210938 C 2.867188 -8.210938 2.867188 -8.210938 2.890625 -8.203125 C 2.921875 -8.214844 2.929688 -8.238281 2.960938 -8.253906 C 2.992188 -8.269531 2.992188 -8.269531 3 -8.292969 C 3 -8.292969 3.03125 -8.304688 3.03125 -8.304688 C 3.03125 -8.304688 3.042969 -8.328125 3.042969 -8.328125 C 3.050781 -8.351562 3.082031 -8.367188 3.097656 -8.414062 C 3.105469 -8.4375 3.089844 -8.46875 3.109375 -8.511719 C 3.09375 -8.542969 3.109375 -8.589844 3.097656 -8.621094 C 3.082031 -8.652344 3.066406 -8.683594 3.050781 -8.714844 C 3.039062 -8.746094 3.015625 -8.757812 3 -8.789062 L 1.261719 -10.386719 L 0.0546875 -11.507812 L -8.808594 -19.722656 L 3.9375 -15.070312 C 4.328125 -14.925781 4.546875 -14.453125 4.40625 -14.0625 C 4.335938 -13.878906 4.417969 -13.667969 4.601562 -13.601562 C 4.785156 -13.535156 5.003906 -13.636719 5.070312 -13.820312 L 6.828125 -18.628906 C 6.894531 -18.8125 6.785156 -19.011719 6.601562 -19.078125 C 6.414062 -19.144531 6.226562 -19.058594 6.160156 -18.871094 C 6.007812 -18.457031 5.546875 -18.261719 5.15625 -18.40625 L -8.167969 -23.269531 C -8.558594 -23.414062 -8.785156 -23.859375 -8.632812 -24.273438 Z M -0.304688 -10.878906 L 1.902344 -8.851562 L -13.835938 -8.101562 L -14.550781 -8.074219 L -13.75 -10.261719 Z M -9.886719 -20.847656 L -9.148438 -22.871094 L 5.648438 -17.46875 L 4.910156 -15.445312 Z M -9.886719 -20.847656 "/></g></g></g><g fill="#000000" fill-opacity="1"><g transform="translate(115.004858, 146.20277)"><g><path d="M 2.941406 -11.125 L -3.851562 -21.726562 C -4.164062 -22.179688 -4.160156 -22.921875 -3.882812 -23.324219 C -3.785156 -23.464844 -3.808594 -23.691406 -3.96875 -23.800781 C -4.128906 -23.914062 -4.367188 -23.871094 -4.464844 -23.726562 C -4.480469 -23.707031 -5.121094 -22.78125 -5.121094 -22.78125 L -5.757812 -21.851562 C -5.871094 -21.691406 -5.828125 -21.453125 -5.664062 -21.34375 C -5.503906 -21.230469 -5.285156 -21.289062 -5.175781 -21.449219 C -5.117188 -21.53125 -5 -21.65625 -4.859375 -21.648438 C -4.714844 -21.640625 -4.574219 -21.542969 -4.46875 -21.351562 L 1.890625 -11.460938 L -9.609375 -13.855469 C -9.832031 -13.917969 -9.972656 -14.015625 -10.03125 -14.148438 C -10.089844 -14.277344 -10.027344 -14.410156 -9.957031 -14.511719 C -9.847656 -14.675781 -9.882812 -14.878906 -10.046875 -14.988281 C -10.207031 -15.101562 -10.429688 -15.078125 -10.542969 -14.917969 L -11.183594 -13.988281 L -12.949219 -11.425781 L -13.585938 -10.5 C -13.699219 -10.339844 -13.640625 -10.121094 -13.480469 -10.007812 C -13.320312 -9.898438 -13.113281 -9.933594 -13.003906 -10.097656 C -12.726562 -10.5 -12.046875 -10.746094 -11.5 -10.636719 L 1.050781 -7.996094 L 2.863281 -6.742188 C 3.226562 -6.492188 3.316406 -6.015625 3.066406 -5.652344 C 2.953125 -5.492188 2.992188 -5.285156 3.152344 -5.175781 C 3.3125 -5.0625 3.539062 -5.089844 3.648438 -5.25 L 4.289062 -6.175781 C 4.289062 -6.175781 4.289062 -6.175781 4.304688 -6.195312 L 5.914062 -8.535156 L 6.554688 -9.464844 C 6.667969 -9.625 6.621094 -9.863281 6.460938 -9.976562 C 6.300781 -10.085938 6.082031 -10.027344 5.96875 -9.867188 C 5.734375 -9.523438 5.222656 -9.429688 4.878906 -9.667969 L 3.066406 -10.917969 Z M 3.265625 -7.328125 C 3.265625 -7.328125 1.390625 -8.621094 1.390625 -8.621094 C 1.371094 -8.632812 1.351562 -8.648438 1.316406 -8.640625 C 1.316406 -8.640625 1.296875 -8.65625 1.277344 -8.671875 L -11.359375 -11.3125 L -12.058594 -11.46875 L -10.738281 -13.382812 L 2.433594 -10.609375 L 2.527344 -10.484375 C 2.515625 -10.464844 2.535156 -10.449219 2.554688 -10.4375 C 2.574219 -10.421875 2.59375 -10.410156 2.617188 -10.394531 L 5.136719 -8.65625 L 3.914062 -6.882812 Z M 3.265625 -7.328125 "/></g></g></g><g fill="#000000" fill-opacity="1"><g transform="translate(126.809087, 130.155338)"><g/></g></g><g fill="#000000" fill-opacity="1"><g transform="translate(134.449913, 122.391621)"><g><path d="M -1.921875 -18.8125 C -0.195312 -20.0625 2.011719 -20.660156 4.273438 -20.222656 C 4.273438 -20.222656 4.308594 -20.21875 4.328125 -20.230469 C 4.339844 -20.210938 4.363281 -20.226562 4.363281 -20.226562 C 4.382812 -20.238281 4.394531 -20.21875 4.394531 -20.21875 C 4.414062 -20.234375 4.414062 -20.234375 4.4375 -20.246094 C 4.4375 -20.246094 4.457031 -20.261719 4.46875 -20.242188 C 4.488281 -20.253906 4.511719 -20.269531 4.53125 -20.28125 C 4.550781 -20.296875 4.570312 -20.308594 4.589844 -20.324219 C 4.578125 -20.34375 4.597656 -20.359375 4.597656 -20.359375 C 4.597656 -20.359375 4.617188 -20.371094 4.617188 -20.371094 C 4.636719 -20.386719 4.625 -20.40625 4.644531 -20.417969 C 4.644531 -20.417969 4.664062 -20.433594 4.648438 -20.453125 C 4.65625 -20.488281 4.683594 -20.535156 4.675781 -20.589844 C 4.675781 -20.589844 4.675781 -20.589844 4.660156 -20.609375 C 4.679688 -20.625 4.667969 -20.644531 4.667969 -20.644531 C 4.667969 -20.644531 4.652344 -20.664062 4.675781 -20.679688 C 4.660156 -20.699219 4.660156 -20.699219 4.644531 -20.71875 C 4.632812 -20.738281 4.617188 -20.757812 4.605469 -20.777344 C 4.605469 -20.777344 3.507812 -22.371094 3.507812 -22.371094 L 3.3125 -22.65625 C 3.203125 -22.816406 2.996094 -22.855469 2.835938 -22.742188 C 2.675781 -22.632812 2.636719 -22.425781 2.746094 -22.265625 L 2.941406 -21.984375 C 3.121094 -21.722656 3.054688 -21.347656 2.792969 -21.167969 C 2.691406 -21.097656 2.574219 -21.046875 2.472656 -21.066406 C 2.453125 -21.050781 2.453125 -21.050781 2.417969 -21.058594 C 0.78125 -20.972656 -0.777344 -20.433594 -2.101562 -19.550781 C -2.125 -19.535156 -2.125 -19.535156 -2.144531 -19.523438 C -2.222656 -19.464844 -2.304688 -19.410156 -2.367188 -19.371094 C -4.097656 -18.085938 -5.367188 -16.171875 -5.78125 -13.921875 C -6.65625 -9.1875 -3.5 -4.609375 1.234375 -3.734375 C 3.503906 -3.335938 5.722656 -3.824219 7.542969 -4.984375 C 7.621094 -5.042969 7.683594 -5.082031 7.761719 -5.136719 C 7.78125 -5.152344 7.78125 -5.152344 7.804688 -5.167969 C 9.101562 -6.089844 10.160156 -7.355469 10.824219 -8.855469 C 10.832031 -8.886719 10.832031 -8.886719 10.851562 -8.902344 C 10.871094 -9.003906 10.957031 -9.09375 11.058594 -9.164062 C 11.320312 -9.34375 11.695312 -9.273438 11.875 -9.011719 L 12.070312 -8.730469 C 12.183594 -8.570312 12.386719 -8.53125 12.546875 -8.640625 C 12.710938 -8.753906 12.746094 -8.957031 12.636719 -9.121094 C 12.636719 -9.121094 12.441406 -9.402344 12.441406 -9.402344 L 11.34375 -10.996094 C 11.328125 -11.015625 11.316406 -11.035156 11.300781 -11.054688 C 11.289062 -11.074219 11.289062 -11.074219 11.273438 -11.097656 C 11.253906 -11.082031 11.253906 -11.082031 11.238281 -11.101562 C 11.238281 -11.101562 11.226562 -11.121094 11.207031 -11.109375 C 11.191406 -11.128906 11.191406 -11.128906 11.191406 -11.128906 C 11.144531 -11.15625 11.089844 -11.148438 11.054688 -11.152344 C 11.042969 -11.175781 11.023438 -11.160156 11.023438 -11.160156 C 11 -11.144531 10.988281 -11.167969 10.96875 -11.152344 C 10.96875 -11.152344 10.945312 -11.140625 10.945312 -11.140625 C 10.945312 -11.140625 10.925781 -11.125 10.914062 -11.144531 C 10.894531 -11.132812 10.871094 -11.117188 10.851562 -11.101562 C 10.832031 -11.089844 10.8125 -11.074219 10.792969 -11.0625 C 10.804688 -11.042969 10.785156 -11.027344 10.785156 -11.027344 C 10.765625 -11.015625 10.765625 -11.015625 10.746094 -11 C 10.746094 -11 10.757812 -10.980469 10.738281 -10.964844 C 10.738281 -10.964844 10.71875 -10.953125 10.734375 -10.933594 C 10.710938 -10.917969 10.707031 -10.882812 10.707031 -10.882812 C 10.304688 -8.613281 8.976562 -6.746094 7.179688 -5.597656 C 4.886719 -4.257812 1.171875 -5.984375 -1.257812 -9.511719 C -3.703125 -13.0625 -3.988281 -17.148438 -1.921875 -18.8125 Z M 3.59375 -21.035156 C 3.574219 -21.023438 3.574219 -21.023438 3.574219 -21.023438 C 3.574219 -21.023438 3.574219 -21.023438 3.59375 -21.035156 Z M 11.203125 -9.945312 C 11.203125 -9.945312 11.203125 -9.945312 11.222656 -9.960938 C 11.203125 -9.945312 11.203125 -9.945312 11.203125 -9.945312 Z M -1.855469 -9.128906 C -0.0507812 -6.507812 2.425781 -4.855469 4.652344 -4.515625 C 3.605469 -4.265625 2.484375 -4.210938 1.347656 -4.4375 C -3 -5.21875 -5.90625 -9.4375 -5.085938 -13.777344 C -4.894531 -14.921875 -4.441406 -15.949219 -3.835938 -16.839844 C -4.3125 -14.636719 -3.648438 -11.734375 -1.855469 -9.128906 Z M -1.855469 -9.128906 "/></g></g></g><g fill="#000000" fill-opacity="1"><g transform="translate(149.431238, 112.410406)"><g><path d="M 10.703125 -9.472656 C 10.523438 -9.394531 10.441406 -9.203125 10.519531 -9.023438 C 11.28125 -7.191406 10.410156 -5.078125 8.578125 -4.3125 L 4.597656 -2.65625 L -1.152344 -16.472656 C -1.3125 -16.859375 -1.117188 -17.339844 -0.730469 -17.5 C -0.550781 -17.574219 -0.449219 -17.777344 -0.523438 -17.957031 C -0.601562 -18.136719 -0.824219 -18.230469 -1.003906 -18.15625 L -5.730469 -16.1875 C -5.910156 -16.113281 -5.980469 -15.898438 -5.90625 -15.714844 C -5.832031 -15.535156 -5.640625 -15.457031 -5.457031 -15.53125 C -5.050781 -15.699219 -4.59375 -15.492188 -4.433594 -15.109375 L 1.019531 -2.015625 C 1.179688 -1.632812 1.003906 -1.160156 0.59375 -0.992188 C 0.414062 -0.914062 0.335938 -0.722656 0.410156 -0.542969 C 0.484375 -0.363281 0.6875 -0.261719 0.867188 -0.335938 L 12.492188 -5.175781 C 12.671875 -5.25 12.742188 -5.464844 12.667969 -5.644531 L 11.152344 -9.285156 C 11.078125 -9.46875 10.882812 -9.546875 10.703125 -9.472656 Z M 11.421875 -6.851562 L 11.902344 -5.699219 L 10.75 -5.21875 C 11.078125 -5.699219 11.292969 -6.265625 11.421875 -6.851562 Z M -4.078125 -16.105469 L -2.109375 -16.925781 L 3.941406 -2.382812 L 1.976562 -1.566406 Z M -4.078125 -16.105469 "/></g></g></g><g fill="#000000" fill-opacity="1"><g transform="translate(164.417407, 106.129582)"><g><path d="M 6.207031 -18.632812 C 1.453125 -17.804688 -1.710938 -13.277344 -0.890625 -8.546875 C -0.0625 -3.792969 4.445312 -0.597656 9.199219 -1.425781 C 13.953125 -2.25 17.144531 -6.785156 16.316406 -11.539062 C 15.496094 -16.269531 10.964844 -19.457031 6.207031 -18.632812 Z M 12.578125 -10.886719 C 13.335938 -6.519531 11.78125 -2.59375 9.078125 -2.125 C 6.398438 -1.660156 3.585938 -4.824219 2.828125 -9.191406 C 2.070312 -13.539062 3.652344 -17.464844 6.332031 -17.933594 C 9.035156 -18.402344 11.820312 -15.230469 12.578125 -10.886719 Z M -0.214844 -8.664062 C -0.792969 -11.996094 0.808594 -15.230469 3.550781 -16.902344 C 2.199219 -15.101562 1.585938 -12.183594 2.128906 -9.070312 C 2.671875 -5.933594 4.234375 -3.394531 6.113281 -2.15625 C 2.96875 -2.804688 0.371094 -5.308594 -0.214844 -8.664062 Z M 11.859375 -3.15625 C 13.210938 -4.957031 13.824219 -7.871094 13.28125 -10.984375 C 12.734375 -14.121094 11.175781 -16.660156 9.292969 -17.902344 C 12.441406 -17.253906 15.039062 -14.746094 15.621094 -11.394531 C 16.199219 -8.0625 14.601562 -4.824219 11.859375 -3.15625 Z M 11.859375 -3.15625 "/></g></g></g><g fill="#000000" fill-opacity="1"><g transform="translate(184.604054, 103.110275)"><g><path d="M 9.328125 -9.378906 L 5.242188 -10.683594 C 4.035156 -11.105469 3.273438 -12.265625 3.328125 -13.539062 C 3.398438 -15.152344 4.75 -16.394531 6.367188 -16.324219 L 7.148438 -16.289062 C 9.546875 -16.1875 11.421875 -14.144531 11.320312 -11.746094 C 11.308594 -11.550781 11.472656 -11.371094 11.644531 -11.363281 C 11.839844 -11.355469 12.019531 -11.519531 12.027344 -11.714844 L 12.222656 -16.269531 C 12.234375 -16.464844 12.066406 -16.617188 11.871094 -16.625 C 11.699219 -16.632812 11.523438 -16.496094 11.515625 -16.296875 L 11.496094 -15.882812 C 11.484375 -15.589844 11.226562 -15.332031 10.910156 -15.34375 C 10.789062 -15.347656 10.644531 -15.429688 10.546875 -15.507812 C 10.523438 -15.53125 10.523438 -15.53125 10.5 -15.558594 C 9.632812 -16.402344 8.476562 -16.945312 7.179688 -17 L 6.398438 -17.035156 C 3.582031 -17.15625 1.234375 -14.976562 1.113281 -12.1875 C 1.015625 -9.933594 2.421875 -7.863281 4.550781 -7.160156 L 8.636719 -5.855469 C 9.84375 -5.433594 10.605469 -4.273438 10.550781 -3.003906 C 10.480469 -1.386719 9.125 -0.144531 7.511719 -0.214844 L 5.675781 -0.292969 C 3.253906 -0.398438 1.378906 -2.441406 1.484375 -4.839844 C 1.492188 -5.035156 1.351562 -5.214844 1.15625 -5.222656 C 0.960938 -5.230469 0.808594 -5.066406 0.796875 -4.871094 L 0.601562 -0.316406 C 0.59375 -0.121094 0.734375 0.03125 0.929688 0.0390625 C 1.125 0.046875 1.277344 -0.09375 1.289062 -0.289062 L 1.304688 -0.703125 C 1.316406 -0.996094 1.574219 -1.257812 1.890625 -1.242188 C 2.039062 -1.234375 2.160156 -1.15625 2.277344 -1.078125 C 2.277344 -1.054688 2.300781 -1.054688 2.300781 -1.027344 C 3.171875 -0.183594 4.324219 0.359375 5.644531 0.414062 L 7.480469 0.492188 C 10.269531 0.613281 12.644531 -1.5625 12.765625 -4.355469 C 12.863281 -6.605469 11.457031 -8.675781 9.328125 -9.378906 Z M 11.449219 -14.757812 L 11.429688 -14.316406 C 11.359375 -14.441406 11.292969 -14.566406 11.222656 -14.667969 C 11.296875 -14.691406 11.375 -14.734375 11.449219 -14.757812 Z M 1.355469 -1.828125 L 1.371094 -2.269531 C 1.441406 -2.144531 1.507812 -2.019531 1.601562 -1.917969 C 1.503906 -1.898438 1.429688 -1.851562 1.355469 -1.828125 Z M 10.933594 -1.636719 C 11.121094 -2.046875 11.238281 -2.484375 11.257812 -2.972656 C 11.328125 -4.5625 10.359375 -5.976562 8.863281 -6.53125 L 4.773438 -7.8125 C 2.9375 -8.429688 1.714844 -10.222656 1.796875 -12.15625 C 1.84375 -13.210938 2.277344 -14.171875 2.945312 -14.902344 C 2.757812 -14.492188 2.640625 -14.058594 2.621094 -13.566406 C 2.550781 -11.976562 3.519531 -10.5625 5.015625 -10.007812 L 9.105469 -8.726562 C 10.941406 -8.109375 12.164062 -6.316406 12.078125 -4.382812 C 12.035156 -3.332031 11.601562 -2.367188 10.933594 -1.636719 Z M 10.933594 -1.636719 "/></g></g></g><g fill="#000000" fill-opacity="1"><g transform="translate(199.729567, 103.885884)"><g><path d="M 13.140625 -13.753906 C 15.070312 -13.292969 16.265625 -11.34375 15.804688 -9.414062 C 15.757812 -9.222656 15.867188 -9.046875 16.058594 -9 C 16.25 -8.953125 16.425781 -9.0625 16.472656 -9.253906 L 17.390625 -13.089844 C 17.4375 -13.277344 17.332031 -13.480469 17.144531 -13.527344 L 4.898438 -16.457031 C 4.707031 -16.503906 4.523438 -16.371094 4.480469 -16.179688 C 4.433594 -15.988281 4.542969 -15.8125 4.734375 -15.765625 C 5.164062 -15.664062 5.410156 -15.226562 5.3125 -14.824219 L 2.011719 -1.03125 C 1.914062 -0.625 1.492188 -0.347656 1.066406 -0.449219 C 0.875 -0.496094 0.695312 -0.386719 0.652344 -0.195312 C 0.605469 -0.0078125 0.707031 0.195312 0.898438 0.242188 L 13.144531 3.171875 C 13.335938 3.21875 13.515625 3.085938 13.5625 2.894531 L 14.480469 -0.941406 C 14.527344 -1.128906 14.417969 -1.308594 14.226562 -1.351562 C 14.035156 -1.398438 13.859375 -1.289062 13.8125 -1.097656 C 13.351562 0.832031 11.402344 2.027344 9.472656 1.5625 L 5.28125 0.558594 L 7.039062 -6.777344 L 9.300781 -6.234375 C 9.730469 -6.132812 9.984375 -5.71875 9.882812 -5.289062 C 9.835938 -5.101562 9.9375 -4.898438 10.128906 -4.851562 C 10.320312 -4.808594 10.527344 -4.933594 10.570312 -5.125 L 11.101562 -7.339844 C 11.148438 -7.53125 11.015625 -7.714844 10.824219 -7.757812 C 10.632812 -7.804688 10.457031 -7.695312 10.410156 -7.507812 C 10.308594 -7.078125 9.894531 -6.824219 9.46875 -6.925781 L 7.203125 -7.46875 L 8.949219 -14.757812 Z M 16.351562 -11.699219 C 16.132812 -12.257812 15.832031 -12.78125 15.429688 -13.207031 L 16.644531 -12.914062 Z M 6.1875 -15.417969 L 8.257812 -14.921875 C 8.257812 -14.921875 6.425781 -7.277344 6.425781 -7.277344 L 4.589844 0.394531 L 2.519531 -0.101562 Z M 13.265625 1.1875 L 12.976562 2.402344 L 11.761719 2.113281 C 12.3125 1.914062 12.820312 1.585938 13.265625 1.1875 Z M 13.265625 1.1875 "/></g></g></g><g fill="#000000" fill-opacity="1"><g transform="translate(215.595235, 107.819179)"><g><path d="M 16.714844 -10.285156 C 18.511719 -9.441406 19.28125 -7.289062 18.4375 -5.492188 C 18.351562 -5.316406 18.445312 -5.109375 18.621094 -5.027344 C 18.777344 -4.953125 18.996094 -5.011719 19.078125 -5.191406 L 20.761719 -8.757812 C 20.84375 -8.933594 20.761719 -9.164062 20.609375 -9.234375 L 8.136719 -15.121094 C 7.957031 -15.203125 7.753906 -15.113281 7.667969 -14.933594 L 5.988281 -11.367188 C 5.902344 -11.191406 5.972656 -10.996094 6.148438 -10.910156 C 6.328125 -10.828125 6.523438 -10.898438 6.605469 -11.074219 C 7.453125 -12.871094 9.605469 -13.640625 11.398438 -12.796875 L 12.464844 -12.292969 L 6.078125 1.242188 C 5.898438 1.617188 5.410156 1.792969 5.011719 1.605469 C 4.855469 1.53125 4.636719 1.59375 4.554688 1.769531 C 4.472656 1.945312 4.5625 2.152344 4.71875 2.226562 L 9.371094 4.421875 C 9.546875 4.503906 9.742188 4.433594 9.828125 4.257812 C 9.910156 4.082031 9.839844 3.882812 9.664062 3.800781 C 9.265625 3.613281 9.109375 3.132812 9.289062 2.757812 L 15.675781 -10.777344 Z M 19.441406 -7.621094 C 19.359375 -8.199219 19.171875 -8.777344 18.84375 -9.285156 L 19.972656 -8.75 Z M 7.609375 -13.203125 L 8.144531 -14.332031 L 9.273438 -13.796875 C 8.695312 -13.71875 8.105469 -13.507812 7.609375 -13.203125 Z M 8.3125 3.164062 L 6.363281 2.242188 L 13.082031 -12 L 15.03125 -11.082031 Z M 8.3125 3.164062 "/></g></g></g><g fill="#000000" fill-opacity="1"><g transform="translate(231.413933, 115.809331)"><g/></g></g><g fill="#000000" fill-opacity="1"><g transform="translate(240.400188, 121.859849)"><g><path d="M 8.566406 7.867188 C 8.429688 7.726562 8.222656 7.722656 8.082031 7.859375 C 7.941406 7.996094 7.917969 8.222656 8.054688 8.363281 L 11.800781 12.234375 C 11.921875 12.359375 12.164062 12.363281 12.304688 12.226562 C 12.445312 12.089844 12.433594 11.863281 12.3125 11.742188 C 11.972656 11.390625 11.84375 10.660156 12.078125 10.160156 L 18.601562 -5.042969 L 18.621094 -5.097656 C 18.621094 -5.132812 18.636719 -5.148438 18.640625 -5.183594 C 18.640625 -5.183594 18.640625 -5.183594 18.640625 -5.21875 C 18.65625 -5.234375 18.640625 -5.25 18.640625 -5.285156 C 18.625 -5.304688 18.625 -5.304688 18.625 -5.304688 C 18.640625 -5.320312 18.625 -5.339844 18.605469 -5.355469 C 18.605469 -5.355469 18.625 -5.375 18.609375 -5.390625 C 18.609375 -5.390625 18.609375 -5.390625 18.589844 -5.410156 C 18.574219 -5.425781 18.574219 -5.460938 18.558594 -5.476562 C 18.503906 -5.496094 18.488281 -5.515625 18.472656 -5.53125 C 18.472656 -5.53125 18.453125 -5.550781 18.453125 -5.550781 C 18.417969 -5.550781 18.402344 -5.566406 18.367188 -5.566406 C 18.332031 -5.570312 18.316406 -5.585938 18.28125 -5.585938 C 18.28125 -5.585938 18.265625 -5.570312 18.265625 -5.570312 C 18.230469 -5.570312 18.195312 -5.570312 18.175781 -5.554688 L 16.9375 -5.070312 L 14.429688 -4.109375 L 2.710938 0.476562 C 2.1875 0.675781 1.480469 0.542969 1.140625 0.191406 C 1.003906 0.0507812 0.796875 0.046875 0.65625 0.183594 C 0.515625 0.320312 0.492188 0.546875 0.628906 0.6875 L 2.214844 2.324219 C 2.351562 2.464844 2.574219 2.449219 2.714844 2.3125 C 2.855469 2.179688 2.859375 1.96875 2.722656 1.828125 C 2.640625 1.742188 2.554688 1.617188 2.574219 1.464844 C 2.609375 1.324219 2.734375 1.207031 2.960938 1.125 L 3.726562 0.824219 C 6.445312 -0.101562 9.414062 0.503906 11.53125 2.375 L 9.28125 7.65625 C 9.1875 7.878906 9.066406 7.996094 8.925781 8.03125 C 8.769531 8.042969 8.652344 7.957031 8.566406 7.867188 Z M 9.519531 8.855469 L 9.753906 8.320312 L 9.914062 7.925781 L 14.835938 -3.511719 L 17.640625 -4.59375 L 11.15625 10.542969 Z M 6.621094 -0.304688 L 13.929688 -3.148438 L 11.839844 1.703125 C 10.351562 0.449219 8.507812 -0.222656 6.621094 -0.304688 Z M 6.621094 -0.304688 "/></g></g></g><g fill="#000000" fill-opacity="1"><g transform="translate(253.851605, 136.192562)"><g><path d="M 1.066406 0.445312 C 0.964844 0.277344 0.765625 0.226562 0.597656 0.328125 C 0.429688 0.429688 0.378906 0.628906 0.480469 0.796875 L 3.117188 5.183594 C 3.21875 5.351562 3.433594 5.425781 3.601562 5.324219 C 3.769531 5.222656 3.804688 5 3.703125 4.832031 C 3.492188 4.476562 3.617188 3.972656 3.972656 3.757812 L 6.742188 2.089844 L 8.8125 5.535156 C 10.582031 8.472656 14.414062 9.425781 17.351562 7.660156 C 20.289062 5.894531 21.222656 2.074219 19.457031 -0.863281 L 17.210938 -4.601562 C 17.210938 -4.601562 17.230469 -4.613281 17.230469 -4.613281 L 15.175781 -8.035156 C 15.074219 -8.203125 14.851562 -8.242188 14.683594 -8.140625 C 14.515625 -8.039062 14.464844 -7.839844 14.566406 -7.671875 C 14.792969 -7.292969 14.65625 -6.808594 14.296875 -6.59375 L 2.144531 0.710938 C 1.785156 0.925781 1.292969 0.824219 1.066406 0.445312 Z M 16.800781 -3.953125 L 18.871094 -0.511719 C 19.613281 0.726562 18.082031 3.078125 15.523438 4.617188 C 12.960938 6.15625 10.167969 6.40625 9.421875 5.167969 L 7.351562 1.726562 Z M 16.984375 7.050781 C 14.949219 8.277344 12.425781 8.023438 10.667969 6.621094 C 12.066406 6.808594 14.007812 6.328125 15.875 5.203125 C 17.742188 4.082031 19.058594 2.605469 19.546875 1.28125 C 19.980469 3.476562 19.023438 5.828125 16.984375 7.050781 Z M 2.933594 3.550781 L 1.835938 1.726562 L 15.335938 -6.390625 L 16.433594 -4.5625 Z M 2.933594 3.550781 "/></g></g></g><g fill="#000000" fill-opacity="1"><g transform="translate(262.897762, 151.611454)"><g><path d="M 0.945312 0.664062 C 0.882812 0.476562 0.699219 0.386719 0.511719 0.449219 C 0.328125 0.511719 0.234375 0.695312 0.296875 0.882812 L 1.925781 5.734375 C 1.988281 5.921875 2.183594 6.035156 2.367188 5.972656 C 2.554688 5.914062 2.640625 5.703125 2.578125 5.515625 C 2.445312 5.121094 2.675781 4.65625 3.070312 4.523438 L 6.136719 3.496094 L 7.414062 7.304688 C 8.507812 10.554688 12.042969 12.3125 15.292969 11.21875 C 18.542969 10.128906 20.277344 6.601562 19.1875 3.347656 L 17.796875 -0.785156 C 17.796875 -0.785156 17.820312 -0.792969 17.820312 -0.792969 L 16.550781 -4.578125 C 16.488281 -4.761719 16.277344 -4.847656 16.09375 -4.785156 C 15.90625 -4.722656 15.816406 -4.535156 15.878906 -4.351562 C 16.015625 -3.933594 15.777344 -3.492188 15.382812 -3.359375 L 1.9375 1.15625 C 1.542969 1.289062 1.085938 1.082031 0.945312 0.664062 Z M 17.257812 -0.242188 L 18.535156 3.566406 C 18.996094 4.9375 16.996094 6.902344 14.164062 7.851562 C 11.328125 8.804688 8.546875 8.445312 8.085938 7.078125 L 6.808594 3.269531 Z M 15.066406 10.546875 C 12.816406 11.304688 10.402344 10.511719 8.988281 8.761719 C 10.316406 9.25 12.3125 9.199219 14.378906 8.503906 C 16.445312 7.808594 18.046875 6.652344 18.8125 5.464844 C 18.761719 7.703125 17.320312 9.789062 15.066406 10.546875 Z M 2.101562 4.101562 L 1.421875 2.082031 L 16.351562 -2.933594 L 17.03125 -0.914062 Z M 2.101562 4.101562 "/></g></g></g><g fill="#000000" fill-opacity="1"><g transform="translate(268.19632, 168.964594)"><g/></g></g><g fill="#000000" fill-opacity="1"><g transform="translate(92.585627, 215.123518)"><g><path d="M 11.699219 4.160156 C 11.992188 5.378906 11.238281 6.613281 10.019531 6.90625 C 9.898438 6.9375 9.832031 7.0625 9.863281 7.183594 C 9.886719 7.289062 10.003906 7.375 10.125 7.34375 L 12.550781 6.757812 C 12.671875 6.730469 12.75 6.597656 12.722656 6.492188 L 10.679688 -1.988281 C 10.648438 -2.105469 10.523438 -2.171875 10.402344 -2.144531 L 7.976562 -1.558594 C 7.855469 -1.527344 7.789062 -1.417969 7.816406 -1.296875 C 7.84375 -1.175781 7.957031 -1.105469 8.078125 -1.136719 C 9.296875 -1.429688 10.53125 -0.675781 10.828125 0.542969 L 11 1.265625 L 1.796875 3.488281 C 1.542969 3.550781 1.261719 3.378906 1.195312 3.105469 C 1.171875 3 1.054688 2.917969 0.933594 2.945312 C 0.8125 2.976562 0.75 3.101562 0.773438 3.207031 L 1.539062 6.371094 C 1.566406 6.492188 1.679688 6.5625 1.800781 6.53125 C 1.917969 6.503906 1.988281 6.390625 1.960938 6.269531 C 1.894531 6 2.070312 5.734375 2.324219 5.671875 L 11.527344 3.449219 Z M 11.464844 6.558594 C 11.71875 6.289062 11.929688 5.96875 12.046875 5.605469 L 12.234375 6.375 Z M 9.523438 -1.484375 L 10.292969 -1.671875 L 10.476562 -0.902344 C 10.210938 -1.15625 9.871094 -1.363281 9.523438 -1.484375 Z M 1.738281 5.351562 L 1.417969 4.027344 L 11.101562 1.6875 L 11.421875 3.015625 Z M 1.738281 5.351562 "/></g></g></g><g fill="#000000" fill-opacity="1"><g transform="translate(95.965049, 228.186894)"><g><path d="M 13.441406 5.601562 C 13.488281 5.71875 13.609375 5.769531 13.722656 5.722656 C 13.839844 5.675781 13.90625 5.550781 13.859375 5.433594 L 12.648438 2.414062 C 12.601562 2.300781 12.46875 2.253906 12.351562 2.300781 C 12.238281 2.34375 12.1875 2.464844 12.230469 2.582031 C 12.335938 2.839844 12.199219 3.128906 11.957031 3.226562 L 8 4.808594 L 6.472656 0.996094 L 10.429688 -0.585938 C 10.675781 -0.683594 10.976562 -0.554688 11.074219 -0.308594 C 11.121094 -0.195312 11.246094 -0.128906 11.363281 -0.175781 C 11.476562 -0.222656 11.539062 -0.363281 11.492188 -0.476562 L 10.289062 -3.484375 C 10.242188 -3.597656 10.105469 -3.644531 9.992188 -3.597656 C 9.878906 -3.550781 9.824219 -3.433594 9.871094 -3.316406 C 9.976562 -3.058594 9.839844 -2.769531 9.59375 -2.671875 L 1.265625 0.660156 C 1.023438 0.757812 0.726562 0.644531 0.621094 0.386719 C 0.574219 0.269531 0.453125 0.21875 0.339844 0.265625 C 0.222656 0.3125 0.160156 0.4375 0.203125 0.550781 L 1.40625 3.558594 C 1.453125 3.675781 1.59375 3.734375 1.710938 3.6875 C 1.824219 3.640625 1.871094 3.507812 1.824219 3.390625 C 1.726562 3.148438 1.855469 2.84375 2.101562 2.746094 L 6.058594 1.164062 L 7.582031 4.976562 L 3.625 6.558594 C 3.382812 6.65625 3.085938 6.542969 2.980469 6.285156 C 2.9375 6.167969 2.816406 6.117188 2.699219 6.164062 C 2.585938 6.207031 2.519531 6.335938 2.566406 6.449219 L 3.773438 9.472656 C 3.820312 9.585938 3.957031 9.632812 4.070312 9.585938 C 4.183594 9.539062 4.238281 9.417969 4.191406 9.304688 C 4.085938 9.046875 4.222656 8.757812 4.46875 8.660156 L 12.796875 5.328125 C 13.042969 5.226562 13.335938 5.34375 13.441406 5.601562 Z M 10.222656 -2.4375 L 10.722656 -1.1875 L 1.472656 2.515625 L 0.972656 1.261719 Z M 12.582031 3.460938 L 13.089844 4.726562 L 3.839844 8.425781 L 3.332031 7.160156 Z M 12.582031 3.460938 "/></g></g></g><g fill="#000000" fill-opacity="1"><g transform="translate(101.585091, 241.404348)"><g><path d="M 12.035156 0.0859375 C 12.65625 1.171875 12.277344 2.570312 11.191406 3.191406 C 11.082031 3.253906 11.046875 3.382812 11.109375 3.488281 C 11.171875 3.597656 11.296875 3.632812 11.40625 3.570312 L 13.570312 2.328125 C 13.679688 2.265625 13.726562 2.132812 13.664062 2.023438 L 9.703125 -4.882812 C 9.640625 -4.992188 9.5 -5.019531 9.394531 -4.957031 C 9.285156 -4.894531 9.25 -4.769531 9.3125 -4.660156 C 9.453125 -4.417969 9.359375 -4.113281 9.128906 -3.984375 L 1.347656 0.480469 C 1.117188 0.609375 0.808594 0.535156 0.667969 0.296875 C 0.609375 0.1875 0.480469 0.152344 0.375 0.214844 C 0.265625 0.277344 0.21875 0.410156 0.28125 0.519531 L 4.242188 7.429688 C 4.300781 7.535156 4.441406 7.5625 4.550781 7.5 L 6.714844 6.257812 C 6.820312 6.199219 6.855469 6.070312 6.796875 5.964844 C 6.734375 5.855469 6.605469 5.820312 6.5 5.882812 C 5.410156 6.507812 4.015625 6.128906 3.390625 5.039062 L 2.035156 2.675781 L 6.171875 0.300781 L 6.90625 1.578125 C 7.042969 1.820312 6.964844 2.117188 6.722656 2.253906 C 6.613281 2.316406 6.566406 2.449219 6.628906 2.558594 C 6.691406 2.664062 6.839844 2.707031 6.945312 2.644531 L 8.195312 1.925781 C 8.304688 1.867188 8.332031 1.726562 8.269531 1.617188 C 8.207031 1.511719 8.078125 1.476562 7.972656 1.539062 C 7.730469 1.675781 7.433594 1.597656 7.296875 1.355469 L 6.5625 0.078125 L 10.675781 -2.28125 Z M 12.480469 2.453125 C 12.640625 2.109375 12.753906 1.742188 12.773438 1.375 L 13.167969 2.058594 Z M 9.78125 -3.839844 L 10.453125 -2.671875 C 10.453125 -2.671875 6.136719 -0.199219 6.136719 -0.199219 L 1.808594 2.285156 L 1.140625 1.113281 Z M 5.207031 6.621094 L 4.523438 7.015625 L 4.128906 6.332031 C 4.457031 6.5 4.832031 6.589844 5.207031 6.621094 Z M 5.207031 6.621094 "/></g></g></g><g fill="#000000" fill-opacity="1"><g transform="translate(108.08817, 252.167033)"><g/></g></g><g fill="#000000" fill-opacity="1"><g transform="translate(113.470272, 259.334461)"><g><path d="M 8.367188 0.00390625 L 7.132812 -2.410156 C 6.78125 -3.140625 6.964844 -3.996094 7.558594 -4.539062 C 8.316406 -5.230469 9.476562 -5.175781 10.164062 -4.417969 L 10.5 -4.050781 C 11.523438 -2.929688 11.441406 -1.179688 10.316406 -0.15625 C 10.226562 -0.0742188 10.21875 0.0820312 10.292969 0.160156 C 10.375 0.253906 10.527344 0.257812 10.621094 0.175781 L 12.75 -1.765625 C 12.84375 -1.847656 12.839844 -1.992188 12.753906 -2.082031 C 12.679688 -2.164062 12.539062 -2.179688 12.449219 -2.097656 L 12.253906 -1.917969 C 12.117188 -1.792969 11.886719 -1.792969 11.75 -1.941406 C 11.699219 -2 11.667969 -2.101562 11.660156 -2.175781 C 11.664062 -2.199219 11.664062 -2.199219 11.664062 -2.222656 C 11.65625 -2.988281 11.382812 -3.746094 10.832031 -4.355469 L 10.496094 -4.722656 C 9.296875 -6.039062 7.273438 -6.121094 5.964844 -4.933594 C 4.914062 -3.972656 4.609375 -2.417969 5.242188 -1.148438 L 6.476562 1.265625 C 6.828125 1.996094 6.644531 2.855469 6.050781 3.398438 C 5.292969 4.085938 4.132812 4.03125 3.445312 3.273438 L 2.664062 2.417969 C 1.628906 1.28125 1.710938 -0.46875 2.832031 -1.492188 C 2.925781 -1.574219 2.941406 -1.714844 2.859375 -1.808594 C 2.777344 -1.898438 2.632812 -1.894531 2.542969 -1.8125 L 0.410156 0.128906 C 0.320312 0.210938 0.3125 0.34375 0.398438 0.433594 C 0.480469 0.527344 0.613281 0.53125 0.703125 0.449219 L 0.898438 0.273438 C 1.035156 0.148438 1.265625 0.148438 1.402344 0.296875 C 1.464844 0.363281 1.480469 0.453125 1.5 0.542969 C 1.488281 0.550781 1.5 0.5625 1.488281 0.574219 C 1.496094 1.34375 1.765625 2.101562 2.332031 2.71875 L 3.113281 3.578125 C 4.300781 4.882812 6.339844 4.976562 7.644531 3.789062 C 8.699219 2.828125 9 1.273438 8.367188 0.00390625 Z M 11.726562 -1.441406 L 11.519531 -1.25 C 11.546875 -1.339844 11.570312 -1.425781 11.585938 -1.5 C 11.628906 -1.476562 11.683594 -1.464844 11.726562 -1.441406 Z M 1.425781 -0.207031 L 1.628906 -0.394531 C 1.605469 -0.308594 1.578125 -0.222656 1.574219 -0.136719 C 1.523438 -0.171875 1.46875 -0.183594 1.425781 -0.207031 Z M 5.609375 4.175781 C 5.875 4.078125 6.125 3.9375 6.351562 3.730469 C 7.097656 3.050781 7.300781 1.984375 6.882812 1.066406 L 5.632812 -1.339844 C 5.09375 -2.4375 5.351562 -3.789062 6.257812 -4.613281 C 6.75 -5.058594 7.375 -5.292969 8.003906 -5.320312 C 7.734375 -5.222656 7.488281 -5.082031 7.257812 -4.871094 C 6.511719 -4.195312 6.308594 -3.128906 6.726562 -2.210938 L 7.976562 0.195312 C 8.515625 1.296875 8.257812 2.644531 7.351562 3.46875 C 6.859375 3.917969 6.234375 4.152344 5.609375 4.175781 Z M 5.609375 4.175781 "/></g></g></g><g fill="#000000" fill-opacity="1"><g transform="translate(121.58685, 267.976962)"><g><path d="M 11.894531 -3.5625 C 12.851562 -2.753906 12.972656 -1.3125 12.164062 -0.355469 C 12.085938 -0.257812 12.105469 -0.117188 12.203125 -0.0390625 C 12.285156 0.03125 12.425781 0.03125 12.507812 -0.0625 L 14.117188 -1.96875 C 14.195312 -2.066406 14.183594 -2.21875 14.101562 -2.289062 L 7.4375 -7.917969 C 7.34375 -7.996094 7.199219 -7.972656 7.121094 -7.878906 L 5.511719 -5.972656 C 5.429688 -5.878906 5.441406 -5.746094 5.539062 -5.667969 C 5.632812 -5.585938 5.761719 -5.597656 5.84375 -5.691406 C 6.652344 -6.652344 8.09375 -6.773438 9.050781 -5.964844 L 9.621094 -5.484375 L 3.511719 1.75 C 3.34375 1.949219 3.015625 1.976562 2.800781 1.796875 C 2.71875 1.726562 2.574219 1.730469 2.496094 1.824219 C 2.414062 1.917969 2.4375 2.058594 2.519531 2.128906 L 5.007812 4.230469 C 5.101562 4.308594 5.234375 4.296875 5.3125 4.203125 C 5.394531 4.109375 5.382812 3.976562 5.289062 3.898438 C 5.074219 3.71875 5.058594 3.398438 5.226562 3.199219 L 11.335938 -4.035156 Z M 13.125 -1.492188 C 13.171875 -1.855469 13.148438 -2.238281 13.03125 -2.605469 L 13.632812 -2.09375 Z M 6.800781 -6.828125 L 7.3125 -7.433594 L 7.917969 -6.921875 C 7.550781 -6.96875 7.15625 -6.9375 6.800781 -6.828125 Z M 4.566406 3.289062 L 3.523438 2.40625 L 9.953125 -5.203125 L 10.992188 -4.324219 Z M 4.566406 3.289062 "/></g></g></g><g fill="#000000" fill-opacity="1"><g transform="translate(132.04294, 276.550059)"><g><path d="M 10.75 -6.226562 C 8.152344 -7.828125 4.753906 -7.007812 3.160156 -4.421875 C 1.558594 -1.824219 2.359375 1.578125 4.957031 3.179688 C 7.554688 4.78125 10.96875 3.96875 12.566406 1.371094 C 14.160156 -1.214844 13.347656 -4.625 10.75 -6.226562 Z M 10.523438 0.113281 C 9.050781 2.5 6.671875 3.707031 5.191406 2.796875 C 3.726562 1.894531 3.722656 -0.785156 5.191406 -3.171875 C 6.65625 -5.546875 9.050781 -6.746094 10.515625 -5.84375 C 11.992188 -4.933594 11.984375 -2.261719 10.523438 0.113281 Z M 3.53125 -4.195312 C 4.652344 -6.015625 6.765625 -6.878906 8.765625 -6.519531 C 7.371094 -6.234375 5.859375 -5.109375 4.808594 -3.40625 C 3.753906 -1.691406 3.429688 0.164062 3.800781 1.539062 C 2.582031 -0.0859375 2.402344 -2.359375 3.53125 -4.195312 Z M 6.941406 3.472656 C 8.335938 3.1875 9.847656 2.0625 10.898438 0.359375 C 11.953125 -1.355469 12.277344 -3.210938 11.90625 -4.585938 C 13.125 -2.960938 13.304688 -0.683594 12.175781 1.148438 C 11.054688 2.96875 8.941406 3.832031 6.941406 3.472656 Z M 6.941406 3.472656 "/></g></g></g><g fill="#000000" fill-opacity="1"><g transform="translate(145.350524, 284.384286)"><g><path d="M 6.4375 -0.535156 L 7 2.820312 C 7.019531 2.898438 7.0625 2.949219 7.136719 2.980469 L 9.109375 3.804688 C 9.109375 3.804688 9.101562 3.816406 9.101562 3.816406 L 9.773438 4.097656 C 9.886719 4.144531 10.015625 4.082031 10.0625 3.96875 C 10.113281 3.851562 10.0625 3.730469 9.949219 3.683594 C 9.660156 3.5625 9.363281 3.152344 9.273438 2.765625 L 8.761719 -0.234375 C 10.074219 -0.476562 11.195312 -1.355469 11.714844 -2.597656 C 12.539062 -4.570312 11.601562 -6.875 9.636719 -7.714844 C 9.621094 -7.71875 9.613281 -7.738281 9.597656 -7.746094 C 9.597656 -7.746094 7.054688 -8.808594 7.054688 -8.808594 L 4.722656 -9.78125 C 4.609375 -9.828125 4.480469 -9.765625 4.433594 -9.652344 C 4.386719 -9.535156 4.433594 -9.414062 4.550781 -9.367188 C 4.808594 -9.261719 4.917969 -8.960938 4.816406 -8.71875 L 1.359375 -0.441406 C 1.257812 -0.195312 0.96875 -0.0664062 0.710938 -0.171875 C 0.597656 -0.222656 0.472656 -0.171875 0.425781 -0.0585938 C 0.378906 0.0585938 0.429688 0.179688 0.542969 0.226562 L 3.53125 1.476562 C 3.644531 1.523438 3.78125 1.480469 3.828125 1.363281 C 3.878906 1.25 3.8125 1.121094 3.699219 1.074219 C 3.457031 0.972656 3.332031 0.667969 3.433594 0.425781 L 4.21875 -1.460938 Z M 6.914062 -0.351562 C 7.363281 -0.21875 7.84375 -0.167969 8.320312 -0.183594 L 8.828125 2.78125 C 8.824219 2.792969 8.839844 2.800781 8.839844 2.800781 L 8.902344 3.246094 L 7.417969 2.625 Z M 11.300781 -2.769531 C 10.816406 -1.613281 9.734375 -0.789062 8.484375 -0.65625 C 8.292969 -0.636719 8.097656 -0.613281 7.917969 -0.625 C 7.921875 -0.636719 7.945312 -0.644531 7.964844 -0.652344 C 7.984375 -0.664062 8.011719 -0.683594 8.03125 -0.695312 C 8.050781 -0.703125 8.078125 -0.722656 8.097656 -0.734375 C 8.125 -0.753906 8.144531 -0.761719 8.171875 -0.785156 C 8.195312 -0.808594 8.238281 -0.824219 8.269531 -0.863281 C 8.289062 -0.871094 8.308594 -0.878906 8.335938 -0.902344 C 8.363281 -0.925781 8.367188 -0.9375 8.394531 -0.960938 C 8.421875 -0.984375 8.441406 -0.992188 8.46875 -1.015625 C 8.488281 -1.023438 8.492188 -1.039062 8.519531 -1.058594 C 9.121094 -1.582031 9.660156 -2.382812 10.039062 -3.296875 C 10.574219 -4.570312 10.6875 -5.8125 10.429688 -6.675781 C 11.488281 -5.714844 11.878906 -4.15625 11.300781 -2.769531 Z M 9.640625 -3.464844 C 9.28125 -2.605469 8.777344 -1.875 8.226562 -1.402344 C 8.226562 -1.402344 8.226562 -1.402344 8.21875 -1.386719 C 7.6875 -0.921875 7.160156 -0.738281 6.765625 -0.886719 C 6.765625 -0.886719 6.753906 -0.890625 6.738281 -0.898438 L 6.710938 -0.910156 L 4.394531 -1.875 L 7.082031 -8.308594 L 9.425781 -7.332031 C 9.441406 -7.324219 9.453125 -7.320312 9.453125 -7.320312 C 9.453125 -7.320312 9.453125 -7.320312 9.46875 -7.3125 C 10.265625 -6.929688 10.351562 -5.164062 9.640625 -3.464844 Z M 5.421875 -9.003906 L 6.679688 -8.476562 L 2.839844 0.714844 L 1.582031 0.191406 Z M 5.421875 -9.003906 "/></g></g></g><g fill="#000000" fill-opacity="1"><g transform="translate(159.150341, 289.851369)"><g><path d="M 7.234375 1.335938 C 7.113281 1.304688 7.003906 1.375 6.972656 1.492188 C 6.941406 1.613281 7.007812 1.742188 7.128906 1.773438 L 10.4375 2.585938 C 10.542969 2.613281 10.675781 2.535156 10.703125 2.414062 C 10.734375 2.292969 10.652344 2.175781 10.546875 2.152344 C 10.246094 2.078125 9.929688 1.726562 9.886719 1.382812 L 8.269531 -8.957031 L 8.261719 -8.992188 C 8.25 -9.011719 8.253906 -9.027344 8.242188 -9.042969 C 8.242188 -9.042969 8.242188 -9.042969 8.234375 -9.0625 C 8.234375 -9.078125 8.222656 -9.082031 8.210938 -9.101562 C 8.195312 -9.105469 8.195312 -9.105469 8.195312 -9.105469 C 8.199219 -9.121094 8.183594 -9.125 8.167969 -9.125 C 8.167969 -9.125 8.171875 -9.140625 8.15625 -9.144531 C 8.15625 -9.144531 8.15625 -9.144531 8.140625 -9.148438 C 8.128906 -9.152344 8.117188 -9.171875 8.101562 -9.175781 C 8.066406 -9.167969 8.050781 -9.171875 8.035156 -9.175781 C 8.035156 -9.175781 8.023438 -9.179688 8.023438 -9.179688 C 8.003906 -9.167969 7.988281 -9.171875 7.96875 -9.160156 C 7.949219 -9.148438 7.933594 -9.152344 7.917969 -9.140625 C 7.917969 -9.140625 7.914062 -9.125 7.914062 -9.125 C 7.894531 -9.113281 7.875 -9.101562 7.871094 -9.089844 L 7.371094 -8.414062 L 6.347656 -7.054688 L 1.613281 -0.65625 C 1.402344 -0.375 0.976562 -0.207031 0.675781 -0.28125 C 0.554688 -0.308594 0.441406 -0.242188 0.414062 -0.121094 C 0.382812 0 0.449219 0.125 0.566406 0.15625 L 1.96875 0.5 C 2.085938 0.53125 2.203125 0.445312 2.234375 0.328125 C 2.261719 0.207031 2.195312 0.09375 2.074219 0.0625 C 2 0.046875 1.914062 0.0078125 1.871094 -0.0820312 C 1.84375 -0.167969 1.871094 -0.273438 1.964844 -0.394531 L 2.273438 -0.8125 C 3.417969 -2.222656 5.214844 -2.898438 6.976562 -2.605469 L 7.546875 0.980469 C 7.574219 1.132812 7.546875 1.238281 7.484375 1.300781 C 7.40625 1.359375 7.308594 1.355469 7.234375 1.335938 Z M 8.078125 1.542969 L 8.023438 1.179688 L 7.976562 0.910156 L 6.765625 -6.871094 L 7.90625 -8.394531 L 9.523438 1.898438 Z M 3.445312 -2.390625 L 6.402344 -6.371094 L 6.914062 -3.066406 C 5.699219 -3.242188 4.484375 -2.980469 3.445312 -2.390625 Z M 3.445312 -2.390625 "/></g></g></g><g fill="#000000" fill-opacity="1"><g transform="translate(173.754404, 293.130125)"><g><path d="M 10.773438 -9.441406 L 10.796875 -9.65625 C 10.808594 -9.777344 10.722656 -9.878906 10.597656 -9.890625 C 10.476562 -9.902344 10.375 -9.820312 10.363281 -9.695312 L 10.34375 -9.480469 C 10.324219 -9.28125 10.140625 -9.125 9.9375 -9.144531 C 9.863281 -9.152344 9.785156 -9.175781 9.742188 -9.222656 C 9.726562 -9.226562 9.726562 -9.226562 9.714844 -9.242188 C 8.886719 -9.863281 7.910156 -10.25 6.90625 -10.34375 C 6.890625 -10.347656 6.890625 -10.347656 6.875 -10.347656 C 6.8125 -10.351562 6.769531 -10.355469 6.707031 -10.363281 C 5.359375 -10.441406 3.96875 -10.042969 2.839844 -9.105469 C 0.496094 -7.160156 0.167969 -3.65625 2.113281 -1.3125 C 3.066406 -0.167969 4.417969 0.519531 5.851562 0.652344 C 6.53125 0.714844 7.222656 0.65625 7.910156 0.457031 C 8.628906 0.242188 9.300781 -0.101562 9.890625 -0.589844 C 9.90625 -0.605469 9.910156 -0.617188 9.925781 -0.632812 C 9.925781 -0.632812 9.925781 -0.648438 9.941406 -0.648438 C 9.941406 -0.648438 9.945312 -0.664062 9.945312 -0.664062 C 9.945312 -0.679688 9.960938 -0.675781 9.960938 -0.691406 C 9.960938 -0.691406 9.960938 -0.691406 9.964844 -0.707031 C 9.964844 -0.722656 9.964844 -0.738281 9.964844 -0.738281 L 10.316406 -4.488281 C 10.324219 -4.59375 10.242188 -4.710938 10.117188 -4.722656 L 7.605469 -4.957031 C 7.480469 -4.96875 7.378906 -4.871094 7.367188 -4.761719 C 7.355469 -4.636719 7.4375 -4.519531 7.5625 -4.511719 C 7.839844 -4.484375 8.035156 -4.246094 8.011719 -3.96875 L 7.632812 0.0703125 C 7.058594 0.222656 6.464844 0.257812 5.894531 0.207031 C 4.167969 0.046875 2.988281 -2.351562 3.246094 -5.128906 C 3.5 -7.859375 5.035156 -9.957031 6.710938 -9.910156 C 8.039062 -9.820312 9.351562 -9.199219 10.277344 -8.085938 C 10.277344 -8.085938 10.289062 -8.070312 10.304688 -8.066406 C 10.304688 -8.066406 10.304688 -8.050781 10.304688 -8.050781 C 10.320312 -8.050781 10.335938 -8.050781 10.347656 -8.03125 C 10.363281 -8.03125 10.394531 -8.011719 10.425781 -8.007812 C 10.546875 -8 10.652344 -8.097656 10.660156 -8.222656 C 10.660156 -8.222656 10.773438 -9.441406 10.773438 -9.441406 Z M 10.277344 -8.753906 C 10.261719 -8.757812 10.261719 -8.757812 10.261719 -8.757812 C 10.261719 -8.757812 10.261719 -8.757812 10.277344 -8.753906 Z M 9.542969 -0.886719 C 9.511719 -0.859375 9.476562 -0.832031 9.441406 -0.800781 C 9.425781 -0.789062 9.410156 -0.773438 9.390625 -0.761719 C 9.328125 -0.71875 9.257812 -0.664062 9.191406 -0.625 C 9.175781 -0.625 9.175781 -0.609375 9.160156 -0.609375 C 9.109375 -0.570312 9.042969 -0.527344 8.996094 -0.5 C 8.960938 -0.488281 8.945312 -0.476562 8.929688 -0.460938 C 8.878906 -0.433594 8.832031 -0.40625 8.78125 -0.382812 C 8.765625 -0.367188 8.730469 -0.355469 8.714844 -0.339844 C 8.667969 -0.316406 8.601562 -0.289062 8.550781 -0.261719 C 8.535156 -0.25 8.519531 -0.25 8.503906 -0.234375 C 8.421875 -0.195312 8.355469 -0.171875 8.277344 -0.132812 C 8.261719 -0.132812 8.261719 -0.132812 8.242188 -0.121094 C 8.195312 -0.109375 8.148438 -0.0820312 8.097656 -0.0703125 L 8.457031 -3.929688 L 8.503906 -4.421875 L 9.859375 -4.296875 Z M 2.800781 -5.1875 C 2.613281 -3.179688 3.144531 -1.355469 4.089844 -0.304688 C 3.464844 -0.613281 2.914062 -1.050781 2.453125 -1.609375 C 0.660156 -3.75 0.960938 -6.976562 3.117188 -8.75 C 3.675781 -9.230469 4.3125 -9.542969 4.964844 -9.730469 C 3.84375 -8.855469 2.984375 -7.175781 2.800781 -5.1875 Z M 2.800781 -5.1875 "/></g></g></g><g fill="#000000" fill-opacity="1"><g transform="translate(187.493081, 294.128342)"><g><path d="M 5.59375 -10.652344 C 6.847656 -10.710938 7.914062 -9.730469 7.972656 -8.480469 C 7.976562 -8.355469 8.074219 -8.265625 8.195312 -8.269531 C 8.320312 -8.277344 8.410156 -8.375 8.402344 -8.496094 L 8.292969 -10.988281 C 8.289062 -11.113281 8.191406 -11.21875 8.066406 -11.210938 L 0.109375 -10.863281 C -0.0117188 -10.855469 -0.101562 -10.742188 -0.0976562 -10.621094 C -0.0898438 -10.496094 0.0078125 -10.40625 0.128906 -10.414062 C 0.410156 -10.425781 0.636719 -10.203125 0.648438 -9.941406 L 1.042969 -0.976562 C 1.054688 -0.714844 0.847656 -0.472656 0.570312 -0.460938 C 0.445312 -0.453125 0.355469 -0.355469 0.363281 -0.234375 C 0.367188 -0.109375 0.464844 -0.00390625 0.589844 -0.0117188 L 8.546875 -0.359375 C 8.667969 -0.367188 8.757812 -0.480469 8.753906 -0.601562 L 8.640625 -3.09375 C 8.636719 -3.21875 8.539062 -3.308594 8.414062 -3.300781 C 8.292969 -3.296875 8.203125 -3.199219 8.207031 -3.074219 C 8.265625 -1.820312 7.289062 -0.753906 6.035156 -0.699219 L 3.308594 -0.582031 L 3.097656 -5.347656 L 4.570312 -5.414062 C 4.847656 -5.425781 5.074219 -5.21875 5.085938 -4.9375 C 5.09375 -4.816406 5.191406 -4.710938 5.3125 -4.714844 C 5.4375 -4.722656 5.542969 -4.835938 5.535156 -4.960938 L 5.472656 -6.398438 C 5.464844 -6.523438 5.355469 -6.609375 5.230469 -6.605469 C 5.105469 -6.601562 5.019531 -6.503906 5.023438 -6.378906 C 5.035156 -6.101562 4.828125 -5.875 4.550781 -5.863281 L 3.078125 -5.796875 L 2.871094 -10.535156 Z M 7.90625 -9.964844 C 7.675781 -10.265625 7.398438 -10.53125 7.082031 -10.71875 L 7.871094 -10.753906 Z M 1.074219 -10.453125 L 2.421875 -10.515625 C 2.421875 -10.515625 2.640625 -5.542969 2.640625 -5.542969 L 2.859375 -0.558594 L 1.511719 -0.5 Z M 8.273438 -1.589844 L 8.308594 -0.800781 L 7.519531 -0.765625 C 7.820312 -0.980469 8.070312 -1.269531 8.273438 -1.589844 Z M 8.273438 -1.589844 "/></g></g></g><g fill="#000000" fill-opacity="1"><g transform="translate(200.038781, 293.285456)"><g/></g></g><g fill="#000000" fill-opacity="1"><g transform="translate(208.977995, 291.849555)"><g><path d="M 5.90625 -4.253906 L 6.851562 -12.164062 C 6.878906 -12.511719 7.179688 -12.871094 7.476562 -12.953125 C 7.582031 -12.984375 7.660156 -13.105469 7.625 -13.222656 C 7.59375 -13.34375 7.457031 -13.417969 7.351562 -13.386719 C 7.339844 -13.382812 6.652344 -13.1875 6.652344 -13.1875 L 5.96875 -12.992188 C 5.847656 -12.957031 5.773438 -12.820312 5.808594 -12.703125 C 5.84375 -12.582031 5.972656 -12.523438 6.089844 -12.558594 C 6.152344 -12.574219 6.261719 -12.589844 6.324219 -12.527344 C 6.390625 -12.46875 6.421875 -12.363281 6.394531 -12.226562 L 5.53125 -4.839844 L 0.875 -10.628906 C 0.789062 -10.75 0.761719 -10.855469 0.785156 -10.941406 C 0.808594 -11.03125 0.894531 -11.070312 0.96875 -11.089844 C 1.085938 -11.125 1.148438 -11.242188 1.117188 -11.359375 C 1.082031 -11.480469 0.960938 -11.558594 0.84375 -11.523438 L 0.160156 -11.328125 L -1.734375 -10.785156 L -2.417969 -10.589844 C -2.539062 -10.554688 -2.597656 -10.425781 -2.5625 -10.304688 C -2.527344 -10.1875 -2.414062 -10.125 -2.296875 -10.15625 C -1.996094 -10.242188 -1.566406 -10.09375 -1.34375 -9.816406 L 3.726562 -3.484375 L 4.109375 -2.144531 C 4.1875 -1.875 4.035156 -1.605469 3.769531 -1.53125 C 3.648438 -1.496094 3.585938 -1.382812 3.621094 -1.261719 C 3.652344 -1.144531 3.773438 -1.0625 3.890625 -1.097656 L 4.578125 -1.292969 C 4.578125 -1.292969 4.578125 -1.292969 4.59375 -1.296875 L 6.320312 -1.792969 L 7.003906 -1.988281 C 7.125 -2.023438 7.199219 -2.15625 7.164062 -2.277344 C 7.132812 -2.394531 7 -2.457031 6.882812 -2.421875 C 6.628906 -2.347656 6.339844 -2.507812 6.269531 -2.761719 L 5.886719 -4.101562 Z M 4.539062 -2.265625 C 4.539062 -2.265625 4.144531 -3.652344 4.144531 -3.652344 C 4.140625 -3.667969 4.136719 -3.683594 4.117188 -3.691406 C 4.117188 -3.691406 4.113281 -3.707031 4.109375 -3.722656 L -1.003906 -10.09375 L -1.28125 -10.449219 L 0.132812 -10.851562 L 5.453125 -4.203125 L 5.449219 -4.105469 C 5.433594 -4.101562 5.4375 -4.085938 5.441406 -4.070312 C 5.445312 -4.058594 5.449219 -4.042969 5.457031 -4.027344 L 5.988281 -2.164062 L 4.675781 -1.789062 Z M 4.539062 -2.265625 "/></g></g></g><g fill="#000000" fill-opacity="1"><g transform="translate(223.337483, 287.459071)"><g><path d="M 0.714844 -12.402344 C -2.050781 -11.113281 -3.238281 -7.824219 -1.953125 -5.074219 C -0.664062 -2.304688 2.617188 -1.097656 5.382812 -2.390625 C 8.148438 -3.679688 9.351562 -6.972656 8.058594 -9.738281 C 6.777344 -12.492188 3.484375 -13.691406 0.714844 -12.402344 Z M 5.882812 -8.726562 C 7.066406 -6.183594 6.765625 -3.527344 5.191406 -2.796875 C 3.632812 -2.070312 1.394531 -3.539062 0.210938 -6.082031 C -0.96875 -8.609375 -0.652344 -11.269531 0.90625 -11.996094 C 2.480469 -12.726562 4.707031 -11.253906 5.882812 -8.726562 Z M -1.558594 -5.257812 C -2.464844 -7.195312 -2.019531 -9.433594 -0.621094 -10.90625 C -1.148438 -9.585938 -1.042969 -7.703125 -0.199219 -5.890625 C 0.652344 -4.066406 2.023438 -2.773438 3.378906 -2.324219 C 1.351562 -2.203125 -0.652344 -3.304688 -1.558594 -5.257812 Z M 6.71875 -3.882812 C 7.25 -5.207031 7.140625 -7.089844 6.296875 -8.902344 C 5.445312 -10.726562 4.074219 -12.019531 2.722656 -12.464844 C 4.75 -12.589844 6.75 -11.488281 7.660156 -9.535156 C 8.5625 -7.597656 8.121094 -5.355469 6.71875 -3.882812 Z M 6.71875 -3.882812 "/></g></g></g><g fill="#000000" fill-opacity="1"><g transform="translate(237.165861, 280.649029)"><g><path d="M 2.050781 -14.394531 L 0.851562 -13.597656 C 0.746094 -13.527344 0.730469 -13.386719 0.796875 -13.285156 C 0.867188 -13.179688 0.996094 -13.152344 1.097656 -13.222656 C 1.332031 -13.378906 1.640625 -13.304688 1.785156 -13.085938 L 5.09375 -8.121094 C 6.191406 -6.46875 5.742188 -4.234375 4.09375 -3.136719 C 3.265625 -2.585938 1.671875 -3.496094 0.589844 -5.121094 L -2.714844 -10.085938 C -2.859375 -10.308594 -2.796875 -10.628906 -2.578125 -10.773438 C -2.472656 -10.84375 -2.433594 -10.980469 -2.503906 -11.085938 C -2.574219 -11.1875 -2.722656 -11.21875 -2.824219 -11.148438 L -3.417969 -10.753906 C -3.417969 -10.753906 -3.410156 -10.742188 -3.410156 -10.742188 L -4.90625 -9.746094 C -4.917969 -9.738281 -4.929688 -9.75 -4.929688 -9.75 L -5.519531 -9.355469 C -5.625 -9.285156 -5.640625 -9.144531 -5.574219 -9.039062 C -5.503906 -8.9375 -5.375 -8.910156 -5.273438 -8.980469 C -5.039062 -9.136719 -4.730469 -9.0625 -4.585938 -8.84375 L -1.277344 -3.878906 C -0.0429688 -2.019531 2.472656 -1.515625 4.34375 -2.761719 C 6.199219 -3.996094 6.703125 -6.511719 5.46875 -8.367188 L 2.160156 -13.335938 C 2.015625 -13.554688 2.078125 -13.875 2.296875 -14.023438 C 2.402344 -14.089844 2.441406 -14.226562 2.371094 -14.332031 C 2.304688 -14.433594 2.152344 -14.464844 2.050781 -14.394531 Z M -0.90625 -4.125 L -4.484375 -9.503906 L -3.351562 -10.261719 L 0.230469 -4.882812 C 1.019531 -3.695312 2.03125 -2.878906 2.929688 -2.621094 C 1.496094 -2.28125 -0.046875 -2.835938 -0.90625 -4.125 Z M -0.90625 -4.125 "/></g></g></g><g fill="#000000" fill-opacity="1"><g transform="translate(248.392568, 272.764786)"><g/></g></g><g fill="#000000" fill-opacity="1"><g transform="translate(255.237404, 266.871007)"><g><path d="M -1.136719 -14.746094 L -2.113281 -13.6875 C -2.199219 -13.597656 -2.183594 -13.457031 -2.089844 -13.371094 C -2 -13.289062 -1.867188 -13.292969 -1.785156 -13.382812 C -1.59375 -13.589844 -1.277344 -13.589844 -1.082031 -13.410156 C -1.082031 -13.410156 -1.070312 -13.402344 -1.070312 -13.402344 L 4.660156 -8.097656 L -5.421875 -9.953125 C -5.488281 -9.972656 -5.5625 -9.9375 -5.617188 -9.878906 C -5.617188 -9.878906 -7.066406 -8.308594 -7.066406 -8.308594 L -7.550781 -7.785156 C -7.636719 -7.695312 -7.632812 -7.5625 -7.539062 -7.480469 C -7.449219 -7.394531 -7.316406 -7.398438 -7.234375 -7.492188 C -7.128906 -7.605469 -6.96875 -7.6875 -6.773438 -7.738281 L 0.0546875 -1.425781 C 0.246094 -1.25 0.269531 -0.929688 0.0820312 -0.726562 C -0.00390625 -0.636719 0.00390625 -0.503906 0.09375 -0.421875 C 0.183594 -0.335938 0.328125 -0.332031 0.410156 -0.421875 L 1.390625 -1.480469 C 1.472656 -1.570312 1.457031 -1.710938 1.367188 -1.796875 C 1.273438 -1.882812 1.144531 -1.875 1.058594 -1.785156 C 0.871094 -1.582031 0.550781 -1.578125 0.359375 -1.757812 L -6.183594 -7.804688 C -6.160156 -7.808594 -6.136719 -7.808594 -6.105469 -7.796875 L 5.160156 -5.71875 C 5.238281 -5.710938 5.3125 -5.722656 5.367188 -5.78125 L 6.34375 -6.839844 C 6.429688 -6.929688 6.421875 -7.082031 6.332031 -7.167969 L -0.777344 -13.742188 C -0.984375 -13.929688 -0.996094 -14.238281 -0.804688 -14.441406 C -0.722656 -14.535156 -0.726562 -14.664062 -0.816406 -14.75 C -0.910156 -14.832031 -1.050781 -14.839844 -1.136719 -14.746094 Z M -6.023438 -8.230469 L -6.058594 -8.238281 L -6.476562 -8.308594 L -5.382812 -9.492188 L 5.277344 -7.53125 L 5.867188 -6.984375 L 5.121094 -6.175781 Z M -6.023438 -8.230469 "/></g></g></g><g fill="#000000" fill-opacity="1"><g transform="translate(264.670864, 256.231136)"><g><path d="M -5.082031 -10.90625 C -4.367188 -11.9375 -2.941406 -12.195312 -1.910156 -11.480469 C -1.808594 -11.40625 -1.679688 -11.429688 -1.609375 -11.535156 C -1.539062 -11.636719 -1.5625 -11.765625 -1.664062 -11.835938 L -3.714844 -13.257812 C -3.816406 -13.328125 -3.957031 -13.316406 -4.027344 -13.214844 L -8.570312 -6.671875 C -8.640625 -6.570312 -8.605469 -6.433594 -8.503906 -6.363281 C -8.402344 -6.289062 -8.273438 -6.3125 -8.203125 -6.414062 C -8.042969 -6.644531 -7.730469 -6.691406 -7.511719 -6.539062 L -0.144531 -1.421875 C 0.0703125 -1.269531 0.140625 -0.960938 -0.0195312 -0.730469 C -0.0898438 -0.628906 -0.0664062 -0.5 0.0351562 -0.429688 C 0.136719 -0.359375 0.277344 -0.371094 0.347656 -0.476562 L 4.894531 -7.015625 C 4.964844 -7.117188 4.925781 -7.253906 4.824219 -7.328125 L 2.777344 -8.75 C 2.675781 -8.820312 2.546875 -8.796875 2.476562 -8.695312 C 2.402344 -8.59375 2.425781 -8.464844 2.53125 -8.394531 C 3.558594 -7.675781 3.816406 -6.253906 3.101562 -5.222656 L 1.542969 -2.984375 L -2.375 -5.707031 L -1.535156 -6.914062 C -1.375 -7.144531 -1.074219 -7.199219 -0.84375 -7.039062 C -0.742188 -6.96875 -0.601562 -6.984375 -0.53125 -7.085938 C -0.460938 -7.1875 -0.488281 -7.339844 -0.589844 -7.410156 L -1.773438 -8.230469 C -1.875 -8.300781 -2.011719 -8.265625 -2.082031 -8.164062 C -2.152344 -8.0625 -2.128906 -7.933594 -2.027344 -7.863281 C -1.800781 -7.703125 -1.746094 -7.402344 -1.902344 -7.171875 L -2.742188 -5.960938 L -6.636719 -8.667969 Z M -3.132812 -12.328125 C -3.511719 -12.328125 -3.890625 -12.269531 -4.234375 -12.128906 L -3.78125 -12.777344 Z M -7.664062 -7.191406 L -6.894531 -8.300781 C -6.894531 -8.300781 -2.808594 -5.460938 -2.808594 -5.460938 L 1.289062 -2.613281 L 0.519531 -1.507812 Z M 3.75 -7.542969 L 4.398438 -7.09375 L 3.949219 -6.445312 C 3.960938 -6.8125 3.882812 -7.191406 3.75 -7.542969 Z M 3.75 -7.542969 "/></g></g></g><g fill="#000000" fill-opacity="1"><g transform="translate(271.714593, 245.690127)"><g><path d="M -6.460938 -10.152344 C -5.886719 -11.265625 -4.511719 -11.707031 -3.394531 -11.132812 C -3.285156 -11.074219 -3.160156 -11.113281 -3.101562 -11.222656 C -3.046875 -11.335938 -3.085938 -11.460938 -3.195312 -11.515625 L -5.414062 -12.660156 C -5.523438 -12.71875 -5.660156 -12.683594 -5.71875 -12.574219 L -9.371094 -5.496094 C -9.425781 -5.386719 -9.371094 -5.253906 -9.261719 -5.195312 C -9.152344 -5.140625 -9.027344 -5.179688 -8.96875 -5.289062 C -8.84375 -5.539062 -8.535156 -5.625 -8.300781 -5.503906 L -0.328125 -1.390625 C -0.09375 -1.269531 0.0117188 -0.96875 -0.117188 -0.722656 C -0.171875 -0.613281 -0.132812 -0.488281 -0.0234375 -0.429688 C 0.0859375 -0.375 0.226562 -0.40625 0.285156 -0.515625 L 3.933594 -7.59375 C 3.992188 -7.703125 3.9375 -7.835938 3.828125 -7.894531 L 1.609375 -9.039062 C 1.5 -9.09375 1.375 -9.054688 1.316406 -8.945312 C 1.261719 -8.832031 1.300781 -8.707031 1.410156 -8.652344 C 2.527344 -8.078125 2.96875 -6.699219 2.390625 -5.582031 L 1.140625 -3.160156 L -3.101562 -5.347656 L -2.425781 -6.65625 C -2.296875 -6.902344 -2.003906 -6.996094 -1.757812 -6.867188 C -1.648438 -6.8125 -1.507812 -6.84375 -1.449219 -6.957031 C -1.394531 -7.066406 -1.441406 -7.210938 -1.550781 -7.269531 L -2.832031 -7.929688 C -2.941406 -7.984375 -3.074219 -7.933594 -3.132812 -7.820312 C -3.1875 -7.710938 -3.148438 -7.585938 -3.039062 -7.53125 C -2.789062 -7.402344 -2.695312 -7.109375 -2.824219 -6.863281 L -3.5 -5.554688 L -7.714844 -7.726562 Z M -4.714844 -11.8125 C -5.089844 -11.761719 -5.460938 -11.65625 -5.78125 -11.472656 L -5.417969 -12.175781 Z M -8.535156 -6.128906 L -7.917969 -7.328125 C -7.917969 -7.328125 -3.5 -5.046875 -3.5 -5.046875 L 0.9375 -2.761719 L 0.316406 -1.5625 Z M 2.734375 -7.96875 L 3.4375 -7.609375 L 3.074219 -6.90625 C 3.035156 -7.273438 2.910156 -7.636719 2.734375 -7.96875 Z M 2.734375 -7.96875 "/></g></g></g><g fill="#000000" fill-opacity="1"><g transform="translate(277.389798, 234.290787)"><g><path d="M -8.496094 -8.535156 L -9.207031 -6.5 L -10.035156 -4.117188 C -10.078125 -4 -10.019531 -3.878906 -9.902344 -3.839844 C -9.785156 -3.800781 -9.667969 -3.855469 -9.625 -3.972656 C -9.535156 -4.238281 -9.242188 -4.363281 -8.996094 -4.277344 L -0.523438 -1.328125 C -0.273438 -1.242188 -0.125 -0.960938 -0.214844 -0.699219 C -0.257812 -0.582031 -0.199219 -0.464844 -0.0820312 -0.421875 C 0.0351562 -0.382812 0.167969 -0.433594 0.207031 -0.550781 L 1.746094 -4.96875 C 2.730469 -7.796875 1.230469 -10.890625 -1.59375 -11.875 C -4.417969 -12.859375 -7.515625 -11.359375 -8.496094 -8.535156 Z M 1.320312 -5.117188 L 0.683594 -3.289062 L -8.726562 -6.5625 L -8.089844 -8.394531 C -7.511719 -10.046875 -4.9375 -10.660156 -2.332031 -9.753906 C 0.257812 -8.851562 1.898438 -6.773438 1.320312 -5.117188 Z M -9.316406 -4.867188 L -8.871094 -6.140625 L 0.539062 -2.863281 L 0.09375 -1.589844 Z M 1.582031 -7.046875 C 1.011719 -8.328125 -0.375 -9.53125 -2.1875 -10.164062 C -4.019531 -10.800781 -5.851562 -10.714844 -7.097656 -10.066406 C -5.800781 -11.519531 -3.703125 -12.132812 -1.742188 -11.449219 C 0.207031 -10.773438 1.46875 -8.988281 1.582031 -7.046875 Z M 1.582031 -7.046875 "/></g></g></g><g fill="#000000" fill-opacity="1"><g transform="translate(281.803982, 220.44555)"><g/></g></g></svg>