<svg xmlns="http://www.w3.org/2000/svg" xmlns:xlink="http://www.w3.org/1999/xlink" width="200" zoomAndPan="magnify" viewBox="0 0 150 149.999998" height="200" preserveAspectRatio="xMidYMid meet" version="1.0"><defs><g/><clipPath id="id1"><path d="M 45.257812 45.886719 L 106.007812 45.886719 L 106.007812 106.636719 L 45.257812 106.636719 Z M 45.257812 45.886719 " clip-rule="nonzero"/></clipPath><clipPath id="id2"><path d="M 48.742188 58.050781 L 101 58.050781 L 101 85 L 48.742188 85 Z M 48.742188 58.050781 " clip-rule="nonzero"/></clipPath></defs><path stroke-linecap="butt" transform="matrix(0.775155, 0, 0, 0.75, 33.38956, 75.374998)" fill="none" stroke-linejoin="miter" d="M 0.0013741 0.00000319583 L 12.584539 0.00000319583 " stroke="#000000" stroke-width="1" stroke-opacity="1" stroke-miterlimit="4"/><path stroke-linecap="butt" transform="matrix(0.775155, 0, 0, 0.75, 107.171297, 74.774998)" fill="none" stroke-linejoin="miter" d="M 0.000746175 -0.00208018 L 12.583911 -0.00208018 " stroke="#000000" stroke-width="1" stroke-opacity="1" stroke-miterlimit="4"/><g clip-path="url(#id1)"><path fill="#ffffff" d="M 75.632812 45.886719 C 58.859375 45.886719 45.257812 59.488281 45.257812 76.261719 C 45.257812 93.039062 58.859375 106.636719 75.632812 106.636719 C 92.410156 106.636719 106.007812 93.039062 106.007812 76.261719 C 106.007812 59.488281 92.410156 45.886719 75.632812 45.886719 " fill-opacity="1" fill-rule="nonzero"/></g><g clip-path="url(#id2)"><path fill="#000000" d="M 100.101562 81.671875 C 99.234375 80.382812 97.386719 79.507812 96.339844 78.597656 C 95.121094 78.324219 94.066406 77.714844 93.007812 77.230469 C 91.890625 76.71875 90.789062 76.304688 89.675781 75.863281 C 86.296875 74.523438 83.074219 73.007812 80.789062 70.652344 C 79.996094 69.835938 79.308594 68.832031 78.824219 67.917969 C 78.53125 67.363281 78.304688 66.371094 77.882812 66.125 C 77.171875 65.699219 75.855469 66.082031 75.148438 65.78125 C 75.8125 63.417969 73.21875 62.570312 73.355469 60.65625 C 73.484375 58.808594 75.632812 58.847656 76.515625 59.886719 C 76.804688 60.226562 76.976562 61.136719 77.796875 60.828125 C 78.082031 60.34375 77.496094 59.808594 77.199219 59.460938 C 76.832031 59.023438 76.386719 58.585938 75.832031 58.433594 C 74.410156 58.046875 72.738281 58.828125 72.585938 60.484375 C 72.363281 62.929688 74.777344 63.058594 74.464844 65.78125 C 73.390625 66.0625 72.082031 65.722656 71.476562 66.125 C 71.101562 66.371094 70.554688 67.914062 70.195312 68.515625 C 69.714844 69.320312 69.070312 70.203125 68.570312 70.738281 C 65.921875 73.574219 61.824219 74.695312 57.972656 76.375 C 56.59375 76.976562 55.195312 77.695312 53.785156 78.425781 C 51.890625 79.410156 49.792969 80.371094 49.171875 82.269531 C 49.007812 82.78125 48.746094 84.046875 49.429688 84.664062 C 50.414062 84.929688 51.335938 83.539062 52.417969 83.296875 C 52.957031 83.175781 53.9375 83.296875 54.8125 83.296875 L 57.804688 83.296875 C 67.234375 83.296875 80.3125 83.382812 91.726562 83.382812 C 93.679688 83.382812 95.898438 83.148438 97.367188 83.464844 C 98.4375 83.699219 99.15625 85.050781 100.441406 84.917969 C 101.222656 83.855469 100.644531 82.480469 100.101562 81.671875 Z M 77.113281 60.144531 C 76.632812 59.542969 76.226562 58.867188 75.234375 58.777344 C 76.164062 58.585938 76.804688 59.429688 77.113281 60.144531 Z M 74.464844 58.691406 C 74.644531 58.644531 75.117188 58.652344 75.148438 58.691406 C 75.234375 58.804688 74.714844 58.742188 74.636719 58.777344 C 74.328125 58.917969 73.457031 59.304688 73.183594 59.714844 C 73.472656 59.140625 74.125 58.78125 74.464844 58.691406 Z M 73.011719 59.886719 C 73.355469 59.921875 72.949219 60.519531 72.925781 60.742188 C 73.398438 62.574219 75.074219 63.574219 74.894531 65.78125 C 74.472656 65.40625 74.722656 65.128906 74.636719 64.671875 C 74.308594 62.957031 72.328125 62.132812 73.011719 59.886719 Z M 77.796875 66.378906 C 78.832031 68.394531 79.703125 70.128906 81.300781 71.589844 C 83.824219 73.902344 88.179688 75.351562 91.726562 76.886719 C 93.363281 77.597656 94.527344 78.226562 96.171875 78.851562 C 97.625 79.964844 99.449219 80.703125 100.015625 82.699219 C 96.304688 77.238281 86.316406 76.605469 81.300781 72.273438 C 79.664062 70.859375 78.679688 69.152344 77.628906 66.976562 C 76.207031 66.488281 73.9375 66.160156 72.414062 66.722656 C 71.476562 67.066406 71.476562 67.976562 70.878906 68.601562 C 70.53125 68.472656 71.128906 67.914062 71.21875 67.660156 C 70.953125 65.324219 75.769531 65.980469 77.796875 66.378906 Z M 51.394531 79.964844 C 57.273438 75.917969 67.003906 74.988281 70.535156 68.429688 C 70.808594 68.789062 70.304688 69.171875 70.109375 69.542969 C 70.496094 69.472656 70.542969 69.066406 70.707031 68.773438 C 69.128906 72.5625 65.328125 74.058594 61.222656 75.777344 C 59.335938 76.566406 57.402344 77.414062 55.410156 78.339844 C 53.121094 79.40625 50.53125 80.484375 49.601562 82.78125 C 49.554688 81.546875 50.550781 80.546875 51.394531 79.964844 Z M 50.882812 83.722656 C 50.832031 83.875 50.644531 83.734375 50.796875 83.722656 C 55.652344 81.03125 60.386719 78.21875 65.324219 75.605469 C 60.589844 78.390625 55.761719 81.082031 50.882812 83.722656 Z M 74.636719 70.738281 C 75.433594 70.933594 75.742188 71.039062 76.832031 71.757812 C 77.671875 72.308594 78.34375 72.71875 79.078125 73.128906 C 84.394531 76.105469 90.0625 79.125 95.230469 82.355469 C 90.71875 82.203125 85.035156 82.34375 80.289062 82.367188 L 77.527344 82.34375 C 71.019531 82.175781 63.132812 82.234375 54.382812 82.183594 C 61.019531 78.25 67.96875 74.636719 74.636719 70.738281 Z M 65.410156 75.605469 C 66.117188 75.117188 66.867188 74.671875 67.714844 74.324219 C 67.425781 74.554688 66.140625 75.25 65.410156 75.605469 Z M 67.886719 74.238281 C 68.546875 73.734375 69.316406 73.335938 70.109375 72.957031 C 69.445312 73.464844 68.660156 73.847656 67.886719 74.238281 Z M 53.617188 82.953125 C 54.015625 83 55.296875 82.625 55.753906 83.039062 C 55.207031 82.941406 53.933594 83.171875 53.617188 82.953125 Z M 55.835938 82.867188 C 56.972656 82.925781 57.476562 82.90625 58.402344 82.953125 C 57.769531 83.042969 56.328125 83.203125 55.835938 82.867188 Z M 58.570312 82.953125 L 59.085938 82.953125 C 65.488281 82.898438 72.335938 83.070312 78.910156 82.867188 C 72.328125 82.824219 63.195312 82.902344 53.617188 82.699219 C 54.25 82.253906 56.054688 82.320312 57.460938 82.355469 C 61.539062 82.460938 67.378906 82.488281 73.011719 82.429688 L 73.0625 82.457031 L 83.367188 82.539062 L 83.351562 82.515625 C 86.269531 82.558594 89.128906 82.554688 91.640625 82.527344 C 93.101562 82.511719 94.664062 82.335938 96 82.78125 C 89.617188 82.960938 84.625 82.757812 78.996094 82.867188 C 85.191406 83.09375 91.757812 82.847656 96.425781 83.039062 C 82.355469 83.171875 70.738281 83.195312 58.570312 82.953125 Z M 100.1875 84.492188 C 93.203125 80.566406 86.289062 76.570312 79.335938 72.617188 L 78.738281 72.617188 C 77.554688 71.75 76.132812 71.121094 74.808594 70.394531 C 73.375 71.097656 72.058594 71.921875 70.707031 72.703125 C 68.613281 73.199219 66.617188 74.65625 64.808594 75.691406 C 59.714844 78.609375 54.507812 81.34375 49.429688 84.148438 C 50.234375 80.410156 54.394531 78.804688 57.71875 77.402344 C 60.425781 76.257812 63.183594 75.261719 65.492188 74.070312 C 65.6875 74.269531 64.984375 74.296875 64.980469 74.582031 C 67.125 73.394531 69.414062 71.5625 70.878906 69.027344 C 71.265625 68.351562 71.835938 66.953125 72.5 66.894531 C 73.472656 66.804688 73.921875 67.960938 74.894531 68.089844 C 74.792969 67.734375 74.347656 67.722656 74.125 67.492188 C 74.625 67.449219 75.183594 68.082031 75.746094 68.261719 C 75.292969 67.660156 74.492188 67.40625 73.78125 67.0625 C 73.722656 67.292969 73.960938 67.230469 74.039062 67.320312 C 73.753906 67.460938 73.398438 66.9375 73.011719 66.894531 C 74.4375 66.464844 76.390625 66.5625 77.542969 67.148438 C 78.246094 68.617188 78.902344 69.945312 79.847656 71.078125 C 83.75 75.761719 91.742188 76.3125 96.597656 80.050781 L 97.023438 80.050781 C 98.03125 81.007812 99.289062 81.714844 99.84375 83.125 C 99.476562 83.066406 99.320312 82.796875 98.988281 82.699219 C 99.378906 83.285156 100.492188 83.480469 100.1875 84.492188 Z M 100.1875 84.492188 " fill-opacity="1" fill-rule="nonzero"/></g><g fill="#000000" fill-opacity="1"><g transform="translate(42.338598, 71.077243)"><g/></g></g><g fill="#000000" fill-opacity="1"><g transform="translate(42.80585, 66.803342)"><g><path d="M -3.453125 -9.710938 C -3.425781 -9.785156 -3.460938 -9.859375 -3.535156 -9.886719 C -3.609375 -9.914062 -3.695312 -9.882812 -3.722656 -9.808594 L -4.269531 -8.308594 C -4.273438 -8.289062 -4.273438 -8.265625 -4.265625 -8.253906 C -4.269531 -8.246094 -4.269531 -8.246094 -4.269531 -8.246094 C -4.273438 -8.234375 -4.265625 -8.234375 -4.269531 -8.222656 C -4.261719 -8.210938 -4.261719 -8.210938 -4.257812 -8.199219 C -4.25 -8.1875 -4.25 -8.1875 -4.246094 -8.171875 C -4.234375 -8.167969 -4.238281 -8.160156 -4.230469 -8.15625 L -0.410156 -4.625 L -5.605469 -4.382812 C -5.660156 -4.382812 -5.71875 -4.339844 -5.734375 -4.292969 L -6.316406 -2.703125 C -6.34375 -2.628906 -6.296875 -2.550781 -6.222656 -2.523438 C -6.148438 -2.496094 -6.074219 -2.53125 -6.046875 -2.605469 C -6.015625 -2.695312 -5.929688 -2.789062 -5.820312 -2.855469 L -0.316406 -0.847656 C -0.160156 -0.789062 -0.0703125 -0.609375 -0.128906 -0.445312 C -0.15625 -0.371094 -0.121094 -0.292969 -0.046875 -0.269531 C 0.0273438 -0.242188 0.109375 -0.273438 0.136719 -0.347656 L 0.449219 -1.203125 C 0.476562 -1.277344 0.433594 -1.355469 0.359375 -1.382812 C 0.285156 -1.410156 0.210938 -1.375 0.183594 -1.300781 C 0.121094 -1.132812 -0.0625 -1.054688 -0.21875 -1.113281 L -5.320312 -2.972656 L 1.089844 -3.273438 L 1.113281 -3.277344 C 1.121094 -3.273438 1.132812 -3.277344 1.148438 -3.285156 C 1.148438 -3.285156 1.148438 -3.285156 1.15625 -3.28125 C 1.167969 -3.285156 1.171875 -3.296875 1.183594 -3.300781 C 1.195312 -3.308594 1.195312 -3.308594 1.199219 -3.316406 C 1.199219 -3.316406 1.214844 -3.324219 1.214844 -3.324219 C 1.214844 -3.324219 1.214844 -3.332031 1.214844 -3.332031 C 1.21875 -3.339844 1.230469 -3.347656 1.238281 -3.363281 C 1.242188 -3.375 1.238281 -3.386719 1.242188 -3.40625 C 1.238281 -3.417969 1.246094 -3.4375 1.238281 -3.449219 C 1.234375 -3.460938 1.226562 -3.472656 1.222656 -3.488281 C 1.214844 -3.5 1.207031 -3.503906 1.199219 -3.515625 L 0.503906 -4.15625 L 0.0234375 -4.601562 L -3.523438 -7.890625 L 1.574219 -6.027344 C 1.730469 -5.96875 1.820312 -5.78125 1.761719 -5.625 C 1.734375 -5.550781 1.765625 -5.46875 1.839844 -5.441406 C 1.914062 -5.414062 2 -5.453125 2.027344 -5.527344 L 2.730469 -7.453125 C 2.757812 -7.523438 2.714844 -7.605469 2.640625 -7.632812 C 2.566406 -7.65625 2.492188 -7.621094 2.464844 -7.550781 C 2.402344 -7.382812 2.21875 -7.304688 2.0625 -7.363281 L -3.265625 -9.308594 C -3.421875 -9.363281 -3.515625 -9.542969 -3.453125 -9.710938 Z M -0.121094 -4.351562 L 0.761719 -3.539062 L -5.535156 -3.242188 L -5.820312 -3.230469 L -5.5 -4.105469 Z M -3.953125 -8.339844 L -3.660156 -9.148438 L 2.257812 -6.988281 L 1.964844 -6.179688 Z M -3.953125 -8.339844 "/></g></g></g><g fill="#000000" fill-opacity="1"><g transform="translate(46.001945, 58.481109)"><g><path d="M 1.175781 -4.449219 L -1.539062 -8.691406 C -1.664062 -8.871094 -1.664062 -9.167969 -1.550781 -9.332031 C -1.511719 -9.386719 -1.523438 -9.476562 -1.585938 -9.519531 C -1.652344 -9.566406 -1.746094 -9.546875 -1.785156 -9.492188 C -1.792969 -9.484375 -2.046875 -9.113281 -2.046875 -9.113281 L -2.304688 -8.742188 C -2.347656 -8.675781 -2.332031 -8.582031 -2.265625 -8.535156 C -2.203125 -8.492188 -2.113281 -8.515625 -2.070312 -8.578125 C -2.046875 -8.613281 -2 -8.664062 -1.945312 -8.660156 C -1.886719 -8.65625 -1.828125 -8.617188 -1.789062 -8.539062 L 0.757812 -4.582031 L -3.84375 -5.542969 C -3.933594 -5.566406 -3.988281 -5.605469 -4.011719 -5.660156 C -4.035156 -5.710938 -4.011719 -5.765625 -3.984375 -5.804688 C -3.9375 -5.871094 -3.953125 -5.953125 -4.019531 -5.996094 C -4.082031 -6.039062 -4.171875 -6.03125 -4.21875 -5.964844 L -4.472656 -5.59375 L -5.179688 -4.570312 L -5.433594 -4.199219 C -5.480469 -4.136719 -5.457031 -4.046875 -5.390625 -4.003906 C -5.328125 -3.960938 -5.246094 -3.972656 -5.199219 -4.039062 C -5.089844 -4.199219 -4.820312 -4.300781 -4.601562 -4.253906 L 0.417969 -3.199219 L 1.144531 -2.695312 C 1.289062 -2.597656 1.324219 -2.40625 1.226562 -2.261719 C 1.179688 -2.195312 1.195312 -2.113281 1.261719 -2.070312 C 1.324219 -2.027344 1.414062 -2.035156 1.460938 -2.101562 L 1.714844 -2.472656 C 1.714844 -2.472656 1.714844 -2.472656 1.722656 -2.480469 L 2.367188 -3.414062 L 2.621094 -3.785156 C 2.667969 -3.851562 2.648438 -3.945312 2.585938 -3.988281 C 2.519531 -4.035156 2.433594 -4.011719 2.386719 -3.945312 C 2.292969 -3.808594 2.089844 -3.773438 1.953125 -3.867188 L 1.226562 -4.367188 Z M 1.308594 -2.929688 C 1.308594 -2.929688 0.558594 -3.449219 0.558594 -3.449219 C 0.546875 -3.453125 0.539062 -3.460938 0.527344 -3.457031 C 0.527344 -3.457031 0.519531 -3.460938 0.511719 -3.46875 L -4.542969 -4.527344 L -4.824219 -4.585938 L -4.292969 -5.351562 L 0.972656 -4.242188 L 1.011719 -4.195312 C 1.007812 -4.1875 1.015625 -4.179688 1.023438 -4.175781 C 1.03125 -4.167969 1.039062 -4.164062 1.046875 -4.15625 L 2.054688 -3.464844 L 1.566406 -2.753906 Z M 1.308594 -2.929688 "/></g></g></g><g fill="#000000" fill-opacity="1"><g transform="translate(50.723637, 52.062135)"><g/></g></g><g fill="#000000" fill-opacity="1"><g transform="translate(53.779968, 48.956649)"><g><path d="M -0.769531 -7.523438 C -0.078125 -8.023438 0.804688 -8.261719 1.710938 -8.089844 C 1.710938 -8.089844 1.722656 -8.085938 1.730469 -8.09375 C 1.738281 -8.085938 1.746094 -8.089844 1.746094 -8.089844 C 1.753906 -8.09375 1.757812 -8.085938 1.757812 -8.085938 C 1.765625 -8.09375 1.765625 -8.09375 1.773438 -8.097656 C 1.773438 -8.097656 1.78125 -8.105469 1.789062 -8.097656 C 1.796875 -8.101562 1.804688 -8.105469 1.8125 -8.113281 C 1.820312 -8.117188 1.828125 -8.125 1.835938 -8.128906 C 1.832031 -8.136719 1.839844 -8.144531 1.839844 -8.144531 C 1.839844 -8.144531 1.847656 -8.148438 1.847656 -8.148438 C 1.855469 -8.152344 1.847656 -8.164062 1.859375 -8.167969 C 1.859375 -8.167969 1.867188 -8.171875 1.859375 -8.179688 C 1.863281 -8.195312 1.875 -8.214844 1.871094 -8.234375 C 1.871094 -8.234375 1.871094 -8.234375 1.863281 -8.242188 C 1.871094 -8.25 1.867188 -8.257812 1.867188 -8.257812 C 1.867188 -8.257812 1.863281 -8.265625 1.871094 -8.269531 C 1.863281 -8.28125 1.863281 -8.28125 1.859375 -8.289062 C 1.851562 -8.296875 1.847656 -8.304688 1.84375 -8.3125 C 1.84375 -8.3125 1.402344 -8.949219 1.402344 -8.949219 L 1.324219 -9.0625 C 1.28125 -9.125 1.199219 -9.140625 1.132812 -9.097656 C 1.070312 -9.054688 1.054688 -8.972656 1.097656 -8.90625 L 1.175781 -8.792969 C 1.25 -8.6875 1.222656 -8.539062 1.117188 -8.464844 C 1.078125 -8.4375 1.03125 -8.417969 0.988281 -8.425781 C 0.980469 -8.421875 0.980469 -8.421875 0.96875 -8.421875 C 0.3125 -8.390625 -0.3125 -8.171875 -0.839844 -7.820312 C -0.847656 -7.8125 -0.847656 -7.8125 -0.859375 -7.808594 C -0.890625 -7.785156 -0.921875 -7.765625 -0.945312 -7.746094 C -1.640625 -7.234375 -2.148438 -6.46875 -2.3125 -5.570312 C -2.660156 -3.675781 -1.402344 -1.84375 0.492188 -1.492188 C 1.402344 -1.332031 2.289062 -1.53125 3.015625 -1.996094 C 3.046875 -2.015625 3.074219 -2.035156 3.105469 -2.054688 C 3.113281 -2.0625 3.113281 -2.0625 3.121094 -2.066406 C 3.640625 -2.4375 4.066406 -2.941406 4.332031 -3.542969 C 4.332031 -3.554688 4.332031 -3.554688 4.339844 -3.5625 C 4.347656 -3.601562 4.382812 -3.636719 4.421875 -3.664062 C 4.527344 -3.738281 4.679688 -3.710938 4.75 -3.605469 L 4.828125 -3.492188 C 4.871094 -3.425781 4.953125 -3.414062 5.019531 -3.457031 C 5.082031 -3.5 5.097656 -3.582031 5.054688 -3.648438 C 5.054688 -3.648438 4.976562 -3.761719 4.976562 -3.761719 L 4.539062 -4.398438 C 4.53125 -4.40625 4.527344 -4.414062 4.519531 -4.421875 C 4.515625 -4.429688 4.515625 -4.429688 4.507812 -4.4375 C 4.5 -4.433594 4.5 -4.433594 4.496094 -4.441406 C 4.496094 -4.441406 4.492188 -4.449219 4.480469 -4.445312 C 4.476562 -4.453125 4.476562 -4.453125 4.476562 -4.453125 C 4.457031 -4.460938 4.4375 -4.460938 4.421875 -4.460938 C 4.417969 -4.46875 4.410156 -4.464844 4.410156 -4.464844 C 4.402344 -4.457031 4.394531 -4.464844 4.386719 -4.460938 C 4.386719 -4.460938 4.378906 -4.457031 4.378906 -4.457031 C 4.378906 -4.457031 4.371094 -4.449219 4.363281 -4.457031 C 4.355469 -4.453125 4.347656 -4.445312 4.339844 -4.441406 C 4.332031 -4.4375 4.324219 -4.429688 4.316406 -4.425781 C 4.324219 -4.417969 4.3125 -4.410156 4.3125 -4.410156 C 4.304688 -4.40625 4.304688 -4.40625 4.296875 -4.398438 C 4.296875 -4.398438 4.304688 -4.390625 4.296875 -4.386719 C 4.296875 -4.386719 4.289062 -4.378906 4.292969 -4.371094 C 4.285156 -4.367188 4.28125 -4.355469 4.28125 -4.355469 C 4.121094 -3.445312 3.589844 -2.699219 2.871094 -2.238281 C 1.957031 -1.703125 0.46875 -2.394531 -0.503906 -3.804688 C -1.480469 -5.226562 -1.597656 -6.859375 -0.769531 -7.523438 Z M 1.4375 -8.414062 C 1.429688 -8.410156 1.429688 -8.410156 1.429688 -8.410156 C 1.429688 -8.410156 1.429688 -8.410156 1.4375 -8.414062 Z M 4.480469 -3.980469 C 4.480469 -3.980469 4.480469 -3.980469 4.488281 -3.984375 C 4.480469 -3.980469 4.480469 -3.980469 4.480469 -3.980469 Z M -0.742188 -3.652344 C -0.0195312 -2.601562 0.972656 -1.941406 1.863281 -1.804688 C 1.441406 -1.707031 0.992188 -1.683594 0.539062 -1.773438 C -1.199219 -2.089844 -2.363281 -3.773438 -2.035156 -5.511719 C -1.957031 -5.96875 -1.777344 -6.378906 -1.535156 -6.734375 C -1.726562 -5.855469 -1.460938 -4.691406 -0.742188 -3.652344 Z M -0.742188 -3.652344 "/></g></g></g><g fill="#000000" fill-opacity="1"><g transform="translate(59.772501, 44.964161)"><g><path d="M 4.28125 -3.789062 C 4.207031 -3.757812 4.175781 -3.679688 4.207031 -3.609375 C 4.511719 -2.875 4.164062 -2.03125 3.429688 -1.726562 L 1.839844 -1.0625 L -0.460938 -6.589844 C -0.527344 -6.742188 -0.445312 -6.9375 -0.292969 -7 C -0.21875 -7.03125 -0.179688 -7.109375 -0.210938 -7.183594 C -0.238281 -7.253906 -0.328125 -7.292969 -0.402344 -7.261719 L -2.292969 -6.476562 C -2.363281 -6.445312 -2.394531 -6.359375 -2.363281 -6.285156 C -2.332031 -6.214844 -2.253906 -6.183594 -2.183594 -6.210938 C -2.019531 -6.28125 -1.835938 -6.199219 -1.773438 -6.042969 L 0.40625 -0.804688 C 0.472656 -0.652344 0.402344 -0.464844 0.238281 -0.394531 C 0.164062 -0.367188 0.132812 -0.289062 0.164062 -0.21875 C 0.195312 -0.144531 0.273438 -0.105469 0.347656 -0.132812 L 4.996094 -2.070312 C 5.070312 -2.101562 5.097656 -2.1875 5.066406 -2.257812 L 4.460938 -3.714844 C 4.429688 -3.785156 4.355469 -3.820312 4.28125 -3.789062 Z M 4.570312 -2.742188 L 4.761719 -2.28125 L 4.300781 -2.085938 C 4.429688 -2.28125 4.519531 -2.507812 4.570312 -2.742188 Z M -1.632812 -6.441406 L -0.84375 -6.769531 L 1.578125 -0.953125 L 0.789062 -0.625 Z M -1.632812 -6.441406 "/></g></g></g><g fill="#000000" fill-opacity="1"><g transform="translate(65.766969, 42.451833)"><g><path d="M 2.484375 -7.453125 C 0.582031 -7.121094 -0.683594 -5.3125 -0.355469 -3.417969 C -0.0234375 -1.515625 1.777344 -0.238281 3.679688 -0.570312 C 5.582031 -0.902344 6.859375 -2.714844 6.527344 -4.617188 C 6.199219 -6.507812 4.386719 -7.785156 2.484375 -7.453125 Z M 5.03125 -4.355469 C 5.335938 -2.609375 4.710938 -1.039062 3.632812 -0.851562 C 2.558594 -0.664062 1.433594 -1.929688 1.132812 -3.675781 C 0.828125 -5.414062 1.460938 -6.988281 2.53125 -7.171875 C 3.613281 -7.359375 4.730469 -6.09375 5.03125 -4.355469 Z M -0.0859375 -3.464844 C -0.316406 -4.796875 0.324219 -6.09375 1.421875 -6.761719 C 0.878906 -6.039062 0.632812 -4.875 0.851562 -3.628906 C 1.070312 -2.375 1.691406 -1.359375 2.445312 -0.863281 C 1.1875 -1.121094 0.148438 -2.125 -0.0859375 -3.464844 Z M 4.742188 -1.261719 C 5.285156 -1.984375 5.527344 -3.148438 5.3125 -4.394531 C 5.09375 -5.648438 4.46875 -6.664062 3.71875 -7.160156 C 4.976562 -6.902344 6.015625 -5.898438 6.25 -4.558594 C 6.480469 -3.226562 5.839844 -1.929688 4.742188 -1.261719 Z M 4.742188 -1.261719 "/></g></g></g><g fill="#000000" fill-opacity="1"><g transform="translate(73.841626, 41.244111)"><g><path d="M 3.730469 -3.753906 L 2.097656 -4.273438 C 1.613281 -4.441406 1.308594 -4.90625 1.332031 -5.414062 C 1.359375 -6.0625 1.902344 -6.558594 2.546875 -6.53125 L 2.859375 -6.515625 C 3.820312 -6.476562 4.570312 -5.65625 4.527344 -4.699219 C 4.523438 -4.621094 4.589844 -4.550781 4.65625 -4.546875 C 4.738281 -4.542969 4.808594 -4.609375 4.8125 -4.6875 L 4.890625 -6.507812 C 4.894531 -6.585938 4.828125 -6.648438 4.75 -6.652344 C 4.679688 -6.652344 4.609375 -6.597656 4.605469 -6.519531 L 4.597656 -6.351562 C 4.59375 -6.234375 4.492188 -6.132812 4.363281 -6.136719 C 4.316406 -6.140625 4.257812 -6.171875 4.21875 -6.203125 C 4.210938 -6.210938 4.210938 -6.210938 4.199219 -6.222656 C 3.851562 -6.5625 3.390625 -6.777344 2.871094 -6.800781 L 2.558594 -6.8125 C 1.433594 -6.863281 0.492188 -5.992188 0.445312 -4.875 C 0.40625 -3.972656 0.96875 -3.144531 1.820312 -2.863281 L 3.453125 -2.34375 C 3.9375 -2.175781 4.242188 -1.710938 4.21875 -1.199219 C 4.191406 -0.554688 3.652344 -0.0585938 3.003906 -0.0859375 L 2.269531 -0.117188 C 1.300781 -0.160156 0.550781 -0.976562 0.59375 -1.9375 C 0.597656 -2.015625 0.539062 -2.085938 0.460938 -2.089844 C 0.382812 -2.09375 0.324219 -2.027344 0.320312 -1.949219 L 0.242188 -0.125 C 0.238281 -0.046875 0.292969 0.0117188 0.371094 0.015625 C 0.449219 0.0195312 0.511719 -0.0351562 0.515625 -0.113281 L 0.523438 -0.28125 C 0.527344 -0.398438 0.628906 -0.503906 0.757812 -0.496094 C 0.816406 -0.496094 0.863281 -0.464844 0.910156 -0.429688 C 0.910156 -0.421875 0.921875 -0.421875 0.921875 -0.410156 C 1.269531 -0.0742188 1.730469 0.144531 2.257812 0.164062 L 2.992188 0.199219 C 4.109375 0.246094 5.058594 -0.625 5.105469 -1.742188 C 5.144531 -2.640625 4.582031 -3.46875 3.730469 -3.753906 Z M 4.578125 -5.902344 L 4.570312 -5.726562 C 4.542969 -5.777344 4.515625 -5.828125 4.488281 -5.867188 C 4.519531 -5.875 4.550781 -5.894531 4.578125 -5.902344 Z M 0.542969 -0.730469 L 0.550781 -0.90625 C 0.578125 -0.859375 0.605469 -0.808594 0.640625 -0.765625 C 0.601562 -0.757812 0.570312 -0.742188 0.542969 -0.730469 Z M 4.371094 -0.65625 C 4.449219 -0.820312 4.496094 -0.992188 4.503906 -1.1875 C 4.53125 -1.824219 4.144531 -2.390625 3.546875 -2.613281 L 1.910156 -3.125 C 1.175781 -3.371094 0.6875 -4.089844 0.71875 -4.863281 C 0.738281 -5.285156 0.910156 -5.667969 1.179688 -5.960938 C 1.101562 -5.796875 1.054688 -5.621094 1.046875 -5.425781 C 1.019531 -4.789062 1.40625 -4.226562 2.007812 -4.003906 L 3.640625 -3.492188 C 4.375 -3.242188 4.867188 -2.527344 4.832031 -1.753906 C 4.8125 -1.332031 4.640625 -0.949219 4.371094 -0.65625 Z M 4.371094 -0.65625 "/></g></g></g><g fill="#000000" fill-opacity="1"><g transform="translate(79.891829, 41.554353)"><g><path d="M 5.257812 -5.5 C 6.027344 -5.316406 6.507812 -4.535156 6.320312 -3.765625 C 6.304688 -3.6875 6.347656 -3.617188 6.421875 -3.601562 C 6.5 -3.582031 6.570312 -3.625 6.589844 -3.703125 L 6.957031 -5.234375 C 6.976562 -5.3125 6.933594 -5.390625 6.855469 -5.410156 L 1.960938 -6.582031 C 1.882812 -6.601562 1.808594 -6.546875 1.792969 -6.472656 C 1.773438 -6.394531 1.816406 -6.324219 1.894531 -6.308594 C 2.066406 -6.265625 2.164062 -6.089844 2.125 -5.929688 L 0.804688 -0.410156 C 0.765625 -0.25 0.597656 -0.140625 0.425781 -0.179688 C 0.351562 -0.199219 0.277344 -0.15625 0.261719 -0.078125 C 0.242188 -0.00390625 0.285156 0.078125 0.359375 0.0976562 L 5.257812 1.269531 C 5.332031 1.289062 5.40625 1.234375 5.425781 1.160156 L 5.792969 -0.375 C 5.8125 -0.453125 5.765625 -0.523438 5.691406 -0.542969 C 5.613281 -0.558594 5.542969 -0.515625 5.527344 -0.441406 C 5.339844 0.332031 4.5625 0.808594 3.789062 0.625 L 2.113281 0.222656 L 2.816406 -2.710938 L 3.71875 -2.496094 C 3.890625 -2.453125 3.992188 -2.289062 3.953125 -2.117188 C 3.933594 -2.039062 3.976562 -1.960938 4.050781 -1.941406 C 4.128906 -1.921875 4.210938 -1.972656 4.230469 -2.050781 L 4.441406 -2.9375 C 4.460938 -3.011719 4.40625 -3.085938 4.332031 -3.105469 C 4.253906 -3.121094 4.183594 -3.078125 4.164062 -3.003906 C 4.125 -2.832031 3.957031 -2.730469 3.785156 -2.769531 L 2.882812 -2.988281 L 3.578125 -5.902344 Z M 6.542969 -4.679688 C 6.453125 -4.902344 6.332031 -5.113281 6.171875 -5.28125 L 6.65625 -5.164062 Z M 2.472656 -6.167969 L 3.304688 -5.96875 C 3.304688 -5.96875 2.570312 -2.910156 2.570312 -2.910156 L 1.835938 0.15625 L 1.007812 -0.0390625 Z M 5.304688 0.476562 L 5.191406 0.960938 L 4.703125 0.84375 C 4.925781 0.765625 5.128906 0.632812 5.304688 0.476562 Z M 5.304688 0.476562 "/></g></g></g><g fill="#000000" fill-opacity="1"><g transform="translate(86.238094, 43.127672)"><g><path d="M 6.6875 -4.113281 C 7.40625 -3.777344 7.714844 -2.914062 7.375 -2.199219 C 7.339844 -2.125 7.378906 -2.042969 7.449219 -2.011719 C 7.511719 -1.980469 7.597656 -2.003906 7.632812 -2.078125 L 8.304688 -3.503906 C 8.339844 -3.574219 8.304688 -3.664062 8.242188 -3.695312 L 3.253906 -6.046875 C 3.183594 -6.082031 3.101562 -6.042969 3.066406 -5.972656 L 2.394531 -4.546875 C 2.359375 -4.476562 2.390625 -4.398438 2.460938 -4.363281 C 2.53125 -4.332031 2.609375 -4.359375 2.644531 -4.429688 C 2.980469 -5.148438 3.84375 -5.457031 4.558594 -5.117188 L 4.984375 -4.917969 L 2.429688 0.496094 C 2.359375 0.648438 2.164062 0.71875 2.003906 0.640625 C 1.941406 0.613281 1.855469 0.636719 1.820312 0.707031 C 1.789062 0.777344 1.824219 0.859375 1.886719 0.890625 L 3.75 1.769531 C 3.820312 1.800781 3.898438 1.773438 3.929688 1.703125 C 3.964844 1.632812 3.9375 1.554688 3.867188 1.519531 C 3.707031 1.445312 3.644531 1.253906 3.714844 1.101562 L 6.269531 -4.3125 Z M 7.777344 -3.046875 C 7.746094 -3.28125 7.667969 -3.511719 7.539062 -3.714844 L 7.988281 -3.5 Z M 3.042969 -5.28125 L 3.257812 -5.734375 L 3.710938 -5.519531 C 3.476562 -5.488281 3.242188 -5.402344 3.042969 -5.28125 Z M 3.324219 1.265625 L 2.546875 0.898438 L 5.234375 -4.800781 L 6.011719 -4.433594 Z M 3.324219 1.265625 "/></g></g></g><g fill="#000000" fill-opacity="1"><g transform="translate(92.565575, 46.323736)"><g/></g></g><g fill="#000000" fill-opacity="1"><g transform="translate(96.160071, 48.743937)"><g><path d="M 3.425781 3.148438 C 3.371094 3.089844 3.289062 3.089844 3.230469 3.144531 C 3.175781 3.199219 3.167969 3.289062 3.222656 3.34375 L 4.722656 4.894531 C 4.769531 4.941406 4.867188 4.945312 4.921875 4.890625 C 4.976562 4.835938 4.972656 4.746094 4.925781 4.695312 C 4.789062 4.554688 4.738281 4.265625 4.832031 4.0625 L 7.441406 -2.019531 L 7.449219 -2.039062 C 7.449219 -2.050781 7.457031 -2.058594 7.457031 -2.074219 C 7.457031 -2.074219 7.457031 -2.074219 7.457031 -2.085938 C 7.460938 -2.09375 7.457031 -2.101562 7.457031 -2.113281 C 7.449219 -2.121094 7.449219 -2.121094 7.449219 -2.121094 C 7.457031 -2.128906 7.449219 -2.136719 7.441406 -2.140625 C 7.441406 -2.140625 7.449219 -2.148438 7.441406 -2.15625 C 7.441406 -2.15625 7.441406 -2.15625 7.4375 -2.164062 C 7.429688 -2.171875 7.429688 -2.183594 7.421875 -2.191406 C 7.402344 -2.199219 7.394531 -2.207031 7.386719 -2.210938 C 7.386719 -2.210938 7.382812 -2.21875 7.382812 -2.21875 C 7.367188 -2.21875 7.359375 -2.226562 7.347656 -2.226562 C 7.332031 -2.226562 7.328125 -2.234375 7.3125 -2.234375 C 7.3125 -2.234375 7.304688 -2.226562 7.304688 -2.226562 C 7.292969 -2.226562 7.277344 -2.226562 7.269531 -2.222656 L 6.777344 -2.027344 L 5.773438 -1.644531 L 1.085938 0.191406 C 0.875 0.269531 0.59375 0.21875 0.457031 0.078125 C 0.402344 0.0195312 0.320312 0.0195312 0.261719 0.0742188 C 0.207031 0.128906 0.199219 0.21875 0.25 0.273438 L 0.886719 0.929688 C 0.941406 0.984375 1.03125 0.980469 1.085938 0.925781 C 1.144531 0.871094 1.144531 0.789062 1.089844 0.730469 C 1.054688 0.695312 1.023438 0.648438 1.03125 0.585938 C 1.042969 0.53125 1.09375 0.480469 1.183594 0.449219 L 1.492188 0.328125 C 2.578125 -0.0390625 3.765625 0.199219 4.613281 0.949219 L 3.710938 3.0625 C 3.675781 3.152344 3.625 3.199219 3.570312 3.210938 C 3.507812 3.21875 3.460938 3.183594 3.425781 3.148438 Z M 3.808594 3.542969 L 3.902344 3.328125 L 3.964844 3.171875 L 5.933594 -1.40625 L 7.054688 -1.835938 L 4.460938 4.21875 Z M 2.648438 -0.121094 L 5.570312 -1.257812 L 4.734375 0.679688 C 4.140625 0.179688 3.402344 -0.0898438 2.648438 -0.121094 Z M 2.648438 -0.121094 "/></g></g></g><g fill="#000000" fill-opacity="1"><g transform="translate(101.540644, 54.477027)"><g><path d="M 0.425781 0.179688 C 0.386719 0.109375 0.304688 0.0898438 0.238281 0.132812 C 0.171875 0.171875 0.152344 0.25 0.191406 0.320312 L 1.246094 2.074219 C 1.289062 2.140625 1.371094 2.167969 1.441406 2.128906 C 1.507812 2.089844 1.523438 2 1.480469 1.933594 C 1.394531 1.789062 1.445312 1.589844 1.589844 1.503906 L 2.699219 0.835938 L 3.527344 2.214844 C 4.230469 3.390625 5.765625 3.769531 6.941406 3.0625 C 8.117188 2.359375 8.488281 0.828125 7.78125 -0.347656 L 6.882812 -1.839844 C 6.882812 -1.839844 6.894531 -1.847656 6.894531 -1.847656 L 6.070312 -3.214844 C 6.03125 -3.28125 5.941406 -3.296875 5.875 -3.257812 C 5.804688 -3.214844 5.785156 -3.136719 5.828125 -3.066406 C 5.917969 -2.917969 5.863281 -2.722656 5.71875 -2.636719 L 0.855469 0.285156 C 0.714844 0.371094 0.519531 0.328125 0.425781 0.179688 Z M 6.71875 -1.582031 L 7.546875 -0.203125 C 7.847656 0.289062 7.234375 1.230469 6.207031 1.847656 C 5.183594 2.460938 4.066406 2.5625 3.769531 2.066406 L 2.941406 0.691406 Z M 6.792969 2.820312 C 5.980469 3.308594 4.96875 3.207031 4.265625 2.648438 C 4.828125 2.722656 5.601562 2.53125 6.351562 2.082031 C 7.097656 1.632812 7.621094 1.042969 7.820312 0.511719 C 7.992188 1.390625 7.609375 2.332031 6.792969 2.820312 Z M 1.175781 1.421875 L 0.734375 0.691406 L 6.132812 -2.554688 L 6.574219 -1.824219 Z M 1.175781 1.421875 "/></g></g></g><g fill="#000000" fill-opacity="1"><g transform="translate(105.159094, 60.644586)"><g><path d="M 0.378906 0.265625 C 0.355469 0.191406 0.277344 0.152344 0.203125 0.179688 C 0.128906 0.203125 0.09375 0.277344 0.117188 0.351562 L 0.769531 2.292969 C 0.796875 2.367188 0.875 2.414062 0.949219 2.390625 C 1.023438 2.363281 1.054688 2.28125 1.03125 2.207031 C 0.976562 2.050781 1.070312 1.863281 1.226562 1.808594 L 2.453125 1.398438 L 2.964844 2.921875 C 3.402344 4.222656 4.816406 4.925781 6.117188 4.488281 C 7.417969 4.050781 8.113281 2.640625 7.675781 1.339844 L 7.121094 -0.3125 C 7.121094 -0.3125 7.128906 -0.316406 7.128906 -0.316406 L 6.621094 -1.832031 C 6.59375 -1.90625 6.511719 -1.9375 6.4375 -1.914062 C 6.363281 -1.890625 6.324219 -1.816406 6.351562 -1.742188 C 6.40625 -1.574219 6.3125 -1.394531 6.152344 -1.34375 L 0.777344 0.464844 C 0.617188 0.515625 0.433594 0.433594 0.378906 0.265625 Z M 6.902344 -0.0976562 L 7.414062 1.425781 C 7.597656 1.976562 6.796875 2.761719 5.664062 3.140625 C 4.53125 3.523438 3.417969 3.378906 3.234375 2.832031 L 2.722656 1.308594 Z M 6.027344 4.21875 C 5.125 4.519531 4.160156 4.203125 3.597656 3.503906 C 4.125 3.699219 4.925781 3.679688 5.753906 3.402344 C 6.578125 3.125 7.21875 2.660156 7.523438 2.1875 C 7.503906 3.082031 6.925781 3.917969 6.027344 4.21875 Z M 0.839844 1.640625 L 0.570312 0.832031 L 6.542969 -1.171875 L 6.8125 -0.367188 Z M 0.839844 1.640625 "/></g></g></g><g fill="#000000" fill-opacity="1"><g transform="translate(107.278526, 67.585845)"><g/></g></g><g fill="#000000" fill-opacity="1"><g transform="translate(37.034252, 86.04941)"><g><path d="M 4.679688 1.664062 C 4.796875 2.152344 4.496094 2.644531 4.007812 2.761719 C 3.960938 2.773438 3.933594 2.824219 3.945312 2.875 C 3.957031 2.914062 4 2.949219 4.050781 2.9375 L 5.019531 2.703125 C 5.066406 2.691406 5.101562 2.640625 5.089844 2.597656 L 4.269531 -0.792969 C 4.257812 -0.84375 4.207031 -0.867188 4.160156 -0.855469 L 3.191406 -0.625 C 3.140625 -0.613281 3.113281 -0.566406 3.125 -0.519531 C 3.136719 -0.46875 3.183594 -0.441406 3.230469 -0.453125 C 3.71875 -0.570312 4.214844 -0.269531 4.332031 0.21875 L 4.402344 0.507812 L 0.71875 1.394531 C 0.617188 1.417969 0.503906 1.351562 0.476562 1.242188 C 0.46875 1.199219 0.421875 1.167969 0.375 1.179688 C 0.324219 1.191406 0.300781 1.242188 0.308594 1.285156 L 0.613281 2.546875 C 0.625 2.597656 0.671875 2.625 0.71875 2.613281 C 0.769531 2.601562 0.796875 2.554688 0.785156 2.507812 C 0.757812 2.398438 0.828125 2.292969 0.929688 2.269531 L 4.609375 1.378906 Z M 4.585938 2.625 C 4.6875 2.515625 4.769531 2.386719 4.820312 2.242188 L 4.894531 2.550781 Z M 3.808594 -0.59375 L 4.117188 -0.667969 L 4.191406 -0.359375 C 4.082031 -0.460938 3.949219 -0.542969 3.808594 -0.59375 Z M 0.695312 2.140625 L 0.566406 1.609375 L 4.441406 0.675781 L 4.570312 1.207031 Z M 0.695312 2.140625 "/></g></g></g><g fill="#000000" fill-opacity="1"><g transform="translate(38.386023, 91.274766)"><g><path d="M 5.375 2.242188 C 5.394531 2.285156 5.441406 2.308594 5.488281 2.289062 C 5.535156 2.269531 5.5625 2.21875 5.542969 2.175781 L 5.058594 0.964844 C 5.042969 0.917969 4.988281 0.902344 4.941406 0.917969 C 4.894531 0.9375 4.875 0.988281 4.894531 1.03125 C 4.933594 1.136719 4.878906 1.25 4.78125 1.289062 L 3.199219 1.921875 L 2.589844 0.398438 L 4.171875 -0.234375 C 4.269531 -0.273438 4.390625 -0.222656 4.429688 -0.125 C 4.449219 -0.078125 4.5 -0.0507812 4.546875 -0.0703125 C 4.589844 -0.0898438 4.617188 -0.144531 4.597656 -0.191406 L 4.117188 -1.394531 C 4.097656 -1.441406 4.042969 -1.457031 3.996094 -1.441406 C 3.949219 -1.421875 3.929688 -1.371094 3.949219 -1.328125 C 3.988281 -1.222656 3.9375 -1.109375 3.839844 -1.070312 L 0.507812 0.265625 C 0.410156 0.304688 0.289062 0.257812 0.25 0.152344 C 0.230469 0.109375 0.183594 0.0859375 0.136719 0.105469 C 0.0898438 0.125 0.0625 0.175781 0.0820312 0.222656 L 0.5625 1.421875 C 0.582031 1.46875 0.636719 1.492188 0.683594 1.476562 C 0.730469 1.457031 0.75 1.402344 0.730469 1.355469 C 0.691406 1.257812 0.742188 1.136719 0.839844 1.097656 L 2.421875 0.464844 L 3.03125 1.992188 L 1.449219 2.625 C 1.351562 2.664062 1.234375 2.617188 1.191406 2.511719 C 1.175781 2.46875 1.125 2.445312 1.078125 2.464844 C 1.035156 2.484375 1.007812 2.535156 1.027344 2.582031 L 1.507812 3.789062 C 1.527344 3.835938 1.582031 3.851562 1.628906 3.835938 C 1.675781 3.816406 1.695312 3.769531 1.675781 3.722656 C 1.636719 3.617188 1.6875 3.503906 1.785156 3.464844 L 5.117188 2.128906 C 5.214844 2.089844 5.335938 2.136719 5.375 2.242188 Z M 4.089844 -0.976562 L 4.289062 -0.476562 L 0.589844 1.003906 L 0.390625 0.503906 Z M 5.035156 1.382812 L 5.234375 1.890625 L 1.535156 3.371094 L 1.332031 2.863281 Z M 5.035156 1.382812 "/></g></g></g><g fill="#000000" fill-opacity="1"><g transform="translate(40.634038, 96.561744)"><g><path d="M 4.8125 0.0351562 C 5.0625 0.46875 4.910156 1.027344 4.476562 1.277344 C 4.433594 1.300781 4.417969 1.351562 4.445312 1.394531 C 4.46875 1.4375 4.519531 1.453125 4.5625 1.429688 L 5.429688 0.929688 C 5.472656 0.90625 5.492188 0.851562 5.464844 0.808594 L 3.882812 -1.953125 C 3.855469 -1.996094 3.800781 -2.007812 3.757812 -1.984375 C 3.714844 -1.957031 3.699219 -1.90625 3.726562 -1.863281 C 3.78125 -1.765625 3.742188 -1.644531 3.652344 -1.59375 L 0.539062 0.191406 C 0.445312 0.242188 0.324219 0.214844 0.269531 0.117188 C 0.242188 0.0742188 0.191406 0.0625 0.148438 0.0859375 C 0.105469 0.109375 0.0859375 0.164062 0.113281 0.207031 L 1.695312 2.972656 C 1.722656 3.015625 1.777344 3.023438 1.820312 3 L 2.6875 2.503906 C 2.730469 2.480469 2.742188 2.429688 2.71875 2.386719 C 2.691406 2.34375 2.640625 2.328125 2.597656 2.351562 C 2.164062 2.601562 1.605469 2.453125 1.355469 2.015625 L 0.8125 1.070312 L 2.46875 0.121094 L 2.761719 0.632812 C 2.816406 0.726562 2.785156 0.847656 2.6875 0.902344 C 2.644531 0.925781 2.625 0.980469 2.652344 1.023438 C 2.675781 1.066406 2.734375 1.082031 2.777344 1.058594 L 3.277344 0.769531 C 3.320312 0.746094 3.332031 0.691406 3.308594 0.648438 C 3.28125 0.605469 3.230469 0.589844 3.1875 0.613281 C 3.09375 0.671875 2.972656 0.636719 2.917969 0.542969 L 2.625 0.03125 L 4.269531 -0.914062 Z M 4.992188 0.980469 C 5.058594 0.84375 5.101562 0.699219 5.109375 0.550781 L 5.265625 0.824219 Z M 3.914062 -1.535156 L 4.179688 -1.070312 C 4.179688 -1.070312 2.457031 -0.078125 2.457031 -0.078125 L 0.722656 0.914062 L 0.457031 0.445312 Z M 2.082031 2.648438 L 1.808594 2.804688 L 1.652344 2.53125 C 1.785156 2.601562 1.933594 2.636719 2.082031 2.648438 Z M 2.082031 2.648438 "/></g></g></g><g fill="#000000" fill-opacity="1"><g transform="translate(43.235272, 100.866821)"><g/></g></g><g fill="#000000" fill-opacity="1"><g transform="translate(45.388108, 103.733787)"><g><path d="M 3.347656 0.00390625 L 2.851562 -0.964844 C 2.710938 -1.253906 2.785156 -1.597656 3.023438 -1.816406 C 3.328125 -2.089844 3.789062 -2.070312 4.066406 -1.765625 L 4.199219 -1.621094 C 4.609375 -1.171875 4.574219 -0.472656 4.128906 -0.0625 C 4.089844 -0.0273438 4.085938 0.03125 4.117188 0.0625 C 4.148438 0.101562 4.210938 0.105469 4.25 0.0703125 L 5.101562 -0.707031 C 5.136719 -0.738281 5.136719 -0.796875 5.101562 -0.832031 C 5.074219 -0.863281 5.015625 -0.871094 4.980469 -0.839844 L 4.902344 -0.769531 C 4.847656 -0.71875 4.753906 -0.71875 4.699219 -0.777344 C 4.679688 -0.800781 4.667969 -0.839844 4.664062 -0.871094 C 4.664062 -0.878906 4.664062 -0.878906 4.664062 -0.886719 C 4.664062 -1.195312 4.554688 -1.5 4.332031 -1.742188 L 4.199219 -1.886719 C 3.71875 -2.414062 2.910156 -2.449219 2.386719 -1.972656 C 1.964844 -1.589844 1.84375 -0.96875 2.097656 -0.460938 L 2.589844 0.507812 C 2.730469 0.796875 2.660156 1.140625 2.421875 1.359375 C 2.117188 1.632812 1.652344 1.613281 1.378906 1.308594 L 1.066406 0.964844 C 0.652344 0.511719 0.683594 -0.1875 1.132812 -0.597656 C 1.171875 -0.628906 1.175781 -0.6875 1.144531 -0.722656 C 1.109375 -0.761719 1.054688 -0.757812 1.015625 -0.726562 L 0.164062 0.0507812 C 0.128906 0.0859375 0.125 0.136719 0.160156 0.175781 C 0.191406 0.210938 0.246094 0.214844 0.28125 0.179688 L 0.359375 0.109375 C 0.414062 0.0585938 0.507812 0.0585938 0.558594 0.117188 C 0.585938 0.144531 0.59375 0.179688 0.601562 0.214844 C 0.59375 0.222656 0.597656 0.226562 0.59375 0.230469 C 0.597656 0.535156 0.707031 0.839844 0.933594 1.085938 L 1.246094 1.429688 C 1.722656 1.953125 2.535156 1.992188 3.058594 1.515625 C 3.480469 1.132812 3.601562 0.507812 3.347656 0.00390625 Z M 4.691406 -0.574219 L 4.609375 -0.5 C 4.617188 -0.535156 4.628906 -0.570312 4.632812 -0.601562 C 4.652344 -0.589844 4.671875 -0.585938 4.691406 -0.574219 Z M 0.570312 -0.0820312 L 0.652344 -0.160156 C 0.640625 -0.125 0.632812 -0.0898438 0.628906 -0.0546875 C 0.609375 -0.0664062 0.585938 -0.0742188 0.570312 -0.0820312 Z M 2.242188 1.671875 C 2.351562 1.632812 2.449219 1.574219 2.542969 1.492188 C 2.839844 1.21875 2.921875 0.792969 2.753906 0.425781 L 2.253906 -0.535156 C 2.039062 -0.976562 2.140625 -1.515625 2.503906 -1.84375 C 2.699219 -2.023438 2.949219 -2.117188 3.199219 -2.128906 C 3.09375 -2.089844 2.996094 -2.03125 2.902344 -1.949219 C 2.605469 -1.675781 2.523438 -1.25 2.691406 -0.882812 L 3.191406 0.078125 C 3.40625 0.519531 3.304688 1.058594 2.941406 1.386719 C 2.742188 1.566406 2.492188 1.660156 2.242188 1.671875 Z M 2.242188 1.671875 "/></g></g></g><g fill="#000000" fill-opacity="1"><g transform="translate(48.634742, 107.190794)"><g><path d="M 4.757812 -1.425781 C 5.140625 -1.101562 5.191406 -0.523438 4.867188 -0.140625 C 4.832031 -0.105469 4.84375 -0.046875 4.878906 -0.015625 C 4.914062 0.0117188 4.972656 0.0117188 5.003906 -0.0273438 L 5.648438 -0.789062 C 5.679688 -0.824219 5.671875 -0.886719 5.640625 -0.914062 L 2.976562 -3.167969 C 2.9375 -3.199219 2.878906 -3.1875 2.847656 -3.152344 L 2.203125 -2.390625 C 2.171875 -2.351562 2.175781 -2.300781 2.214844 -2.265625 C 2.253906 -2.234375 2.304688 -2.238281 2.335938 -2.277344 C 2.660156 -2.660156 3.238281 -2.710938 3.621094 -2.386719 L 3.847656 -2.195312 L 1.40625 0.699219 C 1.335938 0.78125 1.207031 0.792969 1.121094 0.71875 C 1.085938 0.691406 1.03125 0.691406 1 0.730469 C 0.964844 0.765625 0.976562 0.824219 1.007812 0.851562 L 2.003906 1.691406 C 2.039062 1.722656 2.09375 1.71875 2.125 1.679688 C 2.15625 1.644531 2.152344 1.589844 2.113281 1.558594 C 2.03125 1.488281 2.023438 1.359375 2.089844 1.28125 L 4.535156 -1.613281 Z M 5.25 -0.597656 C 5.269531 -0.742188 5.257812 -0.894531 5.210938 -1.042969 L 5.453125 -0.835938 Z M 2.722656 -2.730469 L 2.925781 -2.972656 L 3.167969 -2.769531 C 3.019531 -2.789062 2.863281 -2.773438 2.722656 -2.730469 Z M 1.824219 1.316406 L 1.410156 0.964844 L 3.980469 -2.082031 L 4.398438 -1.730469 Z M 1.824219 1.316406 "/></g></g></g><g fill="#000000" fill-opacity="1"><g transform="translate(52.817179, 110.620028)"><g><path d="M 4.300781 -2.492188 C 3.261719 -3.132812 1.902344 -2.804688 1.265625 -1.769531 C 0.625 -0.730469 0.941406 0.632812 1.984375 1.273438 C 3.023438 1.914062 4.386719 1.589844 5.027344 0.546875 C 5.664062 -0.484375 5.339844 -1.851562 4.300781 -2.492188 Z M 4.210938 0.0429688 C 3.621094 1 2.667969 1.484375 2.078125 1.117188 C 1.492188 0.757812 1.488281 -0.3125 2.078125 -1.269531 C 2.660156 -2.21875 3.621094 -2.699219 4.207031 -2.335938 C 4.796875 -1.972656 4.792969 -0.90625 4.210938 0.0429688 Z M 1.410156 -1.679688 C 1.859375 -2.40625 2.707031 -2.75 3.507812 -2.609375 C 2.949219 -2.492188 2.34375 -2.042969 1.925781 -1.363281 C 1.5 -0.675781 1.371094 0.0664062 1.519531 0.617188 C 1.03125 -0.0351562 0.960938 -0.945312 1.410156 -1.679688 Z M 2.777344 1.390625 C 3.335938 1.273438 3.941406 0.824219 4.359375 0.144531 C 4.78125 -0.542969 4.910156 -1.285156 4.761719 -1.835938 C 5.25 -1.183594 5.324219 -0.273438 4.871094 0.460938 C 4.421875 1.1875 3.578125 1.53125 2.777344 1.390625 Z M 2.777344 1.390625 "/></g></g></g><g fill="#000000" fill-opacity="1"><g transform="translate(58.140208, 113.753719)"><g><path d="M 2.574219 -0.214844 L 2.800781 1.128906 C 2.808594 1.160156 2.824219 1.179688 2.855469 1.191406 L 3.644531 1.519531 C 3.644531 1.519531 3.640625 1.527344 3.640625 1.527344 L 3.910156 1.640625 C 3.957031 1.660156 4.007812 1.632812 4.027344 1.585938 C 4.042969 1.542969 4.023438 1.492188 3.980469 1.472656 C 3.863281 1.425781 3.746094 1.261719 3.710938 1.105469 L 3.503906 -0.09375 C 4.03125 -0.191406 4.476562 -0.542969 4.6875 -1.039062 C 5.015625 -1.828125 4.640625 -2.75 3.855469 -3.085938 C 3.847656 -3.085938 3.84375 -3.097656 3.839844 -3.097656 C 3.839844 -3.097656 2.820312 -3.523438 2.820312 -3.523438 L 1.890625 -3.914062 C 1.84375 -3.933594 1.792969 -3.90625 1.773438 -3.859375 C 1.753906 -3.816406 1.773438 -3.765625 1.820312 -3.746094 C 1.921875 -3.703125 1.96875 -3.585938 1.925781 -3.488281 L 0.542969 -0.175781 C 0.503906 -0.078125 0.386719 -0.0273438 0.285156 -0.0703125 C 0.238281 -0.0898438 0.191406 -0.0703125 0.171875 -0.0234375 C 0.152344 0.0234375 0.171875 0.0703125 0.21875 0.0898438 L 1.414062 0.589844 C 1.457031 0.609375 1.511719 0.589844 1.53125 0.546875 C 1.550781 0.5 1.523438 0.449219 1.480469 0.429688 C 1.382812 0.390625 1.332031 0.265625 1.371094 0.171875 L 1.6875 -0.585938 Z M 2.765625 -0.140625 C 2.945312 -0.0859375 3.136719 -0.0664062 3.328125 -0.0742188 L 3.53125 1.113281 C 3.53125 1.117188 3.535156 1.121094 3.535156 1.121094 L 3.5625 1.300781 L 2.964844 1.050781 Z M 4.519531 -1.109375 C 4.328125 -0.644531 3.894531 -0.316406 3.394531 -0.261719 C 3.316406 -0.253906 3.238281 -0.246094 3.167969 -0.25 C 3.167969 -0.253906 3.175781 -0.257812 3.183594 -0.261719 C 3.195312 -0.265625 3.203125 -0.273438 3.210938 -0.277344 C 3.21875 -0.28125 3.230469 -0.289062 3.238281 -0.292969 C 3.25 -0.300781 3.257812 -0.304688 3.269531 -0.316406 C 3.277344 -0.324219 3.292969 -0.332031 3.308594 -0.34375 C 3.316406 -0.347656 3.324219 -0.351562 3.335938 -0.359375 C 3.34375 -0.371094 3.347656 -0.375 3.359375 -0.382812 C 3.367188 -0.394531 3.375 -0.398438 3.386719 -0.40625 C 3.394531 -0.410156 3.398438 -0.414062 3.40625 -0.425781 C 3.648438 -0.632812 3.863281 -0.953125 4.015625 -1.320312 C 4.230469 -1.828125 4.277344 -2.324219 4.171875 -2.671875 C 4.59375 -2.285156 4.75 -1.664062 4.519531 -1.109375 Z M 3.855469 -1.386719 C 3.714844 -1.042969 3.511719 -0.75 3.289062 -0.558594 C 3.289062 -0.558594 3.289062 -0.558594 3.289062 -0.554688 C 3.074219 -0.367188 2.863281 -0.296875 2.707031 -0.355469 C 2.707031 -0.355469 2.703125 -0.355469 2.695312 -0.359375 L 2.683594 -0.363281 L 1.757812 -0.75 L 2.832031 -3.324219 L 3.769531 -2.933594 C 3.777344 -2.929688 3.78125 -2.929688 3.78125 -2.929688 C 3.78125 -2.929688 3.78125 -2.929688 3.789062 -2.925781 C 4.105469 -2.773438 4.140625 -2.066406 3.855469 -1.386719 Z M 2.167969 -3.601562 L 2.671875 -3.390625 L 1.136719 0.285156 L 0.632812 0.078125 Z M 2.167969 -3.601562 "/></g></g></g><g fill="#000000" fill-opacity="1"><g transform="translate(63.660137, 115.940548)"><g><path d="M 2.894531 0.535156 C 2.847656 0.523438 2.800781 0.550781 2.789062 0.597656 C 2.777344 0.644531 2.804688 0.695312 2.851562 0.707031 L 4.175781 1.035156 C 4.21875 1.046875 4.269531 1.011719 4.28125 0.964844 C 4.292969 0.917969 4.261719 0.871094 4.21875 0.859375 C 4.097656 0.832031 3.972656 0.691406 3.957031 0.554688 L 3.308594 -3.582031 L 3.304688 -3.597656 C 3.300781 -3.605469 3.300781 -3.609375 3.296875 -3.617188 C 3.296875 -3.617188 3.296875 -3.617188 3.292969 -3.625 C 3.292969 -3.632812 3.289062 -3.632812 3.285156 -3.640625 C 3.277344 -3.640625 3.277344 -3.640625 3.277344 -3.640625 C 3.28125 -3.648438 3.273438 -3.648438 3.265625 -3.652344 C 3.265625 -3.652344 3.269531 -3.65625 3.261719 -3.660156 C 3.261719 -3.660156 3.261719 -3.660156 3.257812 -3.660156 C 3.25 -3.660156 3.246094 -3.667969 3.242188 -3.671875 C 3.226562 -3.667969 3.222656 -3.667969 3.214844 -3.671875 C 3.214844 -3.671875 3.207031 -3.671875 3.207031 -3.671875 C 3.203125 -3.667969 3.195312 -3.667969 3.1875 -3.664062 C 3.179688 -3.660156 3.175781 -3.660156 3.167969 -3.65625 C 3.167969 -3.65625 3.164062 -3.648438 3.164062 -3.648438 C 3.15625 -3.644531 3.148438 -3.640625 3.148438 -3.636719 L 2.949219 -3.367188 L 2.539062 -2.820312 L 0.644531 -0.261719 C 0.558594 -0.148438 0.390625 -0.0820312 0.269531 -0.113281 C 0.222656 -0.125 0.175781 -0.0976562 0.164062 -0.046875 C 0.152344 0 0.179688 0.0507812 0.226562 0.0625 L 0.785156 0.199219 C 0.835938 0.210938 0.882812 0.179688 0.894531 0.128906 C 0.90625 0.0820312 0.878906 0.0390625 0.828125 0.0273438 C 0.800781 0.0195312 0.765625 0.00390625 0.75 -0.03125 C 0.738281 -0.0664062 0.75 -0.109375 0.785156 -0.15625 L 0.910156 -0.324219 C 1.367188 -0.886719 2.085938 -1.160156 2.789062 -1.042969 L 3.019531 0.390625 C 3.027344 0.453125 3.019531 0.496094 2.992188 0.519531 C 2.960938 0.542969 2.925781 0.542969 2.894531 0.535156 Z M 3.230469 0.617188 L 3.210938 0.472656 L 3.191406 0.363281 L 2.707031 -2.75 L 3.164062 -3.355469 L 3.808594 0.757812 Z M 1.378906 -0.957031 L 2.5625 -2.546875 L 2.765625 -1.226562 C 2.277344 -1.296875 1.792969 -1.191406 1.378906 -0.957031 Z M 1.378906 -0.957031 "/></g></g></g><g fill="#000000" fill-opacity="1"><g transform="translate(69.501763, 117.252056)"><g><path d="M 4.308594 -3.777344 L 4.316406 -3.863281 C 4.324219 -3.910156 4.289062 -3.953125 4.238281 -3.957031 C 4.191406 -3.960938 4.148438 -3.929688 4.144531 -3.878906 L 4.136719 -3.792969 C 4.128906 -3.710938 4.054688 -3.648438 3.976562 -3.65625 C 3.945312 -3.660156 3.914062 -3.667969 3.898438 -3.691406 C 3.890625 -3.691406 3.890625 -3.691406 3.886719 -3.695312 C 3.554688 -3.945312 3.164062 -4.101562 2.761719 -4.136719 C 2.757812 -4.136719 2.757812 -4.136719 2.75 -4.140625 C 2.726562 -4.140625 2.707031 -4.144531 2.683594 -4.144531 C 2.144531 -4.175781 1.585938 -4.015625 1.136719 -3.640625 C 0.199219 -2.863281 0.0664062 -1.460938 0.84375 -0.523438 C 1.226562 -0.0664062 1.765625 0.207031 2.339844 0.261719 C 2.613281 0.285156 2.890625 0.261719 3.164062 0.183594 C 3.453125 0.0976562 3.71875 -0.0390625 3.957031 -0.234375 C 3.960938 -0.242188 3.964844 -0.246094 3.96875 -0.253906 C 3.96875 -0.253906 3.96875 -0.257812 3.976562 -0.257812 C 3.976562 -0.257812 3.976562 -0.265625 3.976562 -0.265625 C 3.976562 -0.269531 3.984375 -0.269531 3.984375 -0.277344 C 3.984375 -0.277344 3.984375 -0.277344 3.984375 -0.28125 C 3.984375 -0.289062 3.988281 -0.296875 3.988281 -0.296875 L 4.125 -1.796875 C 4.128906 -1.839844 4.097656 -1.886719 4.046875 -1.890625 L 3.042969 -1.984375 C 2.992188 -1.988281 2.949219 -1.949219 2.945312 -1.90625 C 2.941406 -1.855469 2.976562 -1.808594 3.023438 -1.804688 C 3.136719 -1.792969 3.214844 -1.699219 3.203125 -1.589844 L 3.054688 0.0273438 C 2.824219 0.0898438 2.585938 0.105469 2.359375 0.0820312 C 1.667969 0.0195312 1.195312 -0.941406 1.296875 -2.050781 C 1.402344 -3.144531 2.015625 -3.984375 2.683594 -3.964844 C 3.214844 -3.925781 3.742188 -3.679688 4.109375 -3.234375 C 4.109375 -3.234375 4.117188 -3.226562 4.121094 -3.226562 C 4.121094 -3.226562 4.121094 -3.222656 4.121094 -3.222656 C 4.128906 -3.21875 4.132812 -3.21875 4.140625 -3.214844 C 4.144531 -3.210938 4.15625 -3.203125 4.167969 -3.203125 C 4.21875 -3.199219 4.261719 -3.238281 4.265625 -3.289062 C 4.265625 -3.289062 4.308594 -3.777344 4.308594 -3.777344 Z M 4.109375 -3.503906 C 4.105469 -3.503906 4.105469 -3.503906 4.105469 -3.503906 C 4.105469 -3.503906 4.105469 -3.503906 4.109375 -3.503906 Z M 3.816406 -0.355469 C 3.804688 -0.34375 3.789062 -0.332031 3.777344 -0.320312 C 3.769531 -0.316406 3.761719 -0.308594 3.757812 -0.304688 C 3.730469 -0.289062 3.703125 -0.265625 3.675781 -0.25 C 3.671875 -0.25 3.671875 -0.242188 3.664062 -0.246094 C 3.644531 -0.226562 3.617188 -0.210938 3.597656 -0.199219 C 3.585938 -0.195312 3.578125 -0.191406 3.570312 -0.183594 C 3.550781 -0.175781 3.53125 -0.164062 3.511719 -0.152344 C 3.503906 -0.148438 3.492188 -0.140625 3.484375 -0.136719 C 3.464844 -0.125 3.441406 -0.117188 3.421875 -0.105469 C 3.414062 -0.0976562 3.40625 -0.101562 3.402344 -0.09375 C 3.367188 -0.078125 3.34375 -0.0703125 3.308594 -0.0546875 C 3.304688 -0.0546875 3.304688 -0.0546875 3.296875 -0.046875 C 3.277344 -0.0429688 3.257812 -0.03125 3.238281 -0.0273438 L 3.382812 -1.570312 L 3.402344 -1.769531 L 3.945312 -1.71875 Z M 1.121094 -2.074219 C 1.046875 -1.273438 1.257812 -0.542969 1.636719 -0.121094 C 1.386719 -0.246094 1.164062 -0.421875 0.980469 -0.644531 C 0.265625 -1.5 0.382812 -2.789062 1.246094 -3.5 C 1.46875 -3.691406 1.722656 -3.816406 1.988281 -3.890625 C 1.535156 -3.542969 1.195312 -2.871094 1.121094 -2.074219 Z M 1.121094 -2.074219 "/></g></g></g><g fill="#000000" fill-opacity="1"><g transform="translate(74.997231, 117.651341)"><g><path d="M 2.238281 -4.261719 C 2.738281 -4.285156 3.167969 -3.894531 3.1875 -3.390625 C 3.191406 -3.34375 3.230469 -3.304688 3.277344 -3.308594 C 3.328125 -3.3125 3.363281 -3.347656 3.363281 -3.398438 L 3.316406 -4.394531 C 3.316406 -4.445312 3.277344 -4.488281 3.226562 -4.484375 L 0.0429688 -4.34375 C -0.00390625 -4.34375 -0.0390625 -4.296875 -0.0390625 -4.25 C -0.0351562 -4.199219 0.00390625 -4.164062 0.0507812 -4.164062 C 0.164062 -4.171875 0.253906 -4.082031 0.257812 -3.976562 L 0.417969 -0.390625 C 0.421875 -0.285156 0.339844 -0.1875 0.226562 -0.183594 C 0.179688 -0.179688 0.144531 -0.144531 0.144531 -0.09375 C 0.148438 -0.0429688 0.1875 -0.00390625 0.234375 -0.00390625 L 3.417969 -0.144531 C 3.46875 -0.148438 3.503906 -0.191406 3.5 -0.242188 L 3.457031 -1.238281 C 3.453125 -1.289062 3.414062 -1.324219 3.367188 -1.320312 C 3.316406 -1.320312 3.28125 -1.28125 3.285156 -1.230469 C 3.304688 -0.730469 2.914062 -0.300781 2.414062 -0.28125 L 1.324219 -0.230469 L 1.238281 -2.140625 L 1.828125 -2.164062 C 1.9375 -2.171875 2.03125 -2.085938 2.035156 -1.976562 C 2.035156 -1.925781 2.074219 -1.882812 2.125 -1.886719 C 2.175781 -1.890625 2.214844 -1.933594 2.214844 -1.984375 L 2.1875 -2.558594 C 2.1875 -2.609375 2.140625 -2.644531 2.09375 -2.640625 C 2.042969 -2.640625 2.007812 -2.601562 2.007812 -2.550781 C 2.015625 -2.441406 1.929688 -2.347656 1.820312 -2.34375 L 1.230469 -2.320312 L 1.148438 -4.214844 Z M 3.160156 -3.984375 C 3.070312 -4.105469 2.960938 -4.210938 2.832031 -4.289062 L 3.148438 -4.300781 Z M 0.429688 -4.183594 L 0.96875 -4.207031 C 0.96875 -4.207031 1.054688 -2.21875 1.054688 -2.21875 L 1.144531 -0.222656 L 0.605469 -0.199219 Z M 3.308594 -0.636719 L 3.324219 -0.320312 L 3.007812 -0.304688 C 3.128906 -0.390625 3.226562 -0.507812 3.308594 -0.636719 Z M 3.308594 -0.636719 "/></g></g></g><g fill="#000000" fill-opacity="1"><g transform="translate(80.015509, 117.31419)"><g/></g></g><g fill="#000000" fill-opacity="1"><g transform="translate(83.591197, 116.739837)"><g><path d="M 2.363281 -1.703125 L 2.738281 -4.863281 C 2.75 -5.003906 2.871094 -5.148438 2.992188 -5.183594 C 3.03125 -5.195312 3.0625 -5.242188 3.050781 -5.289062 C 3.035156 -5.335938 2.984375 -5.367188 2.941406 -5.355469 C 2.933594 -5.351562 2.660156 -5.273438 2.660156 -5.273438 L 2.386719 -5.195312 C 2.339844 -5.183594 2.308594 -5.128906 2.324219 -5.082031 C 2.335938 -5.035156 2.390625 -5.007812 2.4375 -5.023438 C 2.460938 -5.03125 2.503906 -5.035156 2.53125 -5.011719 C 2.558594 -4.988281 2.570312 -4.945312 2.558594 -4.890625 L 2.210938 -1.933594 L 0.347656 -4.25 C 0.316406 -4.300781 0.304688 -4.34375 0.3125 -4.378906 C 0.324219 -4.410156 0.355469 -4.429688 0.386719 -4.4375 C 0.433594 -4.449219 0.460938 -4.496094 0.445312 -4.542969 C 0.433594 -4.589844 0.386719 -4.625 0.335938 -4.609375 L 0.0625 -4.53125 L -0.695312 -4.3125 L -0.96875 -4.234375 C -1.015625 -4.222656 -1.039062 -4.171875 -1.023438 -4.121094 C -1.011719 -4.074219 -0.964844 -4.050781 -0.917969 -4.0625 C -0.800781 -4.097656 -0.625 -4.035156 -0.539062 -3.925781 L 1.488281 -1.394531 L 1.644531 -0.855469 C 1.675781 -0.75 1.613281 -0.644531 1.507812 -0.613281 C 1.460938 -0.597656 1.433594 -0.550781 1.449219 -0.503906 C 1.460938 -0.457031 1.507812 -0.425781 1.558594 -0.4375 L 1.832031 -0.519531 C 1.832031 -0.519531 1.832031 -0.519531 1.835938 -0.519531 L 2.527344 -0.71875 L 2.800781 -0.796875 C 2.851562 -0.808594 2.878906 -0.863281 2.867188 -0.910156 C 2.851562 -0.957031 2.800781 -0.980469 2.753906 -0.96875 C 2.652344 -0.941406 2.535156 -1.003906 2.507812 -1.105469 L 2.355469 -1.640625 Z M 1.816406 -0.90625 C 1.816406 -0.90625 1.65625 -1.460938 1.65625 -1.460938 C 1.65625 -1.46875 1.65625 -1.472656 1.648438 -1.476562 C 1.648438 -1.476562 1.644531 -1.484375 1.644531 -1.488281 L -0.402344 -4.035156 L -0.511719 -4.179688 L 0.0546875 -4.339844 L 2.179688 -1.683594 L 2.179688 -1.640625 C 2.171875 -1.640625 2.175781 -1.636719 2.175781 -1.628906 C 2.179688 -1.621094 2.179688 -1.617188 2.183594 -1.609375 L 2.394531 -0.867188 L 1.871094 -0.714844 Z M 1.816406 -0.90625 "/></g></g></g><g fill="#000000" fill-opacity="1"><g transform="translate(89.334991, 114.983639)"><g><path d="M 0.285156 -4.960938 C -0.820312 -4.445312 -1.292969 -3.128906 -0.78125 -2.027344 C -0.265625 -0.921875 1.046875 -0.441406 2.152344 -0.957031 C 3.261719 -1.472656 3.738281 -2.789062 3.222656 -3.894531 C 2.710938 -4.996094 1.394531 -5.476562 0.285156 -4.960938 Z M 2.351562 -3.488281 C 2.828125 -2.472656 2.707031 -1.410156 2.078125 -1.117188 C 1.453125 -0.828125 0.558594 -1.414062 0.0820312 -2.433594 C -0.386719 -3.445312 -0.261719 -4.507812 0.363281 -4.796875 C 0.992188 -5.089844 1.882812 -4.5 2.351562 -3.488281 Z M -0.625 -2.101562 C -0.984375 -2.878906 -0.808594 -3.773438 -0.25 -4.363281 C -0.460938 -3.832031 -0.417969 -3.082031 -0.078125 -2.355469 C 0.261719 -1.625 0.808594 -1.109375 1.351562 -0.929688 C 0.539062 -0.878906 -0.261719 -1.320312 -0.625 -2.101562 Z M 2.6875 -1.554688 C 2.898438 -2.082031 2.855469 -2.835938 2.519531 -3.558594 C 2.179688 -4.289062 1.628906 -4.808594 1.089844 -4.984375 C 1.898438 -5.035156 2.699219 -4.59375 3.0625 -3.8125 C 3.425781 -3.039062 3.246094 -2.144531 2.6875 -1.554688 Z M 2.6875 -1.554688 "/></g></g></g><g fill="#000000" fill-opacity="1"><g transform="translate(94.866354, 112.259623)"><g><path d="M 0.820312 -5.757812 L 0.339844 -5.4375 C 0.296875 -5.410156 0.292969 -5.355469 0.320312 -5.3125 C 0.347656 -5.273438 0.398438 -5.261719 0.441406 -5.289062 C 0.53125 -5.351562 0.65625 -5.320312 0.714844 -5.234375 L 2.039062 -3.246094 C 2.476562 -2.585938 2.296875 -1.695312 1.636719 -1.253906 C 1.308594 -1.035156 0.667969 -1.398438 0.238281 -2.050781 L -1.085938 -4.035156 C -1.144531 -4.121094 -1.117188 -4.25 -1.03125 -4.308594 C -0.988281 -4.335938 -0.972656 -4.394531 -1 -4.433594 C -1.027344 -4.476562 -1.089844 -4.488281 -1.128906 -4.460938 L -1.367188 -4.300781 C -1.367188 -4.300781 -1.363281 -4.296875 -1.363281 -4.296875 L -1.960938 -3.898438 C -1.96875 -3.894531 -1.972656 -3.898438 -1.972656 -3.898438 L -2.207031 -3.742188 C -2.25 -3.714844 -2.257812 -3.65625 -2.230469 -3.617188 C -2.203125 -3.574219 -2.148438 -3.566406 -2.109375 -3.59375 C -2.015625 -3.652344 -1.890625 -3.625 -1.832031 -3.535156 L -0.511719 -1.550781 C -0.015625 -0.808594 0.988281 -0.605469 1.738281 -1.105469 C 2.480469 -1.597656 2.679688 -2.605469 2.1875 -3.347656 L 0.863281 -5.332031 C 0.804688 -5.421875 0.832031 -5.550781 0.917969 -5.609375 C 0.960938 -5.636719 0.976562 -5.691406 0.949219 -5.730469 C 0.921875 -5.773438 0.859375 -5.785156 0.820312 -5.757812 Z M -0.363281 -1.652344 L -1.792969 -3.800781 L -1.339844 -4.105469 L 0.09375 -1.953125 C 0.410156 -1.476562 0.8125 -1.152344 1.171875 -1.046875 C 0.597656 -0.914062 -0.0195312 -1.132812 -0.363281 -1.652344 Z M -0.363281 -1.652344 "/></g></g></g><g fill="#000000" fill-opacity="1"><g transform="translate(99.35703, 109.105922)"><g/></g></g><g fill="#000000" fill-opacity="1"><g transform="translate(102.094966, 106.748404)"><g><path d="M -0.453125 -5.898438 L -0.84375 -5.476562 C -0.878906 -5.4375 -0.871094 -5.382812 -0.835938 -5.347656 C -0.800781 -5.316406 -0.746094 -5.316406 -0.714844 -5.355469 C -0.636719 -5.4375 -0.511719 -5.4375 -0.433594 -5.363281 C -0.433594 -5.363281 -0.429688 -5.359375 -0.429688 -5.359375 L 1.863281 -3.238281 L -2.167969 -3.980469 C -2.195312 -3.988281 -2.226562 -3.972656 -2.246094 -3.953125 C -2.246094 -3.953125 -2.828125 -3.324219 -2.828125 -3.324219 L -3.019531 -3.113281 C -3.054688 -3.078125 -3.050781 -3.027344 -3.015625 -2.992188 C -2.980469 -2.957031 -2.925781 -2.960938 -2.894531 -2.996094 C -2.851562 -3.042969 -2.785156 -3.074219 -2.707031 -3.097656 L 0.0234375 -0.570312 C 0.0976562 -0.5 0.109375 -0.371094 0.03125 -0.289062 C 0 -0.253906 0 -0.203125 0.0390625 -0.167969 C 0.0742188 -0.132812 0.128906 -0.132812 0.164062 -0.167969 L 0.554688 -0.59375 C 0.589844 -0.628906 0.582031 -0.683594 0.546875 -0.71875 C 0.511719 -0.753906 0.457031 -0.75 0.425781 -0.714844 C 0.347656 -0.632812 0.222656 -0.632812 0.144531 -0.703125 L -2.472656 -3.121094 C -2.464844 -3.121094 -2.457031 -3.125 -2.441406 -3.121094 L 2.0625 -2.285156 C 2.09375 -2.285156 2.125 -2.289062 2.144531 -2.3125 L 2.539062 -2.734375 C 2.570312 -2.773438 2.570312 -2.832031 2.53125 -2.867188 L -0.3125 -5.496094 C -0.394531 -5.574219 -0.398438 -5.695312 -0.324219 -5.777344 C -0.289062 -5.8125 -0.289062 -5.867188 -0.328125 -5.898438 C -0.363281 -5.933594 -0.421875 -5.933594 -0.453125 -5.898438 Z M -2.410156 -3.292969 L -2.421875 -3.296875 L -2.589844 -3.324219 L -2.152344 -3.796875 L 2.109375 -3.011719 L 2.347656 -2.792969 L 2.046875 -2.46875 Z M -2.410156 -3.292969 "/></g></g></g><g fill="#000000" fill-opacity="1"><g transform="translate(105.868343, 102.492464)"><g><path d="M -2.03125 -4.363281 C -1.746094 -4.777344 -1.175781 -4.878906 -0.765625 -4.589844 C -0.722656 -4.5625 -0.671875 -4.574219 -0.644531 -4.613281 C -0.617188 -4.652344 -0.625 -4.707031 -0.664062 -4.734375 L -1.484375 -5.304688 C -1.527344 -5.332031 -1.582031 -5.324219 -1.609375 -5.285156 L -3.429688 -2.667969 C -3.457031 -2.628906 -3.441406 -2.574219 -3.402344 -2.542969 C -3.359375 -2.515625 -3.308594 -2.527344 -3.28125 -2.566406 C -3.21875 -2.65625 -3.089844 -2.675781 -3.003906 -2.617188 L -0.0585938 -0.570312 C 0.0273438 -0.507812 0.0546875 -0.382812 -0.0078125 -0.292969 C -0.0351562 -0.25 -0.0273438 -0.199219 0.0117188 -0.171875 C 0.0546875 -0.144531 0.109375 -0.148438 0.140625 -0.191406 L 1.957031 -2.804688 C 1.984375 -2.847656 1.972656 -2.902344 1.929688 -2.929688 L 1.109375 -3.5 C 1.070312 -3.527344 1.019531 -3.519531 0.988281 -3.476562 C 0.960938 -3.4375 0.972656 -3.386719 1.011719 -3.355469 C 1.425781 -3.070312 1.527344 -2.5 1.238281 -2.089844 L 0.617188 -1.195312 L -0.949219 -2.28125 L -0.613281 -2.765625 C -0.550781 -2.859375 -0.429688 -2.878906 -0.339844 -2.816406 C -0.296875 -2.789062 -0.242188 -2.792969 -0.210938 -2.835938 C -0.183594 -2.875 -0.195312 -2.933594 -0.234375 -2.964844 L -0.707031 -3.292969 C -0.75 -3.320312 -0.804688 -3.304688 -0.832031 -3.265625 C -0.863281 -3.226562 -0.851562 -3.171875 -0.8125 -3.144531 C -0.71875 -3.082031 -0.699219 -2.960938 -0.761719 -2.867188 L -1.097656 -2.386719 L -2.65625 -3.46875 Z M -1.253906 -4.929688 C -1.40625 -4.929688 -1.554688 -4.90625 -1.691406 -4.851562 L -1.511719 -5.113281 Z M -3.066406 -2.875 L -2.757812 -3.320312 C -2.757812 -3.320312 -1.125 -2.183594 -1.125 -2.183594 L 0.515625 -1.046875 L 0.207031 -0.601562 Z M 1.5 -3.019531 L 1.761719 -2.835938 L 1.578125 -2.578125 C 1.585938 -2.726562 1.550781 -2.875 1.5 -3.019531 Z M 1.5 -3.019531 "/></g></g></g><g fill="#000000" fill-opacity="1"><g transform="translate(108.685841, 98.27606)"><g><path d="M -2.585938 -4.058594 C -2.355469 -4.507812 -1.804688 -4.683594 -1.359375 -4.453125 C -1.3125 -4.429688 -1.261719 -4.445312 -1.242188 -4.488281 C -1.21875 -4.535156 -1.234375 -4.582031 -1.277344 -4.605469 L -2.164062 -5.0625 C -2.210938 -5.085938 -2.265625 -5.074219 -2.289062 -5.03125 L -3.746094 -2.199219 C -3.769531 -2.152344 -3.75 -2.101562 -3.703125 -2.078125 C -3.660156 -2.054688 -3.609375 -2.070312 -3.589844 -2.117188 C -3.535156 -2.214844 -3.414062 -2.25 -3.320312 -2.203125 L -0.132812 -0.554688 C -0.0390625 -0.507812 0.00390625 -0.386719 -0.046875 -0.289062 C -0.0703125 -0.246094 -0.0546875 -0.195312 -0.0078125 -0.171875 C 0.0351562 -0.148438 0.0898438 -0.164062 0.113281 -0.207031 L 1.574219 -3.039062 C 1.597656 -3.082031 1.574219 -3.136719 1.53125 -3.15625 L 0.644531 -3.613281 C 0.601562 -3.636719 0.550781 -3.621094 0.527344 -3.578125 C 0.503906 -3.535156 0.519531 -3.484375 0.566406 -3.460938 C 1.011719 -3.230469 1.1875 -2.679688 0.957031 -2.234375 L 0.457031 -1.265625 L -1.238281 -2.140625 L -0.96875 -2.664062 C -0.917969 -2.761719 -0.800781 -2.796875 -0.703125 -2.746094 C -0.660156 -2.726562 -0.601562 -2.738281 -0.582031 -2.78125 C -0.558594 -2.828125 -0.578125 -2.882812 -0.621094 -2.90625 L -1.132812 -3.171875 C -1.175781 -3.195312 -1.230469 -3.171875 -1.253906 -3.128906 C -1.273438 -3.085938 -1.257812 -3.035156 -1.214844 -3.011719 C -1.117188 -2.960938 -1.078125 -2.84375 -1.128906 -2.746094 L -1.398438 -2.222656 L -3.085938 -3.089844 Z M -1.886719 -4.726562 C -2.035156 -4.703125 -2.183594 -4.664062 -2.3125 -4.589844 L -2.167969 -4.871094 Z M -3.414062 -2.453125 L -3.167969 -2.929688 C -3.167969 -2.929688 -1.398438 -2.019531 -1.398438 -2.019531 L 0.375 -1.105469 L 0.128906 -0.625 Z M 1.09375 -3.1875 L 1.375 -3.042969 L 1.230469 -2.761719 C 1.214844 -2.910156 1.164062 -3.054688 1.09375 -3.1875 Z M 1.09375 -3.1875 "/></g></g></g><g fill="#000000" fill-opacity="1"><g transform="translate(110.955926, 93.716327)"><g><path d="M -3.398438 -3.414062 L -3.683594 -2.601562 L -4.015625 -1.644531 C -4.03125 -1.597656 -4.007812 -1.550781 -3.960938 -1.535156 C -3.914062 -1.519531 -3.867188 -1.542969 -3.851562 -1.589844 C -3.8125 -1.695312 -3.699219 -1.746094 -3.597656 -1.710938 L -0.207031 -0.53125 C -0.109375 -0.496094 -0.0507812 -0.386719 -0.0859375 -0.28125 C -0.101562 -0.234375 -0.078125 -0.183594 -0.03125 -0.167969 C 0.015625 -0.152344 0.0664062 -0.171875 0.0820312 -0.21875 L 0.699219 -1.988281 C 1.089844 -3.117188 0.492188 -4.355469 -0.636719 -4.75 C -1.765625 -5.144531 -3.007812 -4.542969 -3.398438 -3.414062 Z M 0.527344 -2.046875 L 0.273438 -1.316406 L -3.488281 -2.625 L -3.234375 -3.355469 C -3.003906 -4.019531 -1.976562 -4.265625 -0.933594 -3.902344 C 0.101562 -3.539062 0.757812 -2.707031 0.527344 -2.046875 Z M -3.726562 -1.945312 L -3.550781 -2.457031 L 0.214844 -1.144531 L 0.0390625 -0.636719 Z M 0.632812 -2.816406 C 0.40625 -3.332031 -0.148438 -3.8125 -0.875 -4.066406 C -1.605469 -4.320312 -2.339844 -4.285156 -2.839844 -4.027344 C -2.320312 -4.609375 -1.480469 -4.851562 -0.695312 -4.582031 C 0.0820312 -4.308594 0.589844 -3.59375 0.632812 -2.816406 Z M 0.632812 -2.816406 "/></g></g></g><g fill="#000000" fill-opacity="1"><g transform="translate(112.721585, 88.178221)"><g/></g></g></svg>