<svg xmlns="http://www.w3.org/2000/svg" xmlns:xlink="http://www.w3.org/1999/xlink" width="500" zoomAndPan="magnify" viewBox="0 0 375 374.999991" height="500" preserveAspectRatio="xMidYMid meet" version="1.0"><defs><g/><clipPath id="id1"><path d="M 112.5 111.75 L 262.5 111.75 L 262.5 261.75 L 112.5 261.75 Z M 112.5 111.75 " clip-rule="nonzero"/></clipPath></defs><g clip-path="url(#id1)"><path fill="#f8f9f8" d="M 187.507812 261.765625 C 228.925781 261.765625 262.503906 228.183594 262.503906 186.765625 C 262.503906 145.34375 228.925781 111.765625 187.507812 111.765625 C 146.085938 111.765625 112.507812 145.34375 112.507812 186.765625 C 112.507812 228.183594 146.085938 261.765625 187.507812 261.765625 " fill-opacity="1" fill-rule="evenodd"/></g><path stroke-linecap="round" transform="matrix(-0.0353357, 0, 0, -0.0353357, 262.747341, 261.926642)" fill="none" stroke-linejoin="round" d="M 1851.363888 726.096266 C 1850.147873 757.270486 1848.268576 814.975957 1851.363888 878.9826 C 1854.348654 942.989244 1862.30803 1013.407606 1878.337327 1075.313859 C 1894.477172 1137.220111 1918.686938 1190.614254 1943.007252 1226.984178 C 1967.217018 1263.354101 1991.537332 1282.810352 2015.194364 1297.734181 C 2038.851397 1312.547463 2061.955694 1322.938869 2085.612727 1326.47637 C 2109.269759 1330.124417 2133.479526 1327.139651 2158.13148 1317.079885 C 2182.672887 1307.130666 2207.545935 1290.106446 2244.026405 1277.393555 C 2280.396329 1264.570117 2328.373675 1256.168554 2390.832662 1254.289257 C 2453.402196 1252.40996 2530.453371 1257.38457 2599.324077 1278.27793 C 2668.194783 1299.17129 2728.88502 1336.204495 2773.54596 1380.202153 C 2818.096352 1424.199811 2846.617447 1475.161923 2865.520963 1519.270128 C 2884.203386 1563.157239 2893.378777 1600.190444 2891.16784 1612.01896 C 2889.177996 1623.958023 2875.801823 1610.581851 2849.933853 1586.261537 C 2824.17643 1561.941224 2785.92721 1526.787316 2738.281505 1496.16583 C 2690.6358 1465.544344 2633.59361 1439.455281 2567.486576 1424.531452 C 2501.379541 1409.71817 2426.097116 1406.070123 2370.492036 1406.622857 C 2314.997502 1407.175592 2279.180313 1412.150201 2245.463515 1408.391608 C 2211.857263 1404.854107 2180.240856 1392.693951 2164.764293 1379.649419 C 2149.287729 1366.604887 2149.951011 1352.565433 2126.846713 1342.616214 C 2103.852962 1332.556448 2057.091632 1326.47637 2044.931475 1338.636526 C 2032.771318 1350.796683 2055.212335 1381.086528 2081.080305 1410.602545 C 2106.837728 1440.008015 2136.022104 1468.52911 2161.779527 1493.070517 C 2187.53695 1517.722472 2210.088513 1538.284191 2236.730311 1554.092395 C 2263.482656 1569.900599 2294.325236 1580.734193 2322.293596 1578.965443 C 2350.15141 1577.196693 2375.024458 1562.604505 2407.525241 1557.740442 C 2440.026023 1552.876379 2480.043994 1557.740442 2513.097511 1564.373255 C 2546.261575 1571.116615 2572.350638 1579.628724 2598.108061 1595.989663 C 2623.865484 1612.350601 2649.401814 1636.670914 2670.295174 1659.111931 C 2691.299081 1681.552947 2707.660019 1702.225214 2733.417442 1726.434981 C 2759.174865 1750.755294 2794.43932 1778.613108 2822.07604 1809.897875 C 2849.71276 1841.182642 2869.721745 1875.783815 2879.339323 1905.74202 C 2889.177996 1935.810771 2888.514714 1961.3471 2883.319011 1973.175616 C 2878.233855 1985.004132 2868.505729 1983.124836 2855.129557 1974.059991 C 2841.753384 1964.995147 2824.729165 1948.634209 2796.318617 1927.077567 C 2767.686975 1905.520926 2727.669004 1878.768581 2683.008065 1853.895533 C 2638.457672 1829.022485 2589.264311 1806.028734 2548.361965 1791.98928 C 2507.349073 1778.060374 2474.627197 1773.196311 2449.422508 1764.131467 C 2424.217819 1754.956076 2406.640866 1741.69045 2390.832662 1721.902559 C 2375.024458 1702.225214 2361.095551 1676.13615 2347.498285 1657.232634 C 2333.790472 1638.439664 2320.414299 1626.942789 2307.369767 1616.551382 C 2294.325236 1606.270522 2281.612345 1597.205678 2262.156094 1587.477553 C 2242.81039 1577.749427 2216.721326 1567.468568 2190.853356 1548.896692 C 2165.095933 1530.435363 2139.559604 1503.683018 2143.539292 1511.642393 C 2147.518979 1519.491222 2180.904137 1561.941224 2210.309607 1604.501772 C 2239.715077 1646.951774 2265.251406 1689.401776 2290.677189 1727.650996 C 2316.213518 1765.900217 2341.749847 1799.838109 2362.311567 1828.469751 C 2382.983833 1856.990846 2398.792037 1879.984597 2417.253366 1894.908425 C 2435.825242 1909.721707 2457.050243 1916.35452 2474.295556 1929.730693 C 2491.651416 1943.106865 2504.917042 1963.11585 2519.84087 1986.551789 C 2534.654152 2009.87718 2551.125637 2036.518978 2567.818216 2051.111167 C 2584.400248 2065.703355 2601.424468 2068.135386 2623.644391 2062.055308 C 2645.753766 2055.975229 2673.058846 2041.493588 2720.04127 2042.930697 C 2767.13424 2044.478354 2833.904556 2062.055308 2886.082683 2087.591637 C 2938.26081 2113.017419 2975.846749 2146.402577 3001.383079 2187.74711 C 3026.919408 2228.981096 3040.185034 2278.174458 3040.848315 2322.39321 C 3041.401049 2366.722508 3029.351439 2406.187744 3022.386986 2408.951416 C 3015.311986 2411.604542 3013.543235 2377.666649 2998.619407 2345.165867 C 2983.806125 2312.665084 2955.948311 2281.711958 2924.000263 2255.4018 C 2892.162762 2228.981096 2856.345572 2207.092814 2819.312368 2191.28461 C 2782.279163 2175.586953 2744.029943 2165.858828 2713.076816 2160.663124 C 2682.234237 2155.577968 2658.466658 2154.914687 2639.673688 2147.065858 C 2620.880719 2139.106483 2606.951812 2123.96156 2594.128374 2110.917029 C 2581.415482 2097.872497 2569.918607 2086.928356 2556.874075 2072.336167 C 2543.829543 2057.854526 2529.237355 2039.614291 2521.941261 2038.95101 C 2514.645167 2038.398275 2514.645167 2055.422495 2519.177589 2078.747887 C 2523.820558 2102.073278 2532.885402 2131.920936 2552.562747 2157.346718 C 2572.350638 2182.883047 2602.640483 2204.108048 2634.477985 2225.333049 C 2666.426033 2246.55805 2699.811191 2267.783051 2718.60416 2300.615474 C 2737.39713 2333.337351 2741.597911 2377.666649 2728.553379 2442.889308 C 2715.508848 2508.111968 2685.219003 2594.338534 2654.265876 2651.601818 C 2623.31275 2708.975648 2591.696342 2737.496743 2564.50181 2765.133463 C 2537.196731 2792.770183 2514.092433 2819.411981 2503.479932 2819.743622 C 2492.867432 2820.075262 2494.636182 2793.986199 2501.379541 2766.349479 C 2508.012354 2738.712759 2519.50923 2709.638929 2525.920949 2678.685803 C 2532.222121 2647.732677 2533.438137 2614.900253 2527.468605 2572.118611 C 2521.27798 2529.336968 2508.012354 2476.606107 2505.580323 2428.29712 C 2503.148292 2380.098681 2511.660401 2336.322116 2516.745558 2305.479537 C 2521.941261 2274.526411 2523.820558 2256.286175 2525.920949 2238.04594 C 2528.02134 2219.805705 2530.453371 2201.676017 2528.905715 2181.667032 C 2527.468605 2161.547499 2521.941261 2139.769764 2515.640089 2116.665466 C 2509.22837 2093.671715 2501.932276 2069.351402 2497.289307 2047.79476 C 2492.867432 2026.238119 2490.988135 2007.445149 2484.023681 1991.084211 C 2477.059228 1974.723273 2464.899071 1960.683819 2450.638524 1948.634209 C 2436.377976 1936.474052 2420.017038 1926.082646 2410.620553 1927.077567 C 2401.224068 1927.961943 2398.792037 1940.122099 2404.872115 1971.075226 C 2410.952194 2002.028352 2425.433835 2051.774448 2430.961179 2106.937341 C 2436.377976 2162.210781 2432.729929 2222.901018 2429.413523 2271.099457 C 2426.097116 2319.408444 2423.001804 2355.225633 2431.513913 2388.831884 C 2440.026023 2422.548683 2460.035008 2454.054543 2485.902978 2488.102982 C 2511.660401 2522.151421 2543.166262 2558.521345 2583.515873 2588.590096 C 2623.865484 2618.5483 2673.058846 2642.31588 2719.156895 2664.425256 C 2765.36549 2686.534632 2808.368227 2707.206898 2849.71276 2719.035414 C 2890.946746 2730.86393 2930.411982 2733.959243 2937.376435 2741.476431 C 2944.340889 2749.104165 2918.80456 2761.264322 2881.550261 2767.233854 C 2844.185416 2773.313932 2794.992054 2773.313932 2744.693224 2763.585807 C 2694.283847 2753.857681 2642.769001 2734.511977 2596.892046 2709.97057 C 2551.125637 2685.318616 2510.99712 2655.581505 2484.908056 2623.080723 C 2458.818993 2590.690487 2446.769383 2555.426032 2441.57368 2527.568218 C 2436.377976 2499.599858 2438.257273 2479.038138 2437.041257 2462.345559 C 2435.825242 2445.65298 2431.513913 2432.940089 2426.097116 2421.001026 C 2420.569772 2409.17251 2413.93696 2398.228369 2409.736178 2401.876416 C 2405.42485 2405.63501 2403.545553 2423.764698 2397.797115 2446.537356 C 2392.048677 2469.310013 2382.320552 2496.615092 2382.652193 2525.136187 C 2382.983833 2553.657282 2393.264693 2583.394393 2417.585007 2620.980332 C 2441.794773 2658.676818 2480.043994 2704.111585 2512.876417 2739.597134 C 2545.598293 2775.193229 2572.903373 2800.619011 2603.856499 2832.456513 C 2634.809625 2864.404561 2669.410799 2902.653781 2705.227988 2930.511595 C 2741.045177 2958.479956 2778.078382 2976.05691 2814.779946 2988.43816 C 2851.48151 3000.929958 2887.851433 3008.226052 2891.831121 3018.506911 C 2895.810809 3028.787771 2867.289714 3042.163944 2824.17643 3043.7116 C 2781.063147 3045.259256 2723.468223 3034.86785 2683.450252 3016.959255 C 2643.321735 2999.050661 2620.880719 2973.624878 2602.972124 2960.248706 C 2585.063529 2946.872533 2571.687357 2945.656518 2549.799075 2943.003393 C 2528.02134 2940.239721 2497.620948 2935.928392 2469.763134 2919.567454 C 2441.794773 2903.206516 2416.368991 2874.685421 2400.008053 2844.063935 C 2383.647115 2813.44245 2376.240474 2780.610026 2374.803364 2752.420572 C 2373.255708 2724.231118 2377.456489 2700.463538 2380.551802 2682.665491 C 2383.647115 2664.646349 2385.415865 2652.596739 2386.63188 2640.436583 C 2387.847896 2628.276426 2388.40063 2616.116269 2385.084224 2602.519003 C 2381.767818 2588.81119 2374.471724 2573.666267 2369.939301 2565.817439 C 2365.406879 2557.858063 2363.527582 2557.305329 2356.342035 2571.565877 C 2348.935394 2585.826424 2336.222503 2614.900253 2318.645549 2646.18502 C 2301.068595 2677.469787 2278.627579 2710.854945 2258.839687 2742.360806 C 2239.162343 2773.977213 2222.138123 2803.714324 2209.646326 2827.039716 C 2197.265075 2850.365107 2189.416247 2867.389327 2190.632262 2882.534249 C 2191.848278 2897.679172 2202.129138 2911.055344 2218.490076 2929.62722 C 2234.961561 2948.088549 2257.292031 2971.745581 2272.768594 3001.482692 C 2288.245157 3031.219803 2296.757267 3067.036992 2297.420548 3108.602619 C 2297.973283 3150.168245 2290.677189 3197.592857 2294.656876 3236.394812 C 2298.636564 3275.196766 2313.781487 3305.597158 2329.25805 3330.470206 C 2344.734613 3355.343254 2360.542817 3374.799505 2372.924067 3392.044818 C 2385.415865 3409.290131 2394.480709 3424.545601 2386.63188 3424.766695 C 2378.672505 3425.098335 2353.799457 3410.506147 2328.705315 3389.060052 C 2303.500627 3367.503411 2277.964297 3338.982316 2257.623672 3306.813174 C 2237.393593 3274.644032 2222.138123 3238.826843 2205.445544 3211.742857 C 2188.752965 3184.769419 2170.51273 3166.63973 2158.684214 3141.103401 C 2146.855698 3115.677619 2141.438901 3082.845196 2139.559604 3053.99246 C 2137.790854 3025.250271 2139.559604 3000.266676 2146.302964 2980.257691 C 2152.935776 2960.248706 2164.543199 2945.103783 2169.628355 2931.174876 C 2174.824059 2917.135423 2173.608043 2904.422532 2175.155699 2889.498703 C 2176.592809 2874.685421 2180.904137 2857.661201 2174.492418 2856.776826 C 2168.080699 2855.892451 2151.167026 2871.037374 2125.630697 2900.22175 C 2100.204915 2929.29558 2066.156476 2972.408863 2041.836162 3003.583083 C 2017.626396 3034.86785 2003.034207 3054.324101 2000.933817 3080.081524 C 1998.833426 3105.949493 2009.114286 3138.118635 2016.742021 3175.372934 C 2024.259208 3212.737779 2029.123271 3255.187781 2018.510771 3298.853799 C 2007.89827 3342.630363 1981.809207 3387.512396 1966.001003 3409.290131 C 1950.192799 3431.178414 1944.776002 3429.962398 1941.459595 3401.441303 C 1938.143189 3372.920208 1936.927173 3317.094034 1941.127955 3273.096376 C 1945.439283 3229.098717 1955.167409 3196.929575 1964.232253 3174.820199 C 1973.297097 3152.710824 1981.809207 3140.550667 1985.788894 3125.626838 C 1989.658035 3110.703009 1989.105301 3093.126055 1985.457254 3086.161602 C 1981.809207 3079.197148 1975.176394 3082.845196 1964.895534 3093.457696 C 1954.504127 3104.070196 1940.57522 3121.64715 1924.767017 3144.088167 C 1908.958813 3166.63973 1891.381859 3193.94481 1882.317015 3218.817858 C 1873.252171 3243.690906 1872.588889 3266.131922 1873.804905 3288.904579 C 1875.020921 3311.677237 1878.005686 3334.670988 1872.92053 3358.991301 C 1867.724827 3383.201068 1854.348654 3408.737397 1831.907638 3435.379195 C 1809.466621 3462.13154 1777.850213 3490.099901 1764.252947 3487.667869 C 1750.655681 3485.235838 1754.856462 3452.403415 1760.052166 3421.450288 C 1765.137322 3390.497162 1771.217401 3361.423333 1783.377557 3338.097941 C 1795.537714 3314.662002 1813.667402 3297.085049 1826.711934 3282.271767 C 1839.756466 3267.347938 1847.715841 3255.187781 1854.680295 3242.47489 C 1861.644748 3229.761999 1867.724827 3216.385826 1875.352561 3202.678013 C 1882.869749 3189.080747 1892.04514 3175.041293 1882.538109 3180.236997 C 1873.252171 3185.4327 1845.28381 3209.642467 1817.64709 3238.163562 C 1790.01037 3266.684657 1762.705291 3299.51708 1746.675993 3331.022941 C 1730.536149 3362.639348 1725.672086 3392.929193 1716.607242 3430.625679 C 1707.542398 3468.211618 1694.166225 3513.093652 1670.730287 3554.106544 C 1647.404895 3595.00889 1614.019738 3632.042094 1598.874815 3636.906157 C 1583.729892 3641.77022 1586.714658 3614.46514 1586.714658 3580.748342 C 1586.714658 3547.142091 1583.729892 3507.013573 1596.442784 3466.995603 C 1609.266222 3426.977632 1637.787317 3386.849115 1663.54474 3362.639348 C 1689.302163 3338.319035 1712.295914 3329.806925 1729.099039 3316.762393 C 1745.791618 3303.717861 1756.072478 3286.140907 1770.333026 3267.016297 C 1784.593573 3247.891687 1802.833808 3227.329967 1820.079121 3210.637389 C 1837.434982 3193.94481 1853.79592 3181.121372 1848.931857 3185.101059 C 1844.067794 3189.080747 1817.978731 3209.642467 1793.658417 3226.335045 C 1769.448651 3243.027624 1747.007634 3255.851062 1714.727945 3259.720203 C 1682.66935 3263.699891 1640.772082 3258.835828 1599.75919 3246.454578 C 1558.856845 3233.96278 1518.838874 3213.953795 1491.533795 3203.009654 C 1464.118169 3192.065513 1449.636527 3190.296763 1455.606059 3184.216684 C 1461.686137 3178.136606 1488.438482 3167.855746 1522.376374 3161.996761 C 1556.424813 3156.248324 1597.658799 3155.032308 1636.792395 3160.228011 C 1675.92599 3165.423715 1712.959195 3176.92059 1739.048259 3184.769419 C 1765.137322 3192.728794 1780.282245 3196.929575 1795.537714 3194.497544 C 1810.682637 3192.065513 1825.827559 3183.000669 1842.520138 3172.609262 C 1859.212717 3162.328402 1877.452952 3150.831527 1896.909203 3136.570979 C 1916.254907 3122.310432 1936.927173 3105.286212 1953.619752 3084.061211 C 1970.312331 3062.83621 1983.025222 3037.299881 1998.170145 3013.311208 C 2013.425614 2989.322535 2031.002568 2966.881519 2053.664678 2941.787377 C 2076.437336 2916.582688 2104.405696 2888.614328 2124.746322 2870.705733 C 2145.086948 2852.797139 2157.799839 2844.94831 2149.066636 2845.501045 C 2140.222885 2846.164326 2109.93304 2855.22917 2086.497102 2859.761592 C 2063.17171 2864.404561 2046.810772 2864.404561 2028.238896 2875.901437 C 2009.777567 2887.398312 1989.105301 2910.50261 1956.272877 2917.798704 C 1923.551001 2925.094798 1878.668968 2916.582688 1833.455294 2903.206516 C 1788.24162 2889.830343 1742.696306 2871.590108 1710.527164 2856.224092 C 1678.358022 2840.747529 1659.565052 2827.924091 1668.077162 2816.758856 C 1676.589271 2805.483074 1712.295914 2795.754949 1750.32404 2786.358464 C 1788.24162 2776.961979 1828.259591 2767.897135 1870.488499 2769.113151 C 1912.60686 2770.329166 1956.936159 2781.826042 1987.226004 2795.423308 C 2017.626396 2809.131121 2033.987334 2824.939325 2049.132256 2833.119794 C 2064.387726 2841.300263 2078.316633 2841.963544 2099.209993 2838.536591 C 2120.2139 2835.220185 2148.071714 2827.924091 2168.74398 2816.427215 C 2189.416247 2804.93034 2202.681872 2789.122136 2214.842029 2770.881901 C 2227.002186 2752.641666 2237.946327 2732.079946 2254.638906 2705.659242 C 2271.331485 2679.238537 2293.772501 2647.069395 2310.796721 2620.427597 C 2327.710393 2593.675253 2339.317816 2572.450252 2347.498285 2550.89361 C 2355.678754 2529.336968 2360.542817 2507.559233 2357.779145 2501.479155 C 2355.12602 2495.399076 2344.734613 2505.127202 2332.906097 2521.156499 C 2321.077581 2537.296344 2307.701408 2559.73736 2292.556486 2583.394393 C 2277.301016 2607.051425 2260.387344 2631.924473 2235.182655 2654.033849 C 2209.977966 2676.253772 2176.592809 2695.710023 2137.459213 2707.759632 C 2098.325618 2719.919789 2053.443585 2724.783852 2019.505693 2728.431899 C 1985.457254 2732.079946 1962.463503 2734.511977 1964.232253 2720.58307 C 1966.001003 2706.543617 1992.753348 2676.253772 2020.390068 2652.265099 C 2047.916241 2628.276426 2076.437336 2610.699472 2108.385384 2596.107284 C 2140.222885 2581.515096 2175.376793 2570.01822 2206.66156 2558.521345 C 2237.946327 2546.913922 2265.251406 2535.417047 2284.59711 2527.236578 C 2304.053361 2519.056109 2315.660783 2514.192046 2327.157659 2504.795561 C 2338.654534 2495.399076 2350.15141 2481.359623 2358.442426 2469.641653 C 2366.512348 2457.813137 2371.486958 2448.085012 2374.471724 2434.156105 C 2377.456489 2420.116651 2378.672505 2401.876416 2381.767818 2385.515478 C 2384.752583 2369.15454 2389.616646 2354.562352 2393.596334 2336.985398 C 2397.576021 2319.408444 2400.560787 2298.736177 2402.661178 2281.711958 C 2404.872115 2264.798285 2405.977584 2251.422113 2401.776803 2246.226409 C 2397.576021 2241.141253 2387.847896 2244.126019 2371.708052 2258.386566 C 2355.678754 2272.647114 2333.237737 2298.072896 2317.429534 2327.257272 C 2301.62133 2356.441649 2292.556486 2389.163525 2275.532266 2422.217042 C 2258.508047 2455.270559 2233.634999 2488.655717 2196.601794 2514.192046 C 2159.679136 2539.728375 2110.485775 2557.305329 2059.523663 2567.033454 C 2008.561551 2576.76158 1955.720143 2578.53033 1908.074438 2584.278768 C 1860.428733 2590.027205 1817.978731 2599.755331 1808.250605 2588.590096 C 1798.52248 2577.314314 1821.626778 2545.145172 1848.600216 2510.543999 C 1875.573655 2475.942826 1906.526781 2438.909621 1944.444361 2410.388526 C 1982.472488 2381.867431 2027.354521 2361.858446 2071.904914 2349.698289 C 2116.565853 2337.538132 2160.895152 2333.337351 2194.833044 2328.473288 C 2228.881483 2323.609225 2252.538515 2318.192428 2276.527188 2306.363912 C 2300.405314 2294.535396 2324.725628 2276.295161 2344.181878 2259.270941 C 2363.527582 2242.357269 2378.119771 2226.549065 2389.063912 2215.052189 C 2400.008053 2203.444767 2407.304147 2196.148673 2409.736178 2175.255313 C 2412.057663 2154.251405 2409.736178 2119.760779 2406.309225 2087.259996 C 2402.992818 2054.759214 2398.792037 2024.469369 2392.048677 1991.415851 C 2385.415865 1958.251788 2376.240474 1922.434599 2365.075239 1891.481472 C 2353.799457 1860.638893 2340.423285 1834.439282 2330.142425 1817.85725 C 2319.861565 1801.054125 2312.565471 1793.868577 2311.349455 1808.350219 C 2310.133439 1822.942407 2314.997502 1859.422877 2312.565471 1890.265457 C 2310.133439 1921.32913 2300.405314 1946.754912 2291.672111 1970.080304 C 2282.82836 1993.516242 2274.868985 2014.741243 2262.819375 2043.593979 C 2250.659218 2072.336167 2234.29828 2108.816638 2199.033825 2141.870155 C 2163.879918 2174.923672 2109.93304 2204.660783 2058.307647 2227.76508 C 2006.682255 2250.758831 1957.488893 2267.230317 1915.370532 2284.143989 C 1873.252171 2301.168209 1837.987716 2318.745163 1808.250605 2339.085788 C 1778.513495 2359.426414 1754.193181 2382.530712 1745.459978 2372.470946 C 1736.616227 2362.41118 1743.359587 2319.408444 1758.504509 2274.526411 C 1773.649432 2229.533831 1797.306464 2182.883047 1828.591231 2146.734218 C 1859.875998 2110.585388 1898.677953 2085.159606 1937.811548 2068.798667 C 1976.945144 2052.327182 2016.41038 2045.031088 2052.780303 2040.277572 C 2089.260774 2035.302963 2122.645931 2032.981478 2152.935776 2024.469369 C 2183.336168 2015.957259 2210.641248 2001.365071 2231.202967 1989.868195 C 2251.875234 1978.37132 2265.804141 1969.85921 2274.868985 1960.131085 C 2284.044376 1950.402959 2288.245157 1939.458818 2291.672111 1915.801786 C 2294.988517 1892.144753 2297.420548 1855.77483 2295.320158 1825.374438 C 2293.10922 1795.084593 2286.476407 1770.764279 2277.964297 1748.875997 C 2269.452188 1727.098262 2259.171328 1707.642011 2247.011171 1688.296307 C 2234.961561 1668.840056 2220.922108 1649.383805 2209.646326 1633.907242 C 2198.481091 1618.430679 2189.968981 1606.933804 2186.652575 1612.01896 C 2183.336168 1617.214663 2185.104918 1639.102946 2183.557262 1660.659587 C 2182.120153 1682.105682 2177.25609 1703.44123 2174.271324 1728.314278 C 2171.176012 1753.187326 2169.959996 1781.708421 2151.167026 1810.78225 C 2132.374057 1839.966626 2095.893586 1869.703737 2053.443585 1898.777566 C 2010.883036 1927.961943 1962.463503 1956.483037 1920.787329 1974.723273 C 1879.221702 1992.852961 1844.731076 2000.812336 1822.179512 2008.661165 C 1799.738496 2016.509993 1789.457636 2024.469369 1791.226386 2006.781868 C 1793.105683 1989.204914 1807.03459 1946.091631 1825.827559 1905.189285 C 1844.731076 1864.176393 1868.388108 1825.374438 1897.793578 1793.536937 C 1927.199048 1761.588888 1962.463503 1736.826387 1994.853738 1719.802168 C 2027.354521 1702.777948 2057.091632 1693.713104 2084.728352 1686.748651 C 2112.254525 1679.673651 2137.790854 1674.920135 2152.051401 1665.744744 C 2166.311949 1656.6799 2169.407262 1643.303727 2169.959996 1628.158805 C 2170.51273 1613.013882 2168.74398 1595.989663 2163.327183 1579.297084 C 2157.799839 1562.604505 2148.734995 1546.243567 2134.806088 1526.787316 C 2120.766634 1507.331065 2101.973665 1484.890048 2088.597492 1465.544344 C 2075.22132 1446.088094 2067.372491 1429.727155 2062.840069 1435.475593 C 2058.307647 1441.224031 2057.091632 1469.192391 2048.911163 1492.517783 C 2040.730693 1515.843175 2025.475224 1534.636144 2007.89827 1548.896692 C 1990.321316 1563.157239 1970.312331 1572.885365 1954.172487 1596.874038 C 1938.143189 1620.86271 1925.983032 1659.111931 1898.346312 1695.481854 C 1870.820139 1731.962325 1827.706856 1766.563498 1787.909979 1792.873655 C 1748.113103 1819.29436 1711.743179 1837.534595 1683.222084 1865.392409 C 1654.700989 1893.360769 1634.028723 1930.946708 1619.215441 1964.995147 C 1604.291612 1998.933039 1595.226768 2029.333431 1587.930674 2032.981478 C 1580.63458 2036.518978 1575.217783 2013.525227 1569.469345 1975.607648 C 1563.720907 1937.690068 1557.640829 1884.848659 1565.489657 1830.238501 C 1573.449033 1775.628342 1595.226768 1719.138887 1638.340051 1668.840056 C 1681.453334 1618.430679 1745.791618 1574.10138 1795.869355 1551.107629 C 1845.947091 1528.003331 1881.653733 1526.124035 1908.958813 1528.003331 C 1936.374439 1529.882628 1955.167409 1535.299426 1971.74944 1533.199035 C 1988.552566 1531.098644 2003.034207 1521.370519 2013.978349 1507.331065 C 2024.92249 1493.402158 2032.218584 1475.161923 2035.53499 1457.91661 C 2038.851397 1440.671296 2038.298662 1424.199811 2035.203349 1406.954498 C 2032.218584 1389.598638 2026.69124 1371.46895 2014.97327 1350.796683 C 2003.034207 1330.124417 1984.793972 1307.130666 1966.001003 1283.694727 C 1947.208033 1260.369336 1927.862329 1236.712303 1909.953735 1209.407224 C 1892.04514 1182.102145 1875.573655 1151.149018 1861.313108 1103.171673 C 1847.163107 1055.194327 1835.00295 990.303308 1826.933028 920.548227 C 1818.863106 850.793146 1814.993965 776.063455 1814.220137 737.593141 C 1813.446309 699.01228 1815.657246 696.580249 1820.742403 694.811499 C 1825.827559 693.042749 1833.786935 692.047827 1839.756466 690.610717 C 1845.725998 689.173608 1849.816232 687.294311 1851.584982 688.73142 C 1853.243185 690.16853 1852.579904 694.922045 1851.363888 726.096266 Z M 1851.363888 726.096266 " stroke="#231f20" stroke-width="15.001" stroke-opacity="1" stroke-miterlimit="22.926001"/><g fill="#000000" fill-opacity="1"><g transform="translate(105.846491, 177.693099)"><g/></g></g><g fill="#000000" fill-opacity="1"><g transform="translate(107.014621, 167.008343)"><g><path d="M -8.632812 -24.273438 C -8.566406 -24.457031 -8.65625 -24.648438 -8.839844 -24.714844 C -9.023438 -24.78125 -9.234375 -24.703125 -9.300781 -24.519531 L -10.671875 -20.769531 C -10.6875 -20.722656 -10.683594 -20.667969 -10.667969 -20.636719 C -10.675781 -20.613281 -10.675781 -20.613281 -10.675781 -20.613281 C -10.683594 -20.589844 -10.660156 -20.582031 -10.667969 -20.558594 C -10.65625 -20.527344 -10.65625 -20.527344 -10.640625 -20.496094 C -10.625 -20.464844 -10.625 -20.464844 -10.609375 -20.433594 C -10.589844 -20.425781 -10.597656 -20.402344 -10.574219 -20.394531 L -1.019531 -11.558594 L -14.019531 -10.960938 C -14.148438 -10.953125 -14.292969 -10.851562 -14.335938 -10.734375 L -15.789062 -6.753906 C -15.855469 -6.570312 -15.742188 -6.375 -15.558594 -6.308594 C -15.375 -6.238281 -15.1875 -6.328125 -15.121094 -6.511719 C -15.035156 -6.742188 -14.820312 -6.976562 -14.550781 -7.136719 L -0.792969 -2.113281 C -0.402344 -1.972656 -0.171875 -1.523438 -0.324219 -1.109375 C -0.390625 -0.925781 -0.304688 -0.738281 -0.121094 -0.667969 C 0.0625 -0.601562 0.273438 -0.683594 0.34375 -0.867188 L 1.125 -3.003906 C 1.191406 -3.191406 1.078125 -3.386719 0.894531 -3.453125 C 0.710938 -3.519531 0.523438 -3.433594 0.457031 -3.25 C 0.304688 -2.835938 -0.15625 -2.640625 -0.550781 -2.78125 L -13.296875 -7.4375 L 2.726562 -8.183594 L 2.78125 -8.191406 C 2.804688 -8.179688 2.835938 -8.195312 2.867188 -8.210938 C 2.867188 -8.210938 2.867188 -8.210938 2.890625 -8.203125 C 2.921875 -8.214844 2.929688 -8.238281 2.960938 -8.253906 C 2.992188 -8.269531 2.992188 -8.269531 3 -8.292969 C 3 -8.292969 3.03125 -8.304688 3.03125 -8.304688 C 3.03125 -8.304688 3.042969 -8.328125 3.042969 -8.328125 C 3.050781 -8.351562 3.082031 -8.367188 3.097656 -8.414062 C 3.105469 -8.4375 3.089844 -8.46875 3.109375 -8.511719 C 3.09375 -8.542969 3.109375 -8.589844 3.097656 -8.621094 C 3.082031 -8.652344 3.066406 -8.683594 3.050781 -8.714844 C 3.039062 -8.746094 3.015625 -8.757812 3 -8.789062 L 1.261719 -10.386719 L 0.0546875 -11.507812 L -8.808594 -19.722656 L 3.9375 -15.070312 C 4.328125 -14.925781 4.546875 -14.453125 4.40625 -14.0625 C 4.335938 -13.878906 4.417969 -13.667969 4.601562 -13.601562 C 4.785156 -13.535156 5.003906 -13.636719 5.070312 -13.820312 L 6.828125 -18.628906 C 6.894531 -18.8125 6.785156 -19.011719 6.601562 -19.078125 C 6.414062 -19.144531 6.226562 -19.058594 6.160156 -18.871094 C 6.007812 -18.457031 5.546875 -18.261719 5.15625 -18.40625 L -8.167969 -23.269531 C -8.558594 -23.414062 -8.785156 -23.859375 -8.632812 -24.273438 Z M -0.304688 -10.878906 L 1.902344 -8.851562 L -13.835938 -8.101562 L -14.550781 -8.074219 L -13.75 -10.261719 Z M -9.886719 -20.847656 L -9.148438 -22.871094 L 5.648438 -17.46875 L 4.910156 -15.445312 Z M -9.886719 -20.847656 "/></g></g></g><g fill="#000000" fill-opacity="1"><g transform="translate(115.004858, 146.20277)"><g><path d="M 2.941406 -11.125 L -3.851562 -21.726562 C -4.164062 -22.179688 -4.160156 -22.921875 -3.882812 -23.324219 C -3.785156 -23.464844 -3.808594 -23.691406 -3.96875 -23.800781 C -4.128906 -23.914062 -4.367188 -23.871094 -4.464844 -23.726562 C -4.480469 -23.707031 -5.121094 -22.78125 -5.121094 -22.78125 L -5.757812 -21.851562 C -5.871094 -21.691406 -5.828125 -21.453125 -5.664062 -21.34375 C -5.503906 -21.230469 -5.285156 -21.289062 -5.175781 -21.449219 C -5.117188 -21.53125 -5 -21.65625 -4.859375 -21.648438 C -4.714844 -21.640625 -4.574219 -21.542969 -4.46875 -21.351562 L 1.890625 -11.460938 L -9.609375 -13.855469 C -9.832031 -13.917969 -9.972656 -14.015625 -10.03125 -14.148438 C -10.089844 -14.277344 -10.027344 -14.410156 -9.957031 -14.511719 C -9.847656 -14.675781 -9.882812 -14.878906 -10.046875 -14.988281 C -10.207031 -15.101562 -10.429688 -15.078125 -10.542969 -14.917969 L -11.183594 -13.988281 L -12.949219 -11.425781 L -13.585938 -10.5 C -13.699219 -10.339844 -13.640625 -10.121094 -13.480469 -10.007812 C -13.320312 -9.898438 -13.113281 -9.933594 -13.003906 -10.097656 C -12.726562 -10.5 -12.046875 -10.746094 -11.5 -10.636719 L 1.050781 -7.996094 L 2.863281 -6.742188 C 3.226562 -6.492188 3.316406 -6.015625 3.066406 -5.652344 C 2.953125 -5.492188 2.992188 -5.285156 3.152344 -5.175781 C 3.3125 -5.0625 3.539062 -5.089844 3.648438 -5.25 L 4.289062 -6.175781 C 4.289062 -6.175781 4.289062 -6.175781 4.304688 -6.195312 L 5.914062 -8.535156 L 6.554688 -9.464844 C 6.667969 -9.625 6.621094 -9.863281 6.460938 -9.976562 C 6.300781 -10.085938 6.082031 -10.027344 5.96875 -9.867188 C 5.734375 -9.523438 5.222656 -9.429688 4.878906 -9.667969 L 3.066406 -10.917969 Z M 3.265625 -7.328125 C 3.265625 -7.328125 1.390625 -8.621094 1.390625 -8.621094 C 1.371094 -8.632812 1.351562 -8.648438 1.316406 -8.640625 C 1.316406 -8.640625 1.296875 -8.65625 1.277344 -8.671875 L -11.359375 -11.3125 L -12.058594 -11.46875 L -10.738281 -13.382812 L 2.433594 -10.609375 L 2.527344 -10.484375 C 2.515625 -10.464844 2.535156 -10.449219 2.554688 -10.4375 C 2.574219 -10.421875 2.59375 -10.410156 2.617188 -10.394531 L 5.136719 -8.65625 L 3.914062 -6.882812 Z M 3.265625 -7.328125 "/></g></g></g><g fill="#000000" fill-opacity="1"><g transform="translate(126.809087, 130.155338)"><g/></g></g><g fill="#000000" fill-opacity="1"><g transform="translate(134.449913, 122.391621)"><g><path d="M -1.921875 -18.8125 C -0.195312 -20.0625 2.011719 -20.660156 4.273438 -20.222656 C 4.273438 -20.222656 4.308594 -20.21875 4.328125 -20.230469 C 4.339844 -20.210938 4.363281 -20.226562 4.363281 -20.226562 C 4.382812 -20.238281 4.394531 -20.21875 4.394531 -20.21875 C 4.414062 -20.234375 4.414062 -20.234375 4.4375 -20.246094 C 4.4375 -20.246094 4.457031 -20.261719 4.46875 -20.242188 C 4.488281 -20.253906 4.511719 -20.269531 4.53125 -20.28125 C 4.550781 -20.296875 4.570312 -20.308594 4.589844 -20.324219 C 4.578125 -20.34375 4.597656 -20.359375 4.597656 -20.359375 C 4.597656 -20.359375 4.617188 -20.371094 4.617188 -20.371094 C 4.636719 -20.386719 4.625 -20.40625 4.644531 -20.417969 C 4.644531 -20.417969 4.664062 -20.433594 4.648438 -20.453125 C 4.65625 -20.488281 4.683594 -20.535156 4.675781 -20.589844 C 4.675781 -20.589844 4.675781 -20.589844 4.660156 -20.609375 C 4.679688 -20.625 4.667969 -20.644531 4.667969 -20.644531 C 4.667969 -20.644531 4.652344 -20.664062 4.675781 -20.679688 C 4.660156 -20.699219 4.660156 -20.699219 4.644531 -20.71875 C 4.632812 -20.738281 4.617188 -20.757812 4.605469 -20.777344 C 4.605469 -20.777344 3.507812 -22.371094 3.507812 -22.371094 L 3.3125 -22.65625 C 3.203125 -22.816406 2.996094 -22.855469 2.835938 -22.742188 C 2.675781 -22.632812 2.636719 -22.425781 2.746094 -22.265625 L 2.941406 -21.984375 C 3.121094 -21.722656 3.054688 -21.347656 2.792969 -21.167969 C 2.691406 -21.097656 2.574219 -21.046875 2.472656 -21.066406 C 2.453125 -21.050781 2.453125 -21.050781 2.417969 -21.058594 C 0.78125 -20.972656 -0.777344 -20.433594 -2.101562 -19.550781 C -2.125 -19.535156 -2.125 -19.535156 -2.144531 -19.523438 C -2.222656 -19.464844 -2.304688 -19.410156 -2.367188 -19.371094 C -4.097656 -18.085938 -5.367188 -16.171875 -5.78125 -13.921875 C -6.65625 -9.1875 -3.5 -4.609375 1.234375 -3.734375 C 3.503906 -3.335938 5.722656 -3.824219 7.542969 -4.984375 C 7.621094 -5.042969 7.683594 -5.082031 7.761719 -5.136719 C 7.78125 -5.152344 7.78125 -5.152344 7.804688 -5.167969 C 9.101562 -6.089844 10.160156 -7.355469 10.824219 -8.855469 C 10.832031 -8.886719 10.832031 -8.886719 10.851562 -8.902344 C 10.871094 -9.003906 10.957031 -9.09375 11.058594 -9.164062 C 11.320312 -9.34375 11.695312 -9.273438 11.875 -9.011719 L 12.070312 -8.730469 C 12.183594 -8.570312 12.386719 -8.53125 12.546875 -8.640625 C 12.710938 -8.753906 12.746094 -8.957031 12.636719 -9.121094 C 12.636719 -9.121094 12.441406 -9.402344 12.441406 -9.402344 L 11.34375 -10.996094 C 11.328125 -11.015625 11.316406 -11.035156 11.300781 -11.054688 C 11.289062 -11.074219 11.289062 -11.074219 11.273438 -11.097656 C 11.253906 -11.082031 11.253906 -11.082031 11.238281 -11.101562 C 11.238281 -11.101562 11.226562 -11.121094 11.207031 -11.109375 C 11.191406 -11.128906 11.191406 -11.128906 11.191406 -11.128906 C 11.144531 -11.15625 11.089844 -11.148438 11.054688 -11.152344 C 11.042969 -11.175781 11.023438 -11.160156 11.023438 -11.160156 C 11 -11.144531 10.988281 -11.167969 10.96875 -11.152344 C 10.96875 -11.152344 10.945312 -11.140625 10.945312 -11.140625 C 10.945312 -11.140625 10.925781 -11.125 10.914062 -11.144531 C 10.894531 -11.132812 10.871094 -11.117188 10.851562 -11.101562 C 10.832031 -11.089844 10.8125 -11.074219 10.792969 -11.0625 C 10.804688 -11.042969 10.785156 -11.027344 10.785156 -11.027344 C 10.765625 -11.015625 10.765625 -11.015625 10.746094 -11 C 10.746094 -11 10.757812 -10.980469 10.738281 -10.964844 C 10.738281 -10.964844 10.71875 -10.953125 10.734375 -10.933594 C 10.710938 -10.917969 10.707031 -10.882812 10.707031 -10.882812 C 10.304688 -8.613281 8.976562 -6.746094 7.179688 -5.597656 C 4.886719 -4.257812 1.171875 -5.984375 -1.257812 -9.511719 C -3.703125 -13.0625 -3.988281 -17.148438 -1.921875 -18.8125 Z M 3.59375 -21.035156 C 3.574219 -21.023438 3.574219 -21.023438 3.574219 -21.023438 C 3.574219 -21.023438 3.574219 -21.023438 3.59375 -21.035156 Z M 11.203125 -9.945312 C 11.203125 -9.945312 11.203125 -9.945312 11.222656 -9.960938 C 11.203125 -9.945312 11.203125 -9.945312 11.203125 -9.945312 Z M -1.855469 -9.128906 C -0.0507812 -6.507812 2.425781 -4.855469 4.652344 -4.515625 C 3.605469 -4.265625 2.484375 -4.210938 1.347656 -4.4375 C -3 -5.21875 -5.90625 -9.4375 -5.085938 -13.777344 C -4.894531 -14.921875 -4.441406 -15.949219 -3.835938 -16.839844 C -4.3125 -14.636719 -3.648438 -11.734375 -1.855469 -9.128906 Z M -1.855469 -9.128906 "/></g></g></g><g fill="#000000" fill-opacity="1"><g transform="translate(149.431238, 112.410406)"><g><path d="M 10.703125 -9.472656 C 10.523438 -9.394531 10.441406 -9.203125 10.519531 -9.023438 C 11.28125 -7.191406 10.410156 -5.078125 8.578125 -4.3125 L 4.597656 -2.65625 L -1.152344 -16.472656 C -1.3125 -16.859375 -1.117188 -17.339844 -0.730469 -17.5 C -0.550781 -17.574219 -0.449219 -17.777344 -0.523438 -17.957031 C -0.601562 -18.136719 -0.824219 -18.230469 -1.003906 -18.15625 L -5.730469 -16.1875 C -5.910156 -16.113281 -5.980469 -15.898438 -5.90625 -15.714844 C -5.832031 -15.535156 -5.640625 -15.457031 -5.457031 -15.53125 C -5.050781 -15.699219 -4.59375 -15.492188 -4.433594 -15.109375 L 1.019531 -2.015625 C 1.179688 -1.632812 1.003906 -1.160156 0.59375 -0.992188 C 0.414062 -0.914062 0.335938 -0.722656 0.410156 -0.542969 C 0.484375 -0.363281 0.6875 -0.261719 0.867188 -0.335938 L 12.492188 -5.175781 C 12.671875 -5.25 12.742188 -5.464844 12.667969 -5.644531 L 11.152344 -9.285156 C 11.078125 -9.46875 10.882812 -9.546875 10.703125 -9.472656 Z M 11.421875 -6.851562 L 11.902344 -5.699219 L 10.75 -5.21875 C 11.078125 -5.699219 11.292969 -6.265625 11.421875 -6.851562 Z M -4.078125 -16.105469 L -2.109375 -16.925781 L 3.941406 -2.382812 L 1.976562 -1.566406 Z M -4.078125 -16.105469 "/></g></g></g><g fill="#000000" fill-opacity="1"><g transform="translate(164.417407, 106.129582)"><g><path d="M 6.207031 -18.632812 C 1.453125 -17.804688 -1.710938 -13.277344 -0.890625 -8.546875 C -0.0625 -3.792969 4.445312 -0.597656 9.199219 -1.425781 C 13.953125 -2.25 17.144531 -6.785156 16.316406 -11.539062 C 15.496094 -16.269531 10.964844 -19.457031 6.207031 -18.632812 Z M 12.578125 -10.886719 C 13.335938 -6.519531 11.78125 -2.59375 9.078125 -2.125 C 6.398438 -1.660156 3.585938 -4.824219 2.828125 -9.191406 C 2.070312 -13.539062 3.652344 -17.464844 6.332031 -17.933594 C 9.035156 -18.402344 11.820312 -15.230469 12.578125 -10.886719 Z M -0.214844 -8.664062 C -0.792969 -11.996094 0.808594 -15.230469 3.550781 -16.902344 C 2.199219 -15.101562 1.585938 -12.183594 2.128906 -9.070312 C 2.671875 -5.933594 4.234375 -3.394531 6.113281 -2.15625 C 2.96875 -2.804688 0.371094 -5.308594 -0.214844 -8.664062 Z M 11.859375 -3.15625 C 13.210938 -4.957031 13.824219 -7.871094 13.28125 -10.984375 C 12.734375 -14.121094 11.175781 -16.660156 9.292969 -17.902344 C 12.441406 -17.253906 15.039062 -14.746094 15.621094 -11.394531 C 16.199219 -8.0625 14.601562 -4.824219 11.859375 -3.15625 Z M 11.859375 -3.15625 "/></g></g></g><g fill="#000000" fill-opacity="1"><g transform="translate(184.604054, 103.110275)"><g><path d="M 9.328125 -9.378906 L 5.242188 -10.683594 C 4.035156 -11.105469 3.273438 -12.265625 3.328125 -13.539062 C 3.398438 -15.152344 4.75 -16.394531 6.367188 -16.324219 L 7.148438 -16.289062 C 9.546875 -16.1875 11.421875 -14.144531 11.320312 -11.746094 C 11.308594 -11.550781 11.472656 -11.371094 11.644531 -11.363281 C 11.839844 -11.355469 12.019531 -11.519531 12.027344 -11.714844 L 12.222656 -16.269531 C 12.234375 -16.464844 12.066406 -16.617188 11.871094 -16.625 C 11.699219 -16.632812 11.523438 -16.496094 11.515625 -16.296875 L 11.496094 -15.882812 C 11.484375 -15.589844 11.226562 -15.332031 10.910156 -15.34375 C 10.789062 -15.347656 10.644531 -15.429688 10.546875 -15.507812 C 10.523438 -15.53125 10.523438 -15.53125 10.5 -15.558594 C 9.632812 -16.402344 8.476562 -16.945312 7.179688 -17 L 6.398438 -17.035156 C 3.582031 -17.15625 1.234375 -14.976562 1.113281 -12.1875 C 1.015625 -9.933594 2.421875 -7.863281 4.550781 -7.160156 L 8.636719 -5.855469 C 9.84375 -5.433594 10.605469 -4.273438 10.550781 -3.003906 C 10.480469 -1.386719 9.125 -0.144531 7.511719 -0.214844 L 5.675781 -0.292969 C 3.253906 -0.398438 1.378906 -2.441406 1.484375 -4.839844 C 1.492188 -5.035156 1.351562 -5.214844 1.15625 -5.222656 C 0.960938 -5.230469 0.808594 -5.066406 0.796875 -4.871094 L 0.601562 -0.316406 C 0.59375 -0.121094 0.734375 0.03125 0.929688 0.0390625 C 1.125 0.046875 1.277344 -0.09375 1.289062 -0.289062 L 1.304688 -0.703125 C 1.316406 -0.996094 1.574219 -1.257812 1.890625 -1.242188 C 2.039062 -1.234375 2.160156 -1.15625 2.277344 -1.078125 C 2.277344 -1.054688 2.300781 -1.054688 2.300781 -1.027344 C 3.171875 -0.183594 4.324219 0.359375 5.644531 0.414062 L 7.480469 0.492188 C 10.269531 0.613281 12.644531 -1.5625 12.765625 -4.355469 C 12.863281 -6.605469 11.457031 -8.675781 9.328125 -9.378906 Z M 11.449219 -14.757812 L 11.429688 -14.316406 C 11.359375 -14.441406 11.292969 -14.566406 11.222656 -14.667969 C 11.296875 -14.691406 11.375 -14.734375 11.449219 -14.757812 Z M 1.355469 -1.828125 L 1.371094 -2.269531 C 1.441406 -2.144531 1.507812 -2.019531 1.601562 -1.917969 C 1.503906 -1.898438 1.429688 -1.851562 1.355469 -1.828125 Z M 10.933594 -1.636719 C 11.121094 -2.046875 11.238281 -2.484375 11.257812 -2.972656 C 11.328125 -4.5625 10.359375 -5.976562 8.863281 -6.53125 L 4.773438 -7.8125 C 2.9375 -8.429688 1.714844 -10.222656 1.796875 -12.15625 C 1.84375 -13.210938 2.277344 -14.171875 2.945312 -14.902344 C 2.757812 -14.492188 2.640625 -14.058594 2.621094 -13.566406 C 2.550781 -11.976562 3.519531 -10.5625 5.015625 -10.007812 L 9.105469 -8.726562 C 10.941406 -8.109375 12.164062 -6.316406 12.078125 -4.382812 C 12.035156 -3.332031 11.601562 -2.367188 10.933594 -1.636719 Z M 10.933594 -1.636719 "/></g></g></g><g fill="#000000" fill-opacity="1"><g transform="translate(199.729567, 103.885884)"><g><path d="M 13.140625 -13.753906 C 15.070312 -13.292969 16.265625 -11.34375 15.804688 -9.414062 C 15.757812 -9.222656 15.867188 -9.046875 16.058594 -9 C 16.25 -8.953125 16.425781 -9.0625 16.472656 -9.253906 L 17.390625 -13.089844 C 17.4375 -13.277344 17.332031 -13.480469 17.144531 -13.527344 L 4.898438 -16.457031 C 4.707031 -16.503906 4.523438 -16.371094 4.480469 -16.179688 C 4.433594 -15.988281 4.542969 -15.8125 4.734375 -15.765625 C 5.164062 -15.664062 5.410156 -15.226562 5.3125 -14.824219 L 2.011719 -1.03125 C 1.914062 -0.625 1.492188 -0.347656 1.066406 -0.449219 C 0.875 -0.496094 0.695312 -0.386719 0.652344 -0.195312 C 0.605469 -0.0078125 0.707031 0.195312 0.898438 0.242188 L 13.144531 3.171875 C 13.335938 3.21875 13.515625 3.085938 13.5625 2.894531 L 14.480469 -0.941406 C 14.527344 -1.128906 14.417969 -1.308594 14.226562 -1.351562 C 14.035156 -1.398438 13.859375 -1.289062 13.8125 -1.097656 C 13.351562 0.832031 11.402344 2.027344 9.472656 1.5625 L 5.28125 0.558594 L 7.039062 -6.777344 L 9.300781 -6.234375 C 9.730469 -6.132812 9.984375 -5.71875 9.882812 -5.289062 C 9.835938 -5.101562 9.9375 -4.898438 10.128906 -4.851562 C 10.320312 -4.808594 10.527344 -4.933594 10.570312 -5.125 L 11.101562 -7.339844 C 11.148438 -7.53125 11.015625 -7.714844 10.824219 -7.757812 C 10.632812 -7.804688 10.457031 -7.695312 10.410156 -7.507812 C 10.308594 -7.078125 9.894531 -6.824219 9.46875 -6.925781 L 7.203125 -7.46875 L 8.949219 -14.757812 Z M 16.351562 -11.699219 C 16.132812 -12.257812 15.832031 -12.78125 15.429688 -13.207031 L 16.644531 -12.914062 Z M 6.1875 -15.417969 L 8.257812 -14.921875 C 8.257812 -14.921875 6.425781 -7.277344 6.425781 -7.277344 L 4.589844 0.394531 L 2.519531 -0.101562 Z M 13.265625 1.1875 L 12.976562 2.402344 L 11.761719 2.113281 C 12.3125 1.914062 12.820312 1.585938 13.265625 1.1875 Z M 13.265625 1.1875 "/></g></g></g><g fill="#000000" fill-opacity="1"><g transform="translate(215.595235, 107.819179)"><g><path d="M 16.714844 -10.285156 C 18.511719 -9.441406 19.28125 -7.289062 18.4375 -5.492188 C 18.351562 -5.316406 18.445312 -5.109375 18.621094 -5.027344 C 18.777344 -4.953125 18.996094 -5.011719 19.078125 -5.191406 L 20.761719 -8.757812 C 20.84375 -8.933594 20.761719 -9.164062 20.609375 -9.234375 L 8.136719 -15.121094 C 7.957031 -15.203125 7.753906 -15.113281 7.667969 -14.933594 L 5.988281 -11.367188 C 5.902344 -11.191406 5.972656 -10.996094 6.148438 -10.910156 C 6.328125 -10.828125 6.523438 -10.898438 6.605469 -11.074219 C 7.453125 -12.871094 9.605469 -13.640625 11.398438 -12.796875 L 12.464844 -12.292969 L 6.078125 1.242188 C 5.898438 1.617188 5.410156 1.792969 5.011719 1.605469 C 4.855469 1.53125 4.636719 1.59375 4.554688 1.769531 C 4.472656 1.945312 4.5625 2.152344 4.71875 2.226562 L 9.371094 4.421875 C 9.546875 4.503906 9.742188 4.433594 9.828125 4.257812 C 9.910156 4.082031 9.839844 3.882812 9.664062 3.800781 C 9.265625 3.613281 9.109375 3.132812 9.289062 2.757812 L 15.675781 -10.777344 Z M 19.441406 -7.621094 C 19.359375 -8.199219 19.171875 -8.777344 18.84375 -9.285156 L 19.972656 -8.75 Z M 7.609375 -13.203125 L 8.144531 -14.332031 L 9.273438 -13.796875 C 8.695312 -13.71875 8.105469 -13.507812 7.609375 -13.203125 Z M 8.3125 3.164062 L 6.363281 2.242188 L 13.082031 -12 L 15.03125 -11.082031 Z M 8.3125 3.164062 "/></g></g></g><g fill="#000000" fill-opacity="1"><g transform="translate(231.413933, 115.809331)"><g/></g></g><g fill="#000000" fill-opacity="1"><g transform="translate(240.400188, 121.859849)"><g><path d="M 8.566406 7.867188 C 8.429688 7.726562 8.222656 7.722656 8.082031 7.859375 C 7.941406 7.996094 7.917969 8.222656 8.054688 8.363281 L 11.800781 12.234375 C 11.921875 12.359375 12.164062 12.363281 12.304688 12.226562 C 12.445312 12.089844 12.433594 11.863281 12.3125 11.742188 C 11.972656 11.390625 11.84375 10.660156 12.078125 10.160156 L 18.601562 -5.042969 L 18.621094 -5.097656 C 18.621094 -5.132812 18.636719 -5.148438 18.640625 -5.183594 C 18.640625 -5.183594 18.640625 -5.183594 18.640625 -5.21875 C 18.65625 -5.234375 18.640625 -5.25 18.640625 -5.285156 C 18.625 -5.304688 18.625 -5.304688 18.625 -5.304688 C 18.640625 -5.320312 18.625 -5.339844 18.605469 -5.355469 C 18.605469 -5.355469 18.625 -5.375 18.609375 -5.390625 C 18.609375 -5.390625 18.609375 -5.390625 18.589844 -5.410156 C 18.574219 -5.425781 18.574219 -5.460938 18.558594 -5.476562 C 18.503906 -5.496094 18.488281 -5.515625 18.472656 -5.53125 C 18.472656 -5.53125 18.453125 -5.550781 18.453125 -5.550781 C 18.417969 -5.550781 18.402344 -5.566406 18.367188 -5.566406 C 18.332031 -5.570312 18.316406 -5.585938 18.28125 -5.585938 C 18.28125 -5.585938 18.265625 -5.570312 18.265625 -5.570312 C 18.230469 -5.570312 18.195312 -5.570312 18.175781 -5.554688 L 16.9375 -5.070312 L 14.429688 -4.109375 L 2.710938 0.476562 C 2.1875 0.675781 1.480469 0.542969 1.140625 0.191406 C 1.003906 0.0507812 0.796875 0.046875 0.65625 0.183594 C 0.515625 0.320312 0.492188 0.546875 0.628906 0.6875 L 2.214844 2.324219 C 2.351562 2.464844 2.574219 2.449219 2.714844 2.3125 C 2.855469 2.179688 2.859375 1.96875 2.722656 1.828125 C 2.640625 1.742188 2.554688 1.617188 2.574219 1.464844 C 2.609375 1.324219 2.734375 1.207031 2.960938 1.125 L 3.726562 0.824219 C 6.445312 -0.101562 9.414062 0.503906 11.53125 2.375 L 9.28125 7.65625 C 9.1875 7.878906 9.066406 7.996094 8.925781 8.03125 C 8.769531 8.042969 8.652344 7.957031 8.566406 7.867188 Z M 9.519531 8.855469 L 9.753906 8.320312 L 9.914062 7.925781 L 14.835938 -3.511719 L 17.640625 -4.59375 L 11.15625 10.542969 Z M 6.621094 -0.304688 L 13.929688 -3.148438 L 11.839844 1.703125 C 10.351562 0.449219 8.507812 -0.222656 6.621094 -0.304688 Z M 6.621094 -0.304688 "/></g></g></g><g fill="#000000" fill-opacity="1"><g transform="translate(253.851605, 136.192562)"><g><path d="M 1.066406 0.445312 C 0.964844 0.277344 0.765625 0.226562 0.597656 0.328125 C 0.429688 0.429688 0.378906 0.628906 0.480469 0.796875 L 3.117188 5.183594 C 3.21875 5.351562 3.433594 5.425781 3.601562 5.324219 C 3.769531 5.222656 3.804688 5 3.703125 4.832031 C 3.492188 4.476562 3.617188 3.972656 3.972656 3.757812 L 6.742188 2.089844 L 8.8125 5.535156 C 10.582031 8.472656 14.414062 9.425781 17.351562 7.660156 C 20.289062 5.894531 21.222656 2.074219 19.457031 -0.863281 L 17.210938 -4.601562 C 17.210938 -4.601562 17.230469 -4.613281 17.230469 -4.613281 L 15.175781 -8.035156 C 15.074219 -8.203125 14.851562 -8.242188 14.683594 -8.140625 C 14.515625 -8.039062 14.464844 -7.839844 14.566406 -7.671875 C 14.792969 -7.292969 14.65625 -6.808594 14.296875 -6.59375 L 2.144531 0.710938 C 1.785156 0.925781 1.292969 0.824219 1.066406 0.445312 Z M 16.800781 -3.953125 L 18.871094 -0.511719 C 19.613281 0.726562 18.082031 3.078125 15.523438 4.617188 C 12.960938 6.15625 10.167969 6.40625 9.421875 5.167969 L 7.351562 1.726562 Z M 16.984375 7.050781 C 14.949219 8.277344 12.425781 8.023438 10.667969 6.621094 C 12.066406 6.808594 14.007812 6.328125 15.875 5.203125 C 17.742188 4.082031 19.058594 2.605469 19.546875 1.28125 C 19.980469 3.476562 19.023438 5.828125 16.984375 7.050781 Z M 2.933594 3.550781 L 1.835938 1.726562 L 15.335938 -6.390625 L 16.433594 -4.5625 Z M 2.933594 3.550781 "/></g></g></g><g fill="#000000" fill-opacity="1"><g transform="translate(262.897762, 151.611454)"><g><path d="M 0.945312 0.664062 C 0.882812 0.476562 0.699219 0.386719 0.511719 0.449219 C 0.328125 0.511719 0.234375 0.695312 0.296875 0.882812 L 1.925781 5.734375 C 1.988281 5.921875 2.183594 6.035156 2.367188 5.972656 C 2.554688 5.914062 2.640625 5.703125 2.578125 5.515625 C 2.445312 5.121094 2.675781 4.65625 3.070312 4.523438 L 6.136719 3.496094 L 7.414062 7.304688 C 8.507812 10.554688 12.042969 12.3125 15.292969 11.21875 C 18.542969 10.128906 20.277344 6.601562 19.1875 3.347656 L 17.796875 -0.785156 C 17.796875 -0.785156 17.820312 -0.792969 17.820312 -0.792969 L 16.550781 -4.578125 C 16.488281 -4.761719 16.277344 -4.847656 16.09375 -4.785156 C 15.90625 -4.722656 15.816406 -4.535156 15.878906 -4.351562 C 16.015625 -3.933594 15.777344 -3.492188 15.382812 -3.359375 L 1.9375 1.15625 C 1.542969 1.289062 1.085938 1.082031 0.945312 0.664062 Z M 17.257812 -0.242188 L 18.535156 3.566406 C 18.996094 4.9375 16.996094 6.902344 14.164062 7.851562 C 11.328125 8.804688 8.546875 8.445312 8.085938 7.078125 L 6.808594 3.269531 Z M 15.066406 10.546875 C 12.816406 11.304688 10.402344 10.511719 8.988281 8.761719 C 10.316406 9.25 12.3125 9.199219 14.378906 8.503906 C 16.445312 7.808594 18.046875 6.652344 18.8125 5.464844 C 18.761719 7.703125 17.320312 9.789062 15.066406 10.546875 Z M 2.101562 4.101562 L 1.421875 2.082031 L 16.351562 -2.933594 L 17.03125 -0.914062 Z M 2.101562 4.101562 "/></g></g></g><g fill="#000000" fill-opacity="1"><g transform="translate(268.19632, 168.964594)"><g/></g></g><g fill="#000000" fill-opacity="1"><g transform="translate(93.754008, 213.288173)"><g><path d="M 11.984375 3.242188 C 12.375 4.433594 11.71875 5.722656 10.523438 6.113281 C 10.40625 6.148438 10.351562 6.28125 10.390625 6.398438 C 10.421875 6.503906 10.542969 6.578125 10.664062 6.539062 L 13.035156 5.769531 C 13.152344 5.730469 13.222656 5.59375 13.1875 5.488281 L 10.492188 -2.808594 C 10.453125 -2.925781 10.324219 -2.980469 10.203125 -2.941406 L 7.832031 -2.171875 C 7.714844 -2.132812 7.65625 -2.015625 7.691406 -1.898438 C 7.730469 -1.777344 7.847656 -1.71875 7.964844 -1.757812 C 9.160156 -2.144531 10.449219 -1.488281 10.835938 -0.296875 L 11.066406 0.410156 L 2.0625 3.335938 C 1.8125 3.417969 1.519531 3.269531 1.433594 3.003906 C 1.398438 2.902344 1.277344 2.828125 1.160156 2.867188 C 1.042969 2.902344 0.988281 3.035156 1.019531 3.140625 L 2.027344 6.234375 C 2.0625 6.351562 2.179688 6.410156 2.300781 6.371094 C 2.417969 6.335938 2.476562 6.21875 2.4375 6.097656 C 2.351562 5.835938 2.507812 5.554688 2.757812 5.472656 L 11.761719 2.546875 Z M 11.9375 5.652344 C 12.171875 5.363281 12.355469 5.027344 12.445312 4.65625 L 12.691406 5.40625 Z M 9.378906 -2.21875 L 10.132812 -2.460938 L 10.375 -1.710938 C 10.089844 -1.941406 9.738281 -2.121094 9.378906 -2.21875 Z M 2.144531 5.199219 L 1.726562 3.902344 L 11.199219 0.824219 L 11.621094 2.121094 Z M 2.144531 5.199219 "/></g></g></g><g fill="#000000" fill-opacity="1"><g transform="translate(98.134168, 226.050562)"><g><path d="M 13.835938 4.546875 C 13.890625 4.65625 14.015625 4.699219 14.125 4.644531 C 14.234375 4.589844 14.292969 4.457031 14.238281 4.347656 L 12.796875 1.429688 C 12.742188 1.316406 12.605469 1.28125 12.492188 1.335938 C 12.382812 1.390625 12.339844 1.515625 12.394531 1.628906 C 12.519531 1.878906 12.40625 2.175781 12.167969 2.292969 L 8.347656 4.175781 L 6.53125 0.492188 L 10.355469 -1.390625 C 10.589844 -1.507812 10.902344 -1.402344 11.019531 -1.167969 C 11.074219 -1.054688 11.203125 -1 11.316406 -1.054688 C 11.425781 -1.109375 11.476562 -1.253906 11.421875 -1.363281 L 9.988281 -4.269531 C 9.933594 -4.378906 9.796875 -4.414062 9.683594 -4.359375 C 9.574219 -4.304688 9.53125 -4.183594 9.585938 -4.070312 C 9.707031 -3.820312 9.597656 -3.523438 9.359375 -3.40625 L 1.3125 0.5625 C 1.078125 0.679688 0.773438 0.585938 0.648438 0.335938 C 0.59375 0.226562 0.46875 0.183594 0.359375 0.238281 C 0.246094 0.292969 0.191406 0.421875 0.246094 0.535156 L 1.679688 3.4375 C 1.734375 3.550781 1.878906 3.601562 1.988281 3.546875 C 2.101562 3.488281 2.136719 3.351562 2.082031 3.242188 C 1.964844 3.003906 2.070312 2.691406 2.308594 2.578125 L 6.128906 0.691406 L 7.945312 4.375 L 4.125 6.257812 C 3.886719 6.375 3.582031 6.285156 3.460938 6.035156 C 3.40625 5.921875 3.28125 5.878906 3.167969 5.933594 C 3.058594 5.988281 3 6.121094 3.054688 6.234375 L 4.496094 9.152344 C 4.550781 9.261719 4.6875 9.296875 4.800781 9.242188 C 4.910156 9.1875 4.953125 9.0625 4.898438 8.953125 C 4.773438 8.703125 4.886719 8.40625 5.125 8.289062 L 13.171875 4.320312 C 13.40625 4.203125 13.710938 4.296875 13.835938 4.546875 Z M 10.003906 -3.222656 L 10.597656 -2.015625 L 1.664062 2.394531 L 1.066406 1.183594 Z M 12.8125 2.476562 L 13.417969 3.699219 L 4.480469 8.105469 L 3.878906 6.882812 Z M 12.8125 2.476562 "/></g></g></g><g fill="#000000" fill-opacity="1"><g transform="translate(104.76014, 238.793562)"><g><path d="M 12.003906 -0.847656 C 12.710938 0.191406 12.441406 1.609375 11.402344 2.316406 C 11.300781 2.386719 11.277344 2.515625 11.347656 2.621094 C 11.417969 2.722656 11.546875 2.746094 11.648438 2.675781 L 13.710938 1.273438 C 13.8125 1.203125 13.847656 1.0625 13.78125 0.960938 L 9.296875 -5.621094 C 9.226562 -5.722656 9.082031 -5.738281 8.980469 -5.667969 C 8.878906 -5.597656 8.855469 -5.46875 8.925781 -5.367188 C 9.082031 -5.136719 9.011719 -4.828125 8.792969 -4.679688 L 1.378906 0.371094 C 1.160156 0.519531 0.847656 0.472656 0.691406 0.242188 C 0.621094 0.140625 0.492188 0.117188 0.386719 0.183594 C 0.285156 0.253906 0.25 0.394531 0.320312 0.496094 L 4.804688 7.078125 C 4.871094 7.179688 5.015625 7.195312 5.117188 7.125 L 7.179688 5.722656 C 7.28125 5.652344 7.304688 5.523438 7.234375 5.417969 C 7.167969 5.316406 7.035156 5.292969 6.933594 5.363281 C 5.898438 6.070312 4.476562 5.800781 3.769531 4.761719 L 2.234375 2.507812 L 6.179688 -0.179688 L 7.007812 1.039062 C 7.164062 1.269531 7.105469 1.570312 6.875 1.726562 C 6.773438 1.796875 6.738281 1.933594 6.808594 2.039062 C 6.875 2.140625 7.027344 2.167969 7.128906 2.097656 L 8.320312 1.289062 C 8.421875 1.21875 8.4375 1.074219 8.367188 0.972656 C 8.300781 0.871094 8.171875 0.847656 8.066406 0.914062 C 7.835938 1.074219 7.535156 1.015625 7.378906 0.785156 L 6.550781 -0.429688 L 10.46875 -3.101562 Z M 12.632812 1.480469 C 12.765625 1.125 12.847656 0.75 12.839844 0.382812 L 13.285156 1.035156 Z M 9.457031 -4.585938 L 10.214844 -3.472656 C 10.214844 -3.472656 6.105469 -0.671875 6.105469 -0.671875 L 1.980469 2.136719 L 1.222656 1.023438 Z M 5.707031 6.199219 L 5.050781 6.644531 L 4.605469 5.992188 C 4.949219 6.132812 5.328125 6.195312 5.707031 6.199219 Z M 5.707031 6.199219 "/></g></g></g><g fill="#000000" fill-opacity="1"><g transform="translate(112.076566, 249.020632)"><g/></g></g><g fill="#000000" fill-opacity="1"><g transform="translate(117.997159, 255.750254)"><g><path d="M 8.34375 -0.640625 L 6.925781 -2.953125 C 6.519531 -3.65625 6.632812 -4.523438 7.1875 -5.113281 C 7.886719 -5.855469 9.046875 -5.894531 9.792969 -5.191406 L 10.152344 -4.851562 C 11.261719 -3.8125 11.316406 -2.058594 10.273438 -0.953125 C 10.191406 -0.863281 10.195312 -0.710938 10.273438 -0.636719 C 10.363281 -0.550781 10.515625 -0.554688 10.601562 -0.644531 L 12.574219 -2.746094 C 12.660156 -2.835938 12.644531 -2.980469 12.554688 -3.0625 C 12.476562 -3.136719 12.332031 -3.144531 12.25 -3.054688 L 12.066406 -2.863281 C 11.941406 -2.726562 11.710938 -2.707031 11.5625 -2.847656 C 11.507812 -2.898438 11.472656 -2.996094 11.457031 -3.074219 C 11.457031 -3.09375 11.457031 -3.09375 11.457031 -3.117188 C 11.390625 -3.882812 11.058594 -4.617188 10.460938 -5.179688 L 10.101562 -5.519531 C 8.800781 -6.738281 6.777344 -6.667969 5.566406 -5.378906 C 4.589844 -4.339844 4.410156 -2.765625 5.136719 -1.550781 L 6.558594 0.761719 C 6.960938 1.460938 6.847656 2.332031 6.292969 2.917969 C 5.59375 3.664062 4.433594 3.699219 3.6875 3 L 2.839844 2.203125 C 1.722656 1.152344 1.667969 -0.601562 2.710938 -1.707031 C 2.792969 -1.796875 2.800781 -1.9375 2.710938 -2.023438 C 2.621094 -2.109375 2.476562 -2.09375 2.394531 -2.003906 L 0.417969 0.0976562 C 0.335938 0.1875 0.339844 0.320312 0.429688 0.402344 C 0.519531 0.488281 0.652344 0.484375 0.734375 0.394531 L 0.917969 0.203125 C 1.042969 0.0664062 1.273438 0.046875 1.417969 0.1875 C 1.488281 0.25 1.511719 0.335938 1.535156 0.421875 C 1.527344 0.433594 1.539062 0.445312 1.527344 0.457031 C 1.59375 1.222656 1.925781 1.957031 2.535156 2.53125 L 3.378906 3.328125 C 4.667969 4.535156 6.703125 4.472656 7.914062 3.1875 C 8.890625 2.148438 9.074219 0.574219 8.34375 -0.640625 Z M 11.578125 -2.34375 L 11.390625 -2.140625 C 11.40625 -2.226562 11.425781 -2.316406 11.4375 -2.394531 C 11.480469 -2.371094 11.535156 -2.363281 11.578125 -2.34375 Z M 1.402344 -0.316406 L 1.59375 -0.519531 C 1.574219 -0.433594 1.558594 -0.34375 1.558594 -0.257812 C 1.503906 -0.289062 1.449219 -0.296875 1.402344 -0.316406 Z M 5.914062 3.730469 C 6.171875 3.613281 6.410156 3.453125 6.621094 3.226562 C 7.3125 2.492188 7.433594 1.414062 6.945312 0.53125 L 5.515625 -1.769531 C 4.890625 -2.824219 5.042969 -4.191406 5.882812 -5.082031 C 6.339844 -5.566406 6.945312 -5.847656 7.566406 -5.921875 C 7.308594 -5.804688 7.070312 -5.644531 6.859375 -5.417969 C 6.167969 -4.683594 6.050781 -3.609375 6.535156 -2.722656 L 7.96875 -0.421875 C 8.589844 0.632812 8.4375 1.996094 7.597656 2.890625 C 7.140625 3.375 6.535156 3.65625 5.914062 3.730469 Z M 5.914062 3.730469 "/></g></g></g><g fill="#000000" fill-opacity="1"><g transform="translate(126.758175, 263.738973)"><g><path d="M 11.582031 -4.472656 C 12.601562 -3.742188 12.832031 -2.3125 12.101562 -1.292969 C 12.027344 -1.195312 12.0625 -1.054688 12.164062 -0.980469 C 12.25 -0.917969 12.390625 -0.929688 12.464844 -1.03125 L 13.921875 -3.054688 C 13.996094 -3.15625 13.96875 -3.308594 13.882812 -3.371094 L 6.800781 -8.46875 C 6.703125 -8.539062 6.5625 -8.507812 6.488281 -8.40625 L 5.03125 -6.382812 C 4.960938 -6.28125 4.980469 -6.152344 5.082031 -6.078125 C 5.183594 -6.007812 5.3125 -6.027344 5.382812 -6.128906 C 6.117188 -7.148438 7.546875 -7.378906 8.5625 -6.644531 L 9.167969 -6.210938 L 3.636719 1.472656 C 3.484375 1.6875 3.160156 1.738281 2.933594 1.574219 C 2.84375 1.511719 2.703125 1.523438 2.628906 1.625 C 2.558594 1.726562 2.589844 1.863281 2.679688 1.929688 L 5.320312 3.828125 C 5.421875 3.902344 5.550781 3.878906 5.621094 3.78125 C 5.695312 3.679688 5.671875 3.550781 5.574219 3.476562 C 5.347656 3.3125 5.304688 3 5.460938 2.785156 L 10.992188 -4.898438 Z M 12.96875 -2.5 C 12.988281 -2.871094 12.9375 -3.25 12.789062 -3.605469 L 13.429688 -3.144531 Z M 6.253906 -7.335938 L 6.714844 -7.976562 L 7.355469 -7.515625 C 6.988281 -7.53125 6.597656 -7.46875 6.253906 -7.335938 Z M 4.804688 2.925781 L 3.699219 2.128906 L 9.519531 -5.957031 L 10.625 -5.160156 Z M 4.804688 2.925781 "/></g></g></g><g fill="#000000" fill-opacity="1"><g transform="translate(137.846313, 271.477124)"><g><path d="M 10.234375 -7.039062 C 7.519531 -8.433594 4.195312 -7.355469 2.808594 -4.652344 C 1.414062 -1.9375 2.472656 1.390625 5.1875 2.785156 C 7.902344 4.183594 11.242188 3.109375 12.636719 0.394531 C 14.023438 -2.308594 12.953125 -5.644531 10.234375 -7.039062 Z M 10.5 -0.703125 C 9.21875 1.792969 6.9375 3.179688 5.394531 2.386719 C 3.863281 1.601562 3.648438 -1.070312 4.929688 -3.5625 C 6.207031 -6.042969 8.5 -7.425781 10.03125 -6.640625 C 11.574219 -5.847656 11.773438 -3.183594 10.5 -0.703125 Z M 3.195312 -4.457031 C 4.171875 -6.359375 6.214844 -7.382812 8.234375 -7.179688 C 6.867188 -6.785156 5.445312 -5.546875 4.53125 -3.769531 C 3.609375 -1.976562 3.429688 -0.101562 3.910156 1.242188 C 2.566406 -0.285156 2.210938 -2.539062 3.195312 -4.457031 Z M 7.1875 2.925781 C 8.558594 2.53125 9.980469 1.292969 10.890625 -0.484375 C 11.8125 -2.277344 11.992188 -4.152344 11.515625 -5.496094 C 12.855469 -3.96875 13.214844 -1.714844 12.230469 0.203125 C 11.253906 2.105469 9.210938 3.128906 7.1875 2.925781 Z M 7.1875 2.925781 "/></g></g></g><g fill="#000000" fill-opacity="1"><g transform="translate(151.720221, 278.258211)"><g><path d="M 6.375 -1.03125 L 7.195312 2.273438 C 7.222656 2.34375 7.269531 2.394531 7.34375 2.417969 L 9.375 3.085938 C 9.375 3.085938 9.371094 3.101562 9.371094 3.101562 L 10.0625 3.328125 C 10.179688 3.367188 10.300781 3.292969 10.339844 3.175781 C 10.378906 3.058594 10.320312 2.941406 10.203125 2.902344 C 9.90625 2.804688 9.578125 2.421875 9.460938 2.039062 L 8.71875 -0.914062 C 10.007812 -1.257812 11.054688 -2.214844 11.476562 -3.496094 C 12.148438 -5.527344 11.035156 -7.753906 9.011719 -8.4375 C 8.996094 -8.441406 8.984375 -8.460938 8.96875 -8.464844 C 8.96875 -8.464844 6.351562 -9.328125 6.351562 -9.328125 L 3.953125 -10.117188 C 3.835938 -10.15625 3.710938 -10.082031 3.671875 -9.964844 C 3.632812 -9.847656 3.695312 -9.730469 3.8125 -9.691406 C 4.074219 -9.605469 4.210938 -9.316406 4.128906 -9.066406 L 1.320312 -0.542969 C 1.238281 -0.292969 0.960938 -0.140625 0.695312 -0.226562 C 0.578125 -0.265625 0.460938 -0.207031 0.421875 -0.0898438 C 0.382812 0.0273438 0.441406 0.144531 0.558594 0.183594 L 3.636719 1.195312 C 3.753906 1.234375 3.886719 1.179688 3.925781 1.0625 C 3.960938 0.945312 3.890625 0.824219 3.769531 0.785156 C 3.519531 0.703125 3.371094 0.410156 3.453125 0.160156 L 4.09375 -1.785156 Z M 6.867188 -0.886719 C 7.324219 -0.785156 7.808594 -0.773438 8.28125 -0.828125 L 9.019531 2.089844 C 9.015625 2.105469 9.027344 2.109375 9.027344 2.109375 L 9.128906 2.550781 L 7.597656 2.046875 Z M 11.050781 -3.636719 C 10.660156 -2.445312 9.640625 -1.539062 8.410156 -1.308594 C 8.21875 -1.273438 8.027344 -1.238281 7.84375 -1.234375 C 7.851562 -1.25 7.871094 -1.257812 7.890625 -1.269531 C 7.910156 -1.277344 7.933594 -1.304688 7.953125 -1.3125 C 7.972656 -1.324219 7.996094 -1.347656 8.015625 -1.355469 C 8.039062 -1.382812 8.058594 -1.390625 8.085938 -1.417969 C 8.109375 -1.441406 8.148438 -1.460938 8.175781 -1.5 C 8.195312 -1.507812 8.214844 -1.519531 8.242188 -1.542969 C 8.265625 -1.570312 8.269531 -1.582031 8.292969 -1.609375 C 8.320312 -1.632812 8.339844 -1.640625 8.363281 -1.667969 C 8.382812 -1.675781 8.386719 -1.691406 8.410156 -1.714844 C 8.972656 -2.28125 9.445312 -3.121094 9.753906 -4.0625 C 10.1875 -5.375 10.207031 -6.621094 9.878906 -7.464844 C 11.011719 -6.585938 11.519531 -5.0625 11.050781 -3.636719 Z M 9.34375 -4.199219 C 9.054688 -3.316406 8.605469 -2.550781 8.09375 -2.035156 C 8.09375 -2.035156 8.09375 -2.035156 8.085938 -2.019531 C 7.59375 -1.511719 7.082031 -1.289062 6.679688 -1.40625 C 6.679688 -1.40625 6.664062 -1.410156 6.648438 -1.414062 L 6.621094 -1.425781 L 4.234375 -2.210938 L 6.417969 -8.832031 L 8.828125 -8.039062 C 8.84375 -8.035156 8.859375 -8.027344 8.859375 -8.027344 C 8.859375 -8.027344 8.859375 -8.027344 8.875 -8.023438 C 9.699219 -7.703125 9.921875 -5.949219 9.34375 -4.199219 Z M 4.710938 -9.394531 L 6.003906 -8.96875 L 2.886719 0.496094 L 1.59375 0.0664062 Z M 4.710938 -9.394531 "/></g></g></g><g fill="#000000" fill-opacity="1"><g transform="translate(165.901721, 282.640922)"><g><path d="M 7.316406 0.769531 C 7.195312 0.75 7.085938 0.828125 7.066406 0.949219 C 7.046875 1.070312 7.121094 1.195312 7.242188 1.214844 L 10.605469 1.769531 C 10.714844 1.789062 10.839844 1.699219 10.859375 1.578125 C 10.878906 1.457031 10.785156 1.347656 10.679688 1.328125 C 10.375 1.277344 10.035156 0.953125 9.964844 0.613281 L 7.550781 -9.570312 L 7.542969 -9.605469 C 7.53125 -9.621094 7.53125 -9.636719 7.519531 -9.65625 C 7.519531 -9.65625 7.519531 -9.65625 7.507812 -9.671875 C 7.507812 -9.6875 7.492188 -9.691406 7.480469 -9.707031 C 7.464844 -9.710938 7.464844 -9.710938 7.464844 -9.710938 C 7.46875 -9.726562 7.453125 -9.730469 7.4375 -9.730469 C 7.4375 -9.730469 7.441406 -9.746094 7.425781 -9.75 C 7.425781 -9.75 7.425781 -9.75 7.410156 -9.75 C 7.394531 -9.753906 7.382812 -9.773438 7.367188 -9.773438 C 7.332031 -9.765625 7.316406 -9.765625 7.300781 -9.769531 C 7.300781 -9.769531 7.289062 -9.773438 7.289062 -9.773438 C 7.269531 -9.757812 7.253906 -9.761719 7.238281 -9.75 C 7.21875 -9.738281 7.203125 -9.738281 7.183594 -9.726562 C 7.183594 -9.726562 7.183594 -9.710938 7.183594 -9.710938 C 7.164062 -9.699219 7.148438 -9.683594 7.144531 -9.671875 L 6.695312 -8.957031 L 5.785156 -7.523438 L 1.558594 -0.777344 C 1.367188 -0.480469 0.957031 -0.28125 0.652344 -0.332031 C 0.53125 -0.351562 0.421875 -0.277344 0.402344 -0.152344 C 0.382812 -0.03125 0.457031 0.0898438 0.578125 0.113281 L 2 0.347656 C 2.121094 0.367188 2.230469 0.273438 2.253906 0.152344 C 2.273438 0.03125 2.195312 -0.078125 2.074219 -0.0976562 C 1.996094 -0.109375 1.90625 -0.140625 1.859375 -0.226562 C 1.824219 -0.308594 1.84375 -0.417969 1.929688 -0.542969 L 2.203125 -0.984375 C 3.238281 -2.480469 4.972656 -3.292969 6.753906 -3.136719 L 7.597656 0.394531 C 7.636719 0.542969 7.621094 0.648438 7.5625 0.71875 C 7.488281 0.785156 7.394531 0.785156 7.316406 0.769531 Z M 8.171875 0.914062 L 8.089844 0.554688 L 8.023438 0.292969 L 6.214844 -7.375 L 7.234375 -8.980469 L 9.640625 1.15625 Z M 3.25 -2.648438 L 5.890625 -6.847656 L 6.65625 -3.59375 C 5.429688 -3.671875 4.238281 -3.320312 3.25 -2.648438 Z M 3.25 -2.648438 "/></g></g></g><g fill="#000000" fill-opacity="1"><g transform="translate(180.715703, 284.779558)"><g><path d="M 10.011719 -10.246094 L 10.015625 -10.460938 C 10.019531 -10.585938 9.925781 -10.679688 9.800781 -10.683594 C 9.679688 -10.683594 9.582031 -10.59375 9.582031 -10.46875 L 9.578125 -10.253906 C 9.574219 -10.050781 9.402344 -9.882812 9.203125 -9.886719 C 9.125 -9.886719 9.046875 -9.902344 9 -9.949219 C 8.984375 -9.949219 8.984375 -9.949219 8.96875 -9.96875 C 8.09375 -10.523438 7.09375 -10.832031 6.085938 -10.847656 C 6.070312 -10.847656 6.070312 -10.847656 6.054688 -10.847656 C 5.992188 -10.847656 5.945312 -10.851562 5.882812 -10.851562 C 4.535156 -10.824219 3.179688 -10.320312 2.125 -9.296875 C -0.0625 -7.175781 -0.113281 -3.660156 2.007812 -1.472656 C 3.042969 -0.402344 4.445312 0.175781 5.886719 0.199219 C 6.566406 0.207031 7.25 0.09375 7.921875 -0.15625 C 8.621094 -0.425781 9.265625 -0.820312 9.816406 -1.351562 C 9.832031 -1.367188 9.832031 -1.382812 9.847656 -1.398438 C 9.847656 -1.398438 9.847656 -1.414062 9.863281 -1.414062 C 9.863281 -1.414062 9.863281 -1.429688 9.863281 -1.429688 C 9.863281 -1.445312 9.878906 -1.445312 9.878906 -1.460938 C 9.878906 -1.460938 9.878906 -1.460938 9.878906 -1.476562 C 9.878906 -1.492188 9.878906 -1.507812 9.878906 -1.507812 L 9.9375 -5.273438 C 9.9375 -5.378906 9.847656 -5.492188 9.722656 -5.492188 L 7.199219 -5.53125 C 7.074219 -5.53125 6.980469 -5.425781 6.976562 -5.316406 C 6.976562 -5.191406 7.066406 -5.082031 7.191406 -5.082031 C 7.46875 -5.078125 7.683594 -4.855469 7.679688 -4.578125 L 7.617188 -0.519531 C 7.054688 -0.324219 6.464844 -0.242188 5.894531 -0.25 C 4.15625 -0.277344 2.796875 -2.578125 2.839844 -5.363281 C 2.882812 -8.105469 4.25 -10.316406 5.921875 -10.402344 C 7.257812 -10.410156 8.613281 -9.894531 9.621094 -8.855469 C 9.621094 -8.855469 9.632812 -8.839844 9.648438 -8.839844 C 9.648438 -8.839844 9.648438 -8.824219 9.648438 -8.824219 C 9.664062 -8.824219 9.679688 -8.824219 9.695312 -8.808594 C 9.710938 -8.808594 9.742188 -8.792969 9.773438 -8.792969 C 9.898438 -8.789062 9.992188 -8.898438 9.992188 -9.019531 C 9.992188 -9.019531 10.011719 -10.246094 10.011719 -10.246094 Z M 9.566406 -9.523438 C 9.550781 -9.523438 9.550781 -9.523438 9.550781 -9.523438 C 9.550781 -9.523438 9.550781 -9.523438 9.566406 -9.523438 Z M 9.445312 -1.621094 C 9.414062 -1.589844 9.382812 -1.5625 9.351562 -1.53125 C 9.335938 -1.515625 9.320312 -1.5 9.304688 -1.484375 C 9.242188 -1.4375 9.179688 -1.378906 9.117188 -1.332031 C 9.101562 -1.332031 9.101562 -1.316406 9.085938 -1.316406 C 9.039062 -1.273438 8.976562 -1.226562 8.929688 -1.195312 C 8.898438 -1.179688 8.882812 -1.164062 8.867188 -1.152344 C 8.820312 -1.121094 8.773438 -1.089844 8.726562 -1.058594 C 8.710938 -1.042969 8.679688 -1.03125 8.664062 -1.015625 C 8.617188 -0.984375 8.554688 -0.953125 8.507812 -0.921875 C 8.492188 -0.910156 8.476562 -0.910156 8.460938 -0.894531 C 8.382812 -0.847656 8.320312 -0.816406 8.242188 -0.773438 C 8.226562 -0.773438 8.226562 -0.773438 8.210938 -0.757812 C 8.164062 -0.742188 8.117188 -0.710938 8.070312 -0.699219 L 8.128906 -4.570312 L 8.136719 -5.066406 L 9.5 -5.046875 Z M 2.390625 -5.386719 C 2.359375 -3.375 3.03125 -1.597656 4.054688 -0.621094 C 3.40625 -0.878906 2.824219 -1.273438 2.320312 -1.792969 C 0.367188 -3.792969 0.417969 -7.027344 2.429688 -8.964844 C 2.949219 -9.484375 3.558594 -9.847656 4.199219 -10.085938 C 3.144531 -9.125 2.421875 -7.386719 2.390625 -5.386719 Z M 2.390625 -5.386719 "/></g></g></g><g fill="#000000" fill-opacity="1"><g transform="translate(194.490429, 284.711766)"><g><path d="M 4.753906 -11.054688 C 6 -11.207031 7.136719 -10.316406 7.289062 -9.070312 C 7.304688 -8.945312 7.410156 -8.867188 7.53125 -8.878906 C 7.65625 -8.894531 7.738281 -9 7.722656 -9.121094 L 7.417969 -11.597656 C 7.402344 -11.722656 7.296875 -11.816406 7.175781 -11.804688 L -0.730469 -10.839844 C -0.851562 -10.824219 -0.933594 -10.703125 -0.917969 -10.582031 C -0.902344 -10.457031 -0.796875 -10.375 -0.675781 -10.390625 C -0.398438 -10.425781 -0.15625 -10.222656 -0.125 -9.960938 L 0.964844 -1.054688 C 0.996094 -0.792969 0.808594 -0.535156 0.53125 -0.503906 C 0.410156 -0.488281 0.328125 -0.382812 0.34375 -0.261719 C 0.359375 -0.136719 0.464844 -0.0390625 0.585938 -0.0546875 L 8.492188 -1.019531 C 8.613281 -1.035156 8.695312 -1.15625 8.679688 -1.277344 L 8.375 -3.753906 C 8.363281 -3.878906 8.257812 -3.957031 8.136719 -3.945312 C 8.011719 -3.929688 7.929688 -3.824219 7.945312 -3.703125 C 8.097656 -2.457031 7.207031 -1.316406 5.960938 -1.164062 L 3.253906 -0.835938 L 2.675781 -5.570312 L 4.136719 -5.75 C 4.414062 -5.785156 4.65625 -5.59375 4.6875 -5.316406 C 4.703125 -5.195312 4.808594 -5.097656 4.933594 -5.113281 C 5.054688 -5.128906 5.148438 -5.25 5.136719 -5.371094 L 4.960938 -6.804688 C 4.945312 -6.925781 4.828125 -7.003906 4.703125 -6.988281 C 4.582031 -6.976562 4.5 -6.871094 4.515625 -6.75 C 4.546875 -6.472656 4.359375 -6.230469 4.082031 -6.195312 L 2.621094 -6.019531 L 2.046875 -10.722656 Z M 7.109375 -10.546875 C 6.859375 -10.828125 6.5625 -11.074219 6.230469 -11.234375 L 7.015625 -11.332031 Z M 0.261719 -10.507812 L 1.601562 -10.667969 C 1.601562 -10.667969 2.203125 -5.734375 2.203125 -5.734375 L 2.808594 -0.78125 L 1.46875 -0.617188 Z M 8.125 -2.226562 L 8.222656 -1.441406 L 7.4375 -1.34375 C 7.722656 -1.582031 7.949219 -1.890625 8.125 -2.226562 Z M 8.125 -2.226562 "/></g></g></g><g fill="#000000" fill-opacity="1"><g transform="translate(206.933276, 282.900467)"><g/></g></g><g fill="#000000" fill-opacity="1"><g transform="translate(215.750346, 280.786088)"><g><path d="M 1.675781 -12.308594 C -1.183594 -11.238281 -2.621094 -8.050781 -1.554688 -5.207031 C -0.484375 -2.351562 2.691406 -0.894531 5.550781 -1.964844 C 8.410156 -3.035156 9.859375 -6.226562 8.789062 -9.085938 C 7.722656 -11.929688 4.53125 -13.382812 1.675781 -12.308594 Z M 6.539062 -8.242188 C 7.523438 -5.617188 7.019531 -2.996094 5.394531 -2.386719 C 3.785156 -1.78125 1.664062 -3.421875 0.679688 -6.046875 C -0.300781 -8.65625 0.222656 -11.285156 1.832031 -11.890625 C 3.457031 -12.5 5.5625 -10.855469 6.539062 -8.242188 Z M -1.148438 -5.359375 C -1.898438 -7.363281 -1.285156 -9.5625 0.226562 -10.921875 C -0.40625 -9.644531 -0.441406 -7.761719 0.257812 -5.886719 C 0.964844 -4.003906 2.234375 -2.609375 3.546875 -2.058594 C 1.515625 -2.089844 -0.394531 -3.34375 -1.148438 -5.359375 Z M 7 -3.351562 C 7.628906 -4.628906 7.667969 -6.515625 6.96875 -8.386719 C 6.261719 -10.273438 4.992188 -11.667969 3.679688 -12.21875 C 5.710938 -12.183594 7.617188 -10.929688 8.375 -8.914062 C 9.125 -6.910156 8.511719 -4.710938 7 -3.351562 Z M 7 -3.351562 "/></g></g></g><g fill="#000000" fill-opacity="1"><g transform="translate(230.06425, 275.066735)"><g><path d="M 3.15625 -14.195312 L 1.898438 -13.492188 C 1.792969 -13.429688 1.761719 -13.289062 1.824219 -13.183594 C 1.882812 -13.074219 2.011719 -13.039062 2.117188 -13.097656 C 2.363281 -13.234375 2.664062 -13.136719 2.792969 -12.90625 L 5.707031 -7.699219 C 6.675781 -5.96875 6.054688 -3.777344 4.324219 -2.808594 C 3.457031 -2.324219 1.9375 -3.355469 0.984375 -5.0625 L -1.925781 -10.269531 C -2.054688 -10.496094 -1.964844 -10.8125 -1.734375 -10.941406 C -1.628906 -11.003906 -1.578125 -11.136719 -1.636719 -11.246094 C -1.699219 -11.351562 -1.847656 -11.394531 -1.953125 -11.335938 L -2.578125 -10.988281 C -2.578125 -10.988281 -2.570312 -10.972656 -2.570312 -10.972656 L -4.136719 -10.097656 C -4.152344 -10.089844 -4.160156 -10.101562 -4.160156 -10.101562 L -4.78125 -9.753906 C -4.890625 -9.691406 -4.917969 -9.554688 -4.855469 -9.445312 C -4.796875 -9.335938 -4.667969 -9.300781 -4.5625 -9.363281 C -4.316406 -9.496094 -4.015625 -9.402344 -3.886719 -9.171875 L -0.976562 -3.964844 C 0.113281 -2.015625 2.582031 -1.320312 4.542969 -2.417969 C 6.488281 -3.503906 7.1875 -5.972656 6.097656 -7.921875 L 3.1875 -13.125 C 3.058594 -13.355469 3.148438 -13.671875 3.375 -13.800781 C 3.484375 -13.863281 3.535156 -13.996094 3.472656 -14.105469 C 3.414062 -14.210938 3.265625 -14.253906 3.15625 -14.195312 Z M -0.582031 -4.183594 L -3.738281 -9.824219 L -2.546875 -10.488281 L 0.609375 -4.847656 C 1.304688 -3.605469 2.246094 -2.710938 3.121094 -2.386719 C 1.667969 -2.160156 0.175781 -2.832031 -0.582031 -4.183594 Z M -0.582031 -4.183594 "/></g></g></g><g fill="#000000" fill-opacity="1"><g transform="translate(241.867368, 268.074897)"><g/></g></g><g fill="#000000" fill-opacity="1"><g transform="translate(249.147763, 262.728448)"><g><path d="M 0.0078125 -14.792969 L -1.046875 -13.8125 C -1.140625 -13.726562 -1.132812 -13.585938 -1.050781 -13.492188 C -0.964844 -13.402344 -0.835938 -13.398438 -0.742188 -13.480469 C -0.539062 -13.671875 -0.222656 -13.648438 -0.0429688 -13.457031 C -0.0429688 -13.457031 -0.03125 -13.445312 -0.03125 -13.445312 L 5.273438 -7.714844 L -4.636719 -10.34375 C -4.699219 -10.367188 -4.777344 -10.335938 -4.835938 -10.285156 C -4.835938 -10.285156 -6.402344 -8.832031 -6.402344 -8.832031 L -6.925781 -8.347656 C -7.019531 -8.261719 -7.023438 -8.132812 -6.9375 -8.039062 C -6.855469 -7.949219 -6.722656 -7.945312 -6.632812 -8.027344 C -6.519531 -8.132812 -6.351562 -8.203125 -6.152344 -8.242188 L 0.164062 -1.417969 C 0.34375 -1.226562 0.34375 -0.90625 0.136719 -0.71875 C 0.046875 -0.632812 0.0429688 -0.503906 0.125 -0.410156 C 0.210938 -0.320312 0.351562 -0.304688 0.441406 -0.390625 L 1.5 -1.367188 C 1.589844 -1.453125 1.585938 -1.59375 1.5 -1.6875 C 1.417969 -1.777344 1.285156 -1.78125 1.195312 -1.699219 C 0.988281 -1.507812 0.671875 -1.53125 0.492188 -1.722656 L -5.558594 -8.261719 C -5.539062 -8.261719 -5.515625 -8.261719 -5.484375 -8.246094 L 5.585938 -5.300781 C 5.664062 -5.285156 5.742188 -5.292969 5.796875 -5.347656 L 6.855469 -6.328125 C 6.945312 -6.410156 6.953125 -6.5625 6.867188 -6.65625 L 0.289062 -13.761719 C 0.0976562 -13.964844 0.109375 -14.273438 0.3125 -14.460938 C 0.40625 -14.546875 0.410156 -14.675781 0.324219 -14.769531 C 0.242188 -14.859375 0.101562 -14.875 0.0078125 -14.792969 Z M -5.367188 -8.671875 L -5.402344 -8.683594 L -5.8125 -8.785156 L -4.632812 -9.882812 L 5.84375 -7.101562 L 6.390625 -6.507812 L 5.582031 -5.761719 Z M -5.367188 -8.671875 "/></g></g></g><g fill="#000000" fill-opacity="1"><g transform="translate(259.376284, 252.850361)"><g><path d="M -4.222656 -11.269531 C -3.429688 -12.242188 -1.988281 -12.386719 -1.019531 -11.59375 C -0.921875 -11.515625 -0.789062 -11.527344 -0.710938 -11.625 C -0.632812 -11.71875 -0.648438 -11.851562 -0.742188 -11.929688 L -2.675781 -13.507812 C -2.773438 -13.585938 -2.914062 -13.582031 -2.992188 -13.484375 L -8.03125 -7.316406 C -8.109375 -7.21875 -8.082031 -7.078125 -7.988281 -7 C -7.890625 -6.921875 -7.761719 -6.933594 -7.683594 -7.03125 C -7.503906 -7.246094 -7.1875 -7.269531 -6.984375 -7.101562 L -0.0351562 -1.429688 C 0.167969 -1.261719 0.210938 -0.945312 0.0351562 -0.730469 C -0.0429688 -0.632812 -0.0273438 -0.503906 0.0664062 -0.425781 C 0.164062 -0.347656 0.304688 -0.351562 0.382812 -0.445312 L 5.421875 -6.617188 C 5.5 -6.710938 5.472656 -6.851562 5.378906 -6.929688 L 3.445312 -8.507812 C 3.351562 -8.585938 3.21875 -8.574219 3.140625 -8.476562 C 3.0625 -8.382812 3.074219 -8.25 3.171875 -8.171875 C 4.144531 -7.378906 4.289062 -5.941406 3.496094 -4.96875 L 1.769531 -2.855469 L -1.925781 -5.875 L -0.996094 -7.011719 C -0.820312 -7.230469 -0.515625 -7.261719 -0.296875 -7.082031 C -0.203125 -7.003906 -0.0585938 -7.007812 0.0195312 -7.105469 C 0.0976562 -7.199219 0.0820312 -7.355469 -0.0117188 -7.433594 L -1.128906 -8.34375 C -1.226562 -8.421875 -1.367188 -8.398438 -1.445312 -8.300781 C -1.523438 -8.203125 -1.511719 -8.074219 -1.414062 -7.996094 C -1.199219 -7.820312 -1.167969 -7.511719 -1.34375 -7.296875 L -2.273438 -6.15625 L -5.949219 -9.15625 Z M -2.171875 -12.53125 C -2.546875 -12.5625 -2.929688 -12.535156 -3.28125 -12.421875 L -2.78125 -13.03125 Z M -7.085938 -7.761719 L -6.230469 -8.808594 C -6.230469 -8.808594 -2.378906 -5.664062 -2.378906 -5.664062 L 1.488281 -2.507812 L 0.632812 -1.460938 Z M 4.324219 -7.230469 L 4.9375 -6.730469 L 4.4375 -6.121094 C 4.476562 -6.488281 4.425781 -6.867188 4.324219 -7.230469 Z M 4.324219 -7.230469 "/></g></g></g><g fill="#000000" fill-opacity="1"><g transform="translate(267.214573, 242.886005)"><g><path d="M -5.65625 -10.621094 C -5 -11.6875 -3.589844 -12.019531 -2.523438 -11.359375 C -2.417969 -11.296875 -2.289062 -11.324219 -2.222656 -11.429688 C -2.160156 -11.535156 -2.1875 -11.664062 -2.292969 -11.730469 L -4.417969 -13.039062 C -4.523438 -13.105469 -4.664062 -13.085938 -4.726562 -12.980469 L -8.917969 -6.203125 C -8.980469 -6.097656 -8.9375 -5.960938 -8.832031 -5.898438 C -8.726562 -5.832031 -8.597656 -5.863281 -8.535156 -5.96875 C -8.386719 -6.207031 -8.074219 -6.265625 -7.851562 -6.128906 L -0.21875 -1.410156 C 0.00390625 -1.273438 0.0859375 -0.964844 -0.0585938 -0.730469 C -0.125 -0.625 -0.09375 -0.496094 0.0117188 -0.429688 C 0.117188 -0.363281 0.257812 -0.386719 0.324219 -0.492188 L 4.511719 -7.265625 C 4.574219 -7.371094 4.53125 -7.507812 4.425781 -7.574219 L 2.304688 -8.886719 C 2.199219 -8.949219 2.070312 -8.921875 2.007812 -8.816406 C 1.941406 -8.710938 1.972656 -8.582031 2.078125 -8.515625 C 3.144531 -7.855469 3.476562 -6.449219 2.816406 -5.382812 L 1.382812 -3.0625 L -2.675781 -5.570312 L -1.902344 -6.824219 C -1.757812 -7.0625 -1.457031 -7.132812 -1.21875 -6.984375 C -1.113281 -6.917969 -0.972656 -6.941406 -0.910156 -7.046875 C -0.84375 -7.152344 -0.878906 -7.300781 -0.984375 -7.367188 L -2.210938 -8.125 C -2.316406 -8.191406 -2.453125 -8.144531 -2.515625 -8.039062 C -2.582031 -7.933594 -2.550781 -7.808594 -2.445312 -7.742188 C -2.207031 -7.59375 -2.136719 -7.296875 -2.285156 -7.058594 L -3.058594 -5.808594 L -7.09375 -8.300781 Z M -3.789062 -12.140625 C -4.164062 -12.121094 -4.542969 -12.042969 -4.875 -11.886719 L -4.460938 -12.558594 Z M -8.039062 -6.773438 L -7.328125 -7.917969 C -7.328125 -7.917969 -3.097656 -5.304688 -3.097656 -5.304688 L 1.144531 -2.679688 L 0.4375 -1.53125 Z M 3.34375 -7.734375 L 4.015625 -7.320312 L 3.597656 -6.648438 C 3.589844 -7.015625 3.492188 -7.386719 3.34375 -7.734375 Z M 3.34375 -7.734375 "/></g></g></g><g fill="#000000" fill-opacity="1"><g transform="translate(273.754847, 231.959834)"><g><path d="M -7.8125 -9.167969 L -8.675781 -7.195312 L -9.6875 -4.878906 C -9.738281 -4.765625 -9.6875 -4.644531 -9.574219 -4.59375 C -9.460938 -4.542969 -9.339844 -4.59375 -9.289062 -4.707031 C -9.179688 -4.960938 -8.878906 -5.066406 -8.636719 -4.960938 L -0.417969 -1.367188 C -0.175781 -1.261719 -0.0507812 -0.96875 -0.160156 -0.714844 C -0.210938 -0.601562 -0.164062 -0.476562 -0.0507812 -0.425781 C 0.0625 -0.378906 0.199219 -0.417969 0.25 -0.535156 L 2.125 -4.820312 C 3.324219 -7.558594 2.070312 -10.765625 -0.667969 -11.960938 C -3.410156 -13.160156 -6.613281 -11.90625 -7.8125 -9.167969 Z M 1.714844 -5 L 0.9375 -3.226562 L -8.191406 -7.21875 L -7.414062 -8.992188 C -6.710938 -10.597656 -4.097656 -11.007812 -1.570312 -9.902344 C 0.941406 -8.804688 2.414062 -6.605469 1.714844 -5 Z M -8.910156 -5.570312 L -8.371094 -6.808594 L 0.757812 -2.8125 L 0.21875 -1.578125 Z M 2.121094 -6.902344 C 1.652344 -8.222656 0.363281 -9.53125 -1.394531 -10.300781 C -3.171875 -11.078125 -5.003906 -11.136719 -6.296875 -10.585938 C -4.894531 -11.933594 -2.753906 -12.382812 -0.851562 -11.550781 C 1.039062 -10.726562 2.160156 -8.847656 2.121094 -6.902344 Z M 2.121094 -6.902344 "/></g></g></g><g fill="#000000" fill-opacity="1"><g transform="translate(279.227155, 218.497981)"><g/></g></g><path stroke-linecap="butt" transform="matrix(1.47839, 0, 0, 1.5, 83.4739, 188.249988)" fill="none" stroke-linejoin="miter" d="M -0.000841164 0.00000824117 L 15.731007 0.00000824117 " stroke="#000000" stroke-width="1" stroke-opacity="1" stroke-miterlimit="4"/><path stroke-linecap="butt" transform="matrix(1.47839, 0, 0, 1.5, 267.92823, 186.749988)" fill="none" stroke-linejoin="miter" d="M 0.000985798 0.0000081755 L 15.732834 0.0000081755 " stroke="#000000" stroke-width="1" stroke-opacity="1" stroke-miterlimit="4"/></svg>